<?xml version="1.0" encoding="UTF-8"?>
<svg version="1.1" xmlns="http://www.w3.org/2000/svg" width="512" height="512">
<path d="M0 0 C1.45341293 0.00323273 1.45341293 0.00323273 2.93618774 0.00653076 C68.80079226 0.24136638 131.05452909 25.5425664 178.4375 71.3125 C179.05834473 71.91143066 179.67918945 72.51036133 180.31884766 73.12744141 C188.22000259 80.79126503 195.76516955 88.53248394 202.4375 97.3125 C202.85418945 97.85277832 203.27087891 98.39305664 203.70019531 98.94970703 C211.3834873 108.9447116 218.12592968 119.40459036 224.4375 130.3125 C224.83179199 130.98974121 225.22608398 131.66698242 225.63232422 132.36474609 C240.57237689 158.33941336 249.96679683 187.750488 254.4375 217.3125 C254.61410156 218.43495117 254.79070312 219.55740234 254.97265625 220.71386719 C256.6295586 232.32697743 256.83623513 243.84429945 256.8125 255.5625 C256.81168427 257.08052216 256.81168427 257.08052216 256.81085205 258.62921143 C256.77011956 275.15780572 255.86674222 291.09163999 252.4375 307.3125 C252.21787598 308.35438477 251.99825195 309.39626953 251.77197266 310.46972656 C247.87649772 328.32881122 242.43865909 345.805368 234.48266602 362.29101562 C233.32453597 364.76749525 232.41417268 366.74250194 232.52734375 369.5078125 C233.695684 371.82443565 235.16980693 373.34656216 237 375.1875 C253.5053152 393.23094493 257.44981165 415.60822598 256.62402344 439.21826172 C255.4543659 458.62171673 244.67737443 478.06922125 230.75 491.34375 C210.09248088 508.93055682 187.1217125 514.30193704 160.4375 512.3125 C145.47709054 510.54123672 126.40009544 501.52904748 116.453125 490.015625 C115.78796875 489.45359375 115.1228125 488.8915625 114.4375 488.3125 C110.80319852 488.73182768 107.67455183 489.92738343 104.32421875 491.3515625 C83.28437809 500.12902456 62.0452804 506.99280908 39.4375 510.3125 C38.23504639 510.48910156 37.03259277 510.66570312 35.79370117 510.84765625 C24.07724155 512.4516435 12.43847836 512.71213344 0.625 512.6875 C-0.36084076 512.68695618 -1.34668152 512.68641235 -2.36239624 512.68585205 C-67.40356613 512.52149544 -129.66192922 487.48444974 -176.5625 442.3125 C-177.22185547 441.68037598 -177.88121094 441.04825195 -178.56054688 440.39697266 C-188.04880305 431.25252521 -196.7887044 421.95515991 -204.5625 411.3125 C-205.42056152 410.16144983 -206.27863451 409.01040823 -207.13671875 407.859375 C-213.17427396 399.66974019 -218.55707302 391.16711724 -223.5625 382.3125 C-223.9646875 381.60528809 -224.366875 380.89807617 -224.78125 380.16943359 C-237.8066741 357.03404164 -246.55551461 331.86287591 -251.875 305.875 C-252.02235596 305.15610596 -252.16971191 304.43721191 -252.3215332 303.6965332 C-255.29539088 288.05024391 -255.93550362 272.57681954 -255.875 256.6875 C-255.87284485 255.66959381 -255.8706897 254.65168762 -255.86846924 253.60293579 C-255.81879854 238.99386477 -255.56790191 224.66174147 -252.5625 210.3125 C-252.36382324 209.33764648 -252.16514648 208.36279297 -251.96044922 207.35839844 C-239.50036762 147.79267502 -207.6101363 91.43883581 -158.5625 54.3125 C-158.02367187 53.89726074 -157.48484375 53.48202148 -156.9296875 53.05419922 C-122.38784105 26.49918666 -81.75234401 8.65592882 -38.5625 2.3125 C-36.75446899 2.04651001 -36.75446899 2.04651001 -34.90991211 1.77514648 C-23.27388483 0.17985199 -11.73175476 -0.04703114 0 0 Z " fill="#E5E8EC" transform="translate(255.5625,-0.31250000000000006)"/>
<path d="M0 0 C2.02166096 0.00373777 4.04332375 0.00658112 6.06498718 0.00857544 C11.3437108 0.01615181 16.62232148 0.03574768 21.90100098 0.0579834 C28.25719622 0.0822025 34.61342956 0.0912514 40.9696579 0.10289001 C50.587923 0.12217642 60.2059411 0.16054066 69.82421875 0.1953125 C69.82421875 14.0553125 69.82421875 27.9153125 69.82421875 42.1953125 C73.12421875 42.1953125 76.42421875 42.1953125 79.82421875 42.1953125 C92.6912046 45.01411095 103.98476459 53.08637615 111.61328125 63.6796875 C118.15021567 74.04861796 119.97539375 84.08914828 119.96948242 96.18530273 C119.97284103 97.17645584 119.97619965 98.16760895 119.97966003 99.188797 C119.98914501 102.46051291 119.99111238 105.73217744 119.9921875 109.00390625 C119.99540342 111.2911023 119.99876775 113.57829815 120.00227356 115.86549377 C120.00825988 120.66285681 120.01011413 125.46020185 120.00952148 130.25756836 C120.00942027 136.36991594 120.02303273 142.4821463 120.04029369 148.59446621 C120.05148173 153.32260149 120.05343856 158.05070912 120.05291176 162.77885628 C120.05408317 165.03003401 120.05845721 167.28121267 120.06624413 169.53237724 C120.11501114 185.09624682 119.87241876 200.13818288 115.19921875 215.1328125 C114.94124512 215.97199219 114.68327148 216.81117188 114.41748047 217.67578125 C105.19504016 246.40409087 84.52874545 270.9724475 57.94677734 285.20019531 C29.31232397 299.90537266 -2.64794594 302.36014119 -33.23828125 292.5703125 C-63.37391284 282.24061847 -87.21330399 260.32876408 -101.42578125 231.984375 C-106.37741532 221.59344593 -109.08700138 210.4719011 -111.17578125 199.1953125 C-111.34905441 198.34567429 -111.52232758 197.49603607 -111.70085144 196.62065125 C-112.32006527 192.15469213 -112.33963568 187.77234333 -112.3527832 183.26879883 C-112.3593544 182.28407089 -112.3659256 181.29934296 -112.37269592 180.28477478 C-112.39236823 177.03229685 -112.40408355 173.77986518 -112.4140625 170.52734375 C-112.41813803 169.40917456 -112.42221355 168.29100536 -112.42641258 167.13895226 C-112.44725637 161.21023114 -112.46156045 155.281533 -112.47094727 149.3527832 C-112.48195469 143.27658275 -112.51629379 137.20075426 -112.55611897 131.12468433 C-112.5824808 126.41354267 -112.59065675 121.7024866 -112.59422874 116.99127769 C-112.5990513 114.75454916 -112.61053875 112.51782331 -112.62926674 110.28116798 C-112.86951033 79.66452503 -105.70968201 52.61558522 -84.12573242 30.00292969 C-60.67972441 6.36230649 -32.15437466 -0.1760974 0 0 Z " fill="#E9C5BA" transform="translate(252.17578125,81.8046875)"/>
<path d="M0 0 C1.57587891 0.5259375 1.57587891 0.5259375 3.18359375 1.0625 C23.90714972 8.82372772 39.24759722 24.93089523 48.8125 44.4375 C49.57616714 46.27772568 50.30435059 48.13299974 51 50 C51.391875 51.02351563 51.78375 52.04703125 52.1875 53.1015625 C58.76097674 73.32413331 56.48093479 96.38374787 47.25 115.3125 C36.31388046 136.49484369 19.7935038 150.19106691 -2.4609375 158.25390625 C-24.72013438 164.95033131 -47.98586275 162.01794792 -68.25 151.15625 C-74.28962184 147.77356974 -80.4310636 143.97349331 -84.984375 138.703125 C-85.64953125 138.14109375 -86.3146875 137.5790625 -87 137 C-90.63430148 137.41932768 -93.76294817 138.61488343 -97.11328125 140.0390625 C-118.15312191 148.81652456 -139.3922196 155.68030908 -162 159 C-163.80368042 159.26490234 -163.80368042 159.26490234 -165.64379883 159.53515625 C-177.36025845 161.1391435 -188.99902164 161.39963344 -200.8125 161.375 C-201.79834076 161.37445618 -202.78418152 161.37391235 -203.79989624 161.37335205 C-250.05951413 161.25645572 -293.8262545 148.76397496 -333.69628906 125.34667969 C-335.19883947 124.4683342 -336.71097211 123.60612083 -338.23339844 122.76269531 C-342.71008484 120.26107788 -346.57024082 117.85018128 -350 114 C-351.3786345 109.09299584 -350.84077882 104.97415597 -350 100 C-349.89300781 98.89011719 -349.78601563 97.78023438 -349.67578125 96.63671875 C-347.88651331 80.57178613 -339.89878621 67.41173177 -327.68359375 57 C-311.22729846 44.73562855 -293.17045353 44.43534659 -273.5625 44.75 C-271.36655287 44.77010911 -269.17058782 44.78835202 -266.97460938 44.8046875 C-261.64934186 44.84830169 -256.3247572 44.91485872 -251 45 C-249.38420228 49.54109333 -248.25778111 54.09339188 -247.30078125 58.80859375 C-247.06731491 59.93430031 -247.06731491 59.93430031 -246.82913208 61.08274841 C-246.49493994 62.69442098 -246.1621991 64.30639504 -245.83078003 65.91864014 C-244.94577502 70.21979681 -244.04778497 74.51822875 -243.1484375 78.81640625 C-242.96701706 79.68366333 -242.78559662 80.55092041 -242.59867859 81.44445801 C-240.95477229 89.27260954 -239.21570878 97.07628436 -237.4375 104.875 C-236.87238155 107.36067384 -236.30727742 109.84635093 -235.7421875 112.33203125 C-235.32018066 114.18755615 -235.32018066 114.18755615 -234.88964844 116.08056641 C-233.42573791 122.5257425 -231.97079206 128.97280338 -230.53860474 135.42510986 C-230.2249279 136.83330794 -229.90896363 138.24099873 -229.59054565 139.64813232 C-229.14944367 141.59871603 -228.71712362 143.55127932 -228.28515625 145.50390625 C-228.03644775 146.61580322 -227.78773926 147.7277002 -227.53149414 148.87329102 C-227.00328265 151.98068863 -226.90261173 154.85486224 -227 158 C-226.34 158 -225.68 158 -225 158 C-225.03988037 156.92057129 -225.07976074 155.84114258 -225.12084961 154.72900391 C-225.11527153 149.15107984 -224.07360881 143.80655561 -223.06640625 138.3359375 C-222.77031715 136.67143051 -222.77031715 136.67143051 -222.46824646 134.97329712 C-221.62936479 130.25815436 -220.77471032 125.54591019 -219.9206543 120.83349609 C-218.5484342 113.23261301 -217.21673066 105.62747464 -216 98 C-215.81472244 96.84248734 -215.81472244 96.84248734 -215.6257019 95.66159058 C-214.28996116 86.73999804 -215.36983862 81.0587199 -219.9375 73.3125 C-220.88851899 71.60270281 -221.83534534 69.89056478 -222.77734375 68.17578125 C-223.20265381 67.44270752 -223.62796387 66.70963379 -224.06616211 65.9543457 C-225 64 -225 64 -225 61 C-221.69797379 59.78189513 -218.38222493 58.60641723 -215.0625 57.4375 C-214.13630859 57.09525391 -213.21011719 56.75300781 -212.25585938 56.40039062 C-202.26952796 52.93145445 -195.17409853 54.60861196 -185.4375 58.0625 C-184.61958984 58.34416016 -183.80167969 58.62582031 -182.95898438 58.91601562 C-180.96976517 59.60235441 -178.9844476 60.2999845 -177 61 C-177.65761865 66.96639462 -180.99750104 71.97935317 -183.84960938 77.14257812 C-184.25115234 77.90634766 -184.65269531 78.67011719 -185.06640625 79.45703125 C-185.43709229 80.13741455 -185.80777832 80.81779785 -186.18969727 81.51879883 C-188.81887328 89.56951164 -186.02518005 98.70342554 -184.59375 106.78125 C-184.34654133 108.20461027 -184.09992816 109.62807408 -183.85388184 111.05163574 C-183.20878503 114.77457107 -182.55567496 118.49605601 -181.90081787 122.21728516 C-181.23236609 126.02421322 -180.57159658 129.83247364 -179.91015625 133.640625 C-178.61423513 141.09506603 -177.30983542 148.54798985 -176 156 C-175.81660316 155.14819153 -175.81660316 155.14819153 -175.62950134 154.2791748 C-163.86114531 99.62422995 -163.86114531 99.62422995 -158.78955078 76.59326172 C-158.09300009 73.42324531 -157.40052811 70.2523844 -156.70985413 67.08108521 C-156.01783366 63.90758116 -155.32100659 60.7351318 -154.625 57.5625 C-154.37387451 56.40492188 -154.12274902 55.24734375 -153.86401367 54.0546875 C-153.63302979 53.00667969 -153.4020459 51.95867187 -153.1640625 50.87890625 C-152.96248535 49.9566626 -152.7609082 49.03441895 -152.55322266 48.08422852 C-152 46 -152 46 -151 45 C-149.49581261 44.90688111 -147.98728644 44.88253972 -146.48022461 44.88647461 C-145.03884377 44.88658791 -145.03884377 44.88658791 -143.56834412 44.88670349 C-142.00117393 44.89444542 -142.00117393 44.89444542 -140.40234375 44.90234375 C-139.33834854 44.9037587 -138.27435333 44.90517365 -137.17811584 44.90663147 C-133.76454917 44.91224936 -130.351047 44.92480489 -126.9375 44.9375 C-124.62955824 44.94251269 -122.32161545 44.947076 -120.01367188 44.95117188 C-114.34242574 44.9622246 -108.67121747 44.97898013 -103 45 C-102.56433716 43.61240479 -102.56433716 43.61240479 -102.11987305 42.19677734 C-95.91692428 24.48990768 -78.52482063 10.54870193 -62.13696289 2.63476562 C-42.62290974 -6.25268573 -20.26059944 -6.94388075 0 0 Z " fill="#A0D368" transform="translate(457,351)"/>
<path d="M0 0 C2.02166096 0.00373777 4.04332375 0.00658112 6.06498718 0.00857544 C11.3437108 0.01615181 16.62232148 0.03574768 21.90100098 0.0579834 C28.25719622 0.0822025 34.61342956 0.0912514 40.9696579 0.10289001 C50.587923 0.12217642 60.2059411 0.16054066 69.82421875 0.1953125 C69.82421875 14.0553125 69.82421875 27.9153125 69.82421875 42.1953125 C73.12421875 42.1953125 76.42421875 42.1953125 79.82421875 42.1953125 C92.6912046 45.01411095 103.98476459 53.08637615 111.61328125 63.6796875 C117.153903 72.46825993 119.96175588 81.50419731 119.93774414 91.92529297 C119.93766861 93.02598114 119.93759308 94.12666931 119.93751526 95.26071167 C119.93235397 96.43280182 119.92719269 97.60489197 119.921875 98.8125 C119.91975258 100.63093918 119.91975258 100.63093918 119.91758728 102.4861145 C119.9120022 106.34753923 119.89945236 110.20890538 119.88671875 114.0703125 C119.88170183 116.69270749 119.87713925 119.3151034 119.87304688 121.9375 C119.86203764 128.35679072 119.8453143 134.77604743 119.82421875 141.1953125 C115.15547338 137.29554529 110.73294066 133.24316606 106.453125 128.921875 C105.88593246 128.35326752 105.31873993 127.78466003 104.73435974 127.19882202 C102.94941962 125.40835014 101.16801619 123.61440766 99.38671875 121.8203125 C98.16624936 120.59481927 96.94554822 119.36955678 95.72460938 118.14453125 C92.75513119 115.16411476 89.78881618 112.18058356 86.82421875 109.1953125 C86.23866211 109.37126953 85.65310547 109.54722656 85.04980469 109.72851562 C82.30822964 110.55174043 79.56624988 111.37360812 76.82421875 112.1953125 C75.88384766 112.47761719 74.94347656 112.75992188 73.97460938 113.05078125 C51.32288394 119.82942894 29.72395745 124.57394387 5.99829102 124.51098633 C3.52380132 124.50782792 1.05051517 124.53139973 -1.42382812 124.55664062 C-12.92823639 124.60234078 -23.88314482 123.3446229 -35.17578125 121.1953125 C-36.24207764 120.99655518 -37.30837402 120.79779785 -38.40698242 120.59301758 C-40.98717706 120.08490566 -43.54992838 119.53205812 -46.11328125 118.9453125 C-47.01224121 118.74349365 -47.91120117 118.5416748 -48.83740234 118.33374023 C-56.38545905 116.55714523 -63.62523167 114.11053341 -70.83178711 111.25488281 C-71.6078833 110.95807617 -72.38397949 110.66126953 -73.18359375 110.35546875 C-73.8605127 110.08355713 -74.53743164 109.81164551 -75.23486328 109.53149414 C-77.85845127 109.0770689 -78.89646818 109.87316787 -81.17578125 111.1953125 C-82.77799706 112.5257164 -82.77799706 112.5257164 -84.26025391 114.08447266 C-85.12102036 114.95514877 -85.12102036 114.95514877 -85.99917603 115.84341431 C-86.60659637 116.46743134 -87.21401672 117.09144836 -87.83984375 117.734375 C-88.47312592 118.37523041 -89.10640808 119.01608582 -89.75888062 119.67636108 C-91.77772386 121.71960687 -93.78998617 123.76914773 -95.80078125 125.8203125 C-98.45397061 128.52648995 -101.1135554 131.22613461 -103.77734375 133.921875 C-104.38881256 134.54994049 -105.00028137 135.17800598 -105.63027954 135.82510376 C-107.1078935 137.31991787 -108.63732428 138.76319435 -110.17578125 140.1953125 C-110.83578125 140.1953125 -111.49578125 140.1953125 -112.17578125 140.1953125 C-112.2787129 133.28016141 -112.3478754 126.36521353 -112.39550781 119.44946289 C-112.41540201 117.10563782 -112.4425272 114.76186088 -112.47753906 112.41821289 C-112.93610152 80.89204361 -106.42710379 53.36719982 -84.12573242 30.00292969 C-60.67972441 6.36230649 -32.15437466 -0.1760974 0 0 Z " fill="#965353" transform="translate(252.17578125,81.8046875)"/>
<path d="M0 0 C2.19594713 0.02010911 4.39191218 0.03835202 6.58789062 0.0546875 C11.91315814 0.09830169 17.2377428 0.16485872 22.5625 0.25 C24.17829772 4.79109333 25.30471889 9.34339188 26.26171875 14.05859375 C26.49518509 15.18430031 26.49518509 15.18430031 26.73336792 16.33274841 C27.06756006 17.94442098 27.4003009 19.55639504 27.73171997 21.16864014 C28.61672498 25.46979681 29.51471503 29.76822875 30.4140625 34.06640625 C30.59548294 34.93366333 30.77690338 35.80092041 30.96382141 36.69445801 C32.60772771 44.52260954 34.34679122 52.32628436 36.125 60.125 C36.69011845 62.61067384 37.25522258 65.09635093 37.8203125 67.58203125 C38.24231934 69.43755615 38.24231934 69.43755615 38.67285156 71.33056641 C40.13676209 77.7757425 41.59170794 84.22280338 43.02389526 90.67510986 C43.3375721 92.08330794 43.65353637 93.49099873 43.97195435 94.89813232 C44.41305633 96.84871603 44.84537638 98.80127932 45.27734375 100.75390625 C45.52605225 101.86580322 45.77476074 102.9777002 46.03100586 104.12329102 C46.55921735 107.23068863 46.65988827 110.10486224 46.5625 113.25 C47.2225 113.25 47.8825 113.25 48.5625 113.25 C48.52261963 112.17057129 48.48273926 111.09114258 48.44165039 109.97900391 C48.44722847 104.40107984 49.48889119 99.05655561 50.49609375 93.5859375 C50.79218285 91.92143051 50.79218285 91.92143051 51.09425354 90.22329712 C51.93313521 85.50815436 52.78778968 80.79591019 53.6418457 76.08349609 C55.0140658 68.48261301 56.34576934 60.87747464 57.5625 53.25 C57.74777756 52.09248734 57.74777756 52.09248734 57.9367981 50.91159058 C59.27253884 41.98999804 58.19266138 36.3087199 53.625 28.5625 C52.67398101 26.85270281 51.72715466 25.14056478 50.78515625 23.42578125 C50.35984619 22.69270752 49.93453613 21.95963379 49.49633789 21.2043457 C48.5625 19.25 48.5625 19.25 48.5625 16.25 C51.86452621 15.03189513 55.18027507 13.85641723 58.5 12.6875 C59.42619141 12.34525391 60.35238281 12.00300781 61.30664062 11.65039062 C71.29297204 8.18145445 78.38840147 9.85861196 88.125 13.3125 C88.94291016 13.59416016 89.76082031 13.87582031 90.60351562 14.16601562 C92.59273483 14.85235441 94.5780524 15.5499845 96.5625 16.25 C95.90488135 22.21639462 92.56499896 27.22935317 89.71289062 32.39257812 C89.31134766 33.15634766 88.90980469 33.92011719 88.49609375 34.70703125 C88.12540771 35.38741455 87.75472168 36.06779785 87.37280273 36.76879883 C84.74362672 44.81951164 87.53731995 53.95342554 88.96875 62.03125 C89.21595867 63.45461027 89.46257184 64.87807408 89.70861816 66.30163574 C90.35371497 70.02457107 91.00682504 73.74605601 91.66168213 77.46728516 C92.33013391 81.27421322 92.99090342 85.08247364 93.65234375 88.890625 C94.94826487 96.34506603 96.25266458 103.79798985 97.5625 111.25 C97.74589684 110.39819153 97.74589684 110.39819153 97.93299866 109.5291748 C109.70135469 54.87422995 109.70135469 54.87422995 114.77294922 31.84326172 C115.46949991 28.67324531 116.16197189 25.5023844 116.85264587 22.33108521 C117.54466634 19.15758116 118.24149341 15.9851318 118.9375 12.8125 C119.18862549 11.65492188 119.43975098 10.49734375 119.69848633 9.3046875 C119.92947021 8.25667969 120.1604541 7.20867187 120.3984375 6.12890625 C120.60001465 5.2066626 120.8015918 4.28441895 121.00927734 3.33422852 C121.5625 1.25 121.5625 1.25 122.5625 0.25 C124.06668739 0.15688111 125.57521356 0.13253972 127.08227539 0.13647461 C128.52365623 0.13658791 128.52365623 0.13658791 129.99415588 0.13670349 C131.56132607 0.14444542 131.56132607 0.14444542 133.16015625 0.15234375 C134.22415146 0.1537587 135.28814667 0.15517365 136.38438416 0.15663147 C139.79795083 0.16224936 143.211453 0.17480489 146.625 0.1875 C148.93294176 0.19251269 151.24088455 0.197076 153.54882812 0.20117188 C159.22007426 0.2122246 164.89128253 0.22898013 170.5625 0.25 C170.21098877 1.42425537 169.85947754 2.59851074 169.49731445 3.80834961 C169.03583989 5.36047563 168.5745027 6.9126425 168.11328125 8.46484375 C167.88161255 9.2374353 167.64994385 10.01002686 167.41125488 10.80603027 C165.87580874 15.98660061 164.69432087 20.82776835 164.5625 26.25 C164.51222656 27.42691406 164.46195313 28.60382813 164.41015625 29.81640625 C163.73581681 51.98803448 170.75037661 72.6315201 185.5625 89.25 C185.5625 89.91 185.5625 90.57 185.5625 91.25 C149.57674364 108.0068052 112.41544083 116.70771031 72.75 116.625 C71.76415924 116.62445618 70.77831848 116.62391235 69.76260376 116.62335205 C23.50298587 116.50645572 -20.2637545 104.01397496 -60.13378906 80.59667969 C-61.63633947 79.7183342 -63.14847211 78.85612083 -64.67089844 78.01269531 C-69.14758484 75.51107788 -73.00774082 73.10018128 -76.4375 69.25 C-77.8161345 64.34299584 -77.27827882 60.22415597 -76.4375 55.25 C-76.27701172 53.58517578 -76.27701172 53.58517578 -76.11328125 51.88671875 C-74.32401331 35.82178613 -66.33628621 22.66173177 -54.12109375 12.25 C-37.66479846 -0.01437145 -19.60795353 -0.31465341 0 0 Z " fill="#545C66" transform="translate(183.4375,395.75)"/>
<path d="M0 0 C0.55469971 0.1868335 1.10939941 0.37366699 1.6809082 0.56616211 C32.62064666 10.94051733 62.32575242 14.19958406 93.34765625 1.953125 C96 1 96 1 99 1 C100.86681574 25.88896186 96.10582045 48.23470949 90.33837891 72.33349609 C88.49664554 80.06561645 86.83759498 87.8355519 85.18414307 95.60968018 C84.53773004 98.639488 83.88046316 101.66689217 83.2230835 104.69433594 C81.9455318 110.57901794 80.6891894 116.46723884 79.46484375 122.36328125 C79.23514893 123.45713135 79.0054541 124.55098145 78.76879883 125.67797852 C78.35396266 127.6574565 77.94573126 129.63833591 77.5456543 131.62084961 C77.09429176 133.76169715 76.55702133 135.88418253 76 138 C75.34 138.33 74.68 138.66 74 139 C72.55792641 130.66455332 71.12309763 122.32790496 69.69733429 113.98965454 C69.0349715 110.11732494 68.37018264 106.24544556 67.69970703 102.37451172 C67.05196348 98.63427531 66.41077897 94.8929669 65.77400208 91.15084839 C65.53072719 89.72802187 65.28514757 88.3055873 65.03715515 86.88357544 C61.68383995 67.63232009 61.68383995 67.63232009 65.40625 60.1875 C66.15068359 58.66962891 66.15068359 58.66962891 66.91015625 57.12109375 C67.43480469 56.09113281 67.95945312 55.06117188 68.5 54 C69.02464844 52.93910156 69.54929687 51.87820313 70.08984375 50.78515625 C71.3793222 48.18275429 72.6828363 45.58846871 74 43 C73.12988281 42.82150513 73.12988281 42.82150513 72.2421875 42.6394043 C67.66371733 41.66714047 63.37801418 40.49681934 59 38.8125 C49.74984108 35.71747827 43.09499623 38.07462356 34.1394043 41.27124023 C31.27625724 42.29100651 29.06681299 43 26 43 C26.33845947 43.62342285 26.67691895 44.2468457 27.02563477 44.88916016 C28.57234534 47.78414146 30.06701524 50.70324902 31.5625 53.625 C32.09552734 54.6046875 32.62855469 55.584375 33.17773438 56.59375 C37.32587316 64.8365032 37.46889692 71.04520332 36 80 C35.85466827 80.91883972 35.70933655 81.83767944 35.55960083 82.78436279 C34.29873819 90.66457797 32.90685796 98.51977229 31.5 106.375 C30.87305482 109.90741858 30.24814023 113.44018385 29.62512207 116.97329712 C29.23937113 119.15750772 28.85108764 121.34127312 28.45983887 123.52450562 C27.48553823 129.00669407 26.63096948 134.46745482 26 140 C25.34 140 24.68 140 24 140 C23.8548999 139.28908203 23.7097998 138.57816406 23.56030273 137.84570312 C20.72931859 124.00288544 17.84259926 110.17577408 14.8125 96.375 C14.53583496 95.09786133 14.25916992 93.82072266 13.97412109 92.50488281 C12.33385965 84.9485532 10.63454787 77.40932582 8.87109375 69.88069153 C-2.21766611 22.37206387 -2.21766611 22.37206387 0 0 Z " fill="#F4F6F9" transform="translate(206,369)"/>
<path d="M0 0 C0.85049423 0.00222061 1.70098846 0.00444122 2.57725525 0.00672913 C4.01863609 0.00684242 4.01863609 0.00684242 5.48913574 0.00695801 C7.05630592 0.01469994 7.05630592 0.01469994 8.65513611 0.02259827 C9.71913132 0.02401321 10.78312653 0.02542816 11.87936401 0.02688599 C15.29293069 0.03250388 18.70643286 0.04505941 22.11997986 0.05775452 C24.42792162 0.06276721 26.73586441 0.06733052 29.04380798 0.07142639 C34.71505412 0.08247912 40.38626238 0.09923465 46.05747986 0.12025452 C45.70596863 1.29450989 45.3544574 2.46876526 44.99229431 3.67860413 C44.53081975 5.23073015 44.06948255 6.78289701 43.60826111 8.33509827 C43.37659241 9.10768982 43.14492371 9.88028137 42.90623474 10.67628479 C41.37078859 15.85685513 40.18930073 20.69802286 40.05747986 26.12025452 C40.00720642 27.29716858 39.95693298 28.47408264 39.90513611 29.68666077 C39.23079667 51.85828899 46.24535647 72.50177462 61.05747986 89.12025452 C61.05747986 89.78025452 61.05747986 90.44025452 61.05747986 91.12025452 C33.28736145 104.05143929 3.00780156 114.56667153 -27.94252014 115.12025452 C-27.65658997 113.8377179 -27.37065979 112.55518127 -27.07606506 111.23377991 C-25.97097564 106.26036221 -24.88605554 101.28271063 -23.80580139 96.30384827 C-23.39272107 94.4019102 -22.9796349 92.4999734 -22.56654358 90.59803772 C-22.35251892 89.61227753 -22.13849426 88.62651733 -21.91798401 87.61088562 C-17.87717222 69.00183503 -13.83399889 50.3933127 -9.7481842 31.79408264 C-9.04542814 28.589515 -8.34596249 25.38425928 -7.64784241 22.17868042 C-6.95737652 19.01271966 -6.26205116 15.84782557 -5.56752014 12.68275452 C-5.31647522 11.52557922 -5.0654303 10.36840393 -4.80677795 9.17616272 C-4.5757135 8.12775208 -4.34464905 7.07934143 -4.10658264 5.99916077 C-3.80421692 4.61579529 -3.80421692 4.61579529 -3.4957428 3.20448303 C-2.68935938 0.16648868 -2.68935938 0.16648868 0 0 Z " fill="#545C66" transform="translate(307.94252014160156,395.87974548339844)"/>
<path d="M0 0 C13.42934963 6.41274407 28.36877301 19.67727031 35 33 C39.66731716 48.45077186 36.95889768 66.25813473 35 82 C34.8327491 83.48366661 34.66663221 84.96746175 34.50195312 86.45141602 C33.66153784 93.46615848 32.47772922 100.19059299 30.375 106.9375 C30.11702637 107.77667969 29.85905273 108.61585938 29.59326172 109.48046875 C20.37082141 138.20877837 -0.2954733 162.777135 -26.87744141 177.00488281 C-47.41281251 187.55078952 -72.93886891 194.09914896 -96 189 C-93.33747801 187.22498534 -92.02472185 186.6156131 -89.04296875 185.921875 C-88.26719482 185.73399414 -87.4914209 185.54611328 -86.69213867 185.35253906 C-85.86560791 185.15370117 -85.03907715 184.95486328 -84.1875 184.75 C-65.1679644 179.91382452 -49.66525922 170.95782074 -35 158 C-34.30519531 157.38898438 -33.61039062 156.77796875 -32.89453125 156.1484375 C-19.75248268 143.81956958 -10.36348135 126.7205046 -4.5625 109.8125 C-4.32756836 109.13735352 -4.09263672 108.46220703 -3.85058594 107.76660156 C0.44597283 94.34224239 0.27542409 80.52354963 0.1953125 66.6015625 C0.1915734 64.67101184 0.18873068 62.74045926 0.18673706 60.80990601 C0.17917118 55.77614931 0.15958486 50.74251158 0.1373291 45.70880127 C0.11671722 40.55327971 0.10770283 35.39773856 0.09765625 30.2421875 C0.07633098 20.16140662 0.04228222 10.08071328 0 0 Z " fill="#D3B1A9" transform="translate(337,190)"/>
<path d="M0 0 C10.89 0 21.78 0 33 0 C33 13.86 33 27.72 33 42 C36.3 42 39.6 42 43 42 C55.86698585 44.81879845 67.16054584 52.89106365 74.7890625 63.484375 C80.32968425 72.27294743 83.13753713 81.30888481 83.11352539 91.72998047 C83.11341209 93.38101273 83.11341209 93.38101273 83.11329651 95.06539917 C83.10813522 96.23748932 83.10297394 97.40957947 83.09765625 98.6171875 C83.0962413 99.82948029 83.09482635 101.04177307 83.09336853 102.290802 C83.08778345 106.15222673 83.07523361 110.01359288 83.0625 113.875 C83.05748308 116.49739499 83.0529205 119.1197909 83.04882812 121.7421875 C83.03781889 128.16147822 83.02109555 134.58073493 83 141 C49.05866455 111.99956746 49.05866455 111.99956746 47.1171875 101.5078125 C46.7962649 96.92743915 47.24439317 92.56318455 47.89624023 88.03125 C48.05319894 84.95855257 46.94161204 83.29823467 45 81 C40.36751231 76.93244983 37.6946221 75.93554068 31.625 75.3125 C21.44334711 73.88184724 12.85147184 70.31358481 6.3984375 62.08203125 C2.09939455 55.68150083 -0.13450554 49.9015549 -0.11352539 42.11791992 C-0.11344986 41.17732224 -0.11337433 40.23672455 -0.11329651 39.2676239 C-0.10813522 38.2653627 -0.10297394 37.2631015 -0.09765625 36.23046875 C-0.0962413 35.19432938 -0.09482635 34.15819 -0.09336853 33.09065247 C-0.08778242 29.78957196 -0.07523242 26.48855992 -0.0625 23.1875 C-0.05748321 20.94596452 -0.05292061 18.70442798 -0.04882812 16.46289062 C-0.03866952 10.97521299 -0.01909128 5.4876829 0 0 Z " fill="#844747" transform="translate(289,82)"/>
<path d="M0 0 C26.95123422 -0.9941029 48.62589639 6.09185521 68.74633789 24.56103516 C77.02863364 32.60938339 82.99385182 43.24820526 87 54 C87.5878125 55.53527344 87.5878125 55.53527344 88.1875 57.1015625 C94.76097674 77.32413331 92.48093479 100.38374787 83.25 119.3125 C72.31388046 140.49484369 55.7935038 154.19106691 33.5390625 162.25390625 C20.91616171 166.05136173 8.06435599 165.38882012 -5 165 C-2.5811402 162.5811402 -1.69820287 162.69903568 1.625 162.3125 C19.51247885 159.26881904 37.43903964 147.78878958 48.21923828 133.36914062 C61.76670178 114.20892458 67.77734984 92.30566468 64.50390625 68.9140625 C63.01902717 60.77658958 60.5871893 53.44161907 57 46 C56.58105469 45.08734375 56.16210938 44.1746875 55.73046875 43.234375 C51.78467782 35.27456621 46.20067395 29.22691093 40 23 C39.30261719 22.2678125 38.60523438 21.535625 37.88671875 20.78125 C27.9315401 11.03870624 12.81859873 3.77161522 -1 2 C-0.67 1.34 -0.34 0.68 0 0 Z " fill="#8CC152" transform="translate(421,347)"/>
<path d="M0 0 C0.81791016 0.28166016 1.63582031 0.56332031 2.47851562 0.85351562 C4.46773483 1.53985441 6.4530524 2.2374845 8.4375 2.9375 C7.77988135 8.90389462 4.43999896 13.91685317 1.58789062 19.08007812 C1.18634766 19.84384766 0.78480469 20.60761719 0.37109375 21.39453125 C0.00040771 22.07491455 -0.37027832 22.75529785 -0.75219727 23.45629883 C-3.24587411 31.09210413 -0.74686347 39.65063331 0.625 47.30859375 C0.96419761 49.25994192 1.30338654 51.21129164 1.64207458 53.16272831 C2.35450398 57.25502698 3.07859231 61.34527781 3.80187988 65.43566895 C4.39826426 68.81010195 4.99172488 72.18498353 5.57739258 75.56129456 C6.01568024 78.08458065 6.46050928 80.60674198 6.9128418 83.12754822 C8.01837908 89.50387907 8.67950293 95.46608238 8.4375 101.9375 C6.09705621 103.10772189 4.71844286 103.06426545 2.11132812 103.06689453 C1.21700073 103.07004669 0.32267334 103.07319885 -0.59875488 103.07644653 C-1.56647827 103.0744223 -2.53420166 103.07239807 -3.53125 103.0703125 C-4.52249878 103.07126923 -5.51374756 103.07222595 -6.53503418 103.07321167 C-8.63322005 103.07389293 -10.73140801 103.07204243 -12.82958984 103.06787109 C-16.0492016 103.06252209 -19.26867385 103.06781794 -22.48828125 103.07421875 C-24.52343781 103.07355796 -26.55859428 103.07227678 -28.59375 103.0703125 C-30.04533508 103.07334885 -30.04533508 103.07334885 -31.52624512 103.07644653 C-32.42057251 103.07329437 -33.3148999 103.07014221 -34.23632812 103.06689453 C-35.41974792 103.06570114 -35.41974792 103.06570114 -36.6270752 103.06448364 C-38.5625 102.9375 -38.5625 102.9375 -40.5625 101.9375 C-39.27675 91.25965239 -37.72445004 80.65023439 -35.83984375 70.0625 C-35.68525192 69.19290649 -35.5306601 68.32331299 -35.37138367 67.42736816 C-34.58886378 63.04241924 -33.79478584 58.65985 -32.98803711 54.27929688 C-32.11770117 49.50796822 -31.30740531 44.73001454 -30.5625 39.9375 C-30.45636383 39.26584808 -30.35022766 38.59419617 -30.24087524 37.90219116 C-28.90201496 28.86441762 -29.87541426 23.09275697 -34.5 15.25 C-35.45101899 13.54020281 -36.39784534 11.82806478 -37.33984375 10.11328125 C-37.76515381 9.38020752 -38.19046387 8.64713379 -38.62866211 7.8918457 C-39.5625 5.9375 -39.5625 5.9375 -39.5625 2.9375 C-36.26047379 1.71939513 -32.94472493 0.54391723 -29.625 -0.625 C-28.69880859 -0.96724609 -27.77261719 -1.30949219 -26.81835938 -1.66210938 C-16.83202796 -5.13104555 -9.73659853 -3.45388804 0 0 Z " fill="#DA4655" transform="translate(271.5625,409.0625)"/>
<path d="M0 0 C15.51 0 31.02 0 47 0 C48.54114585 4.62343755 49.73560191 9.0607896 50.69921875 13.80859375 C50.85486298 14.55906479 51.0105072 15.30953583 51.17086792 16.08274841 C51.50506006 17.69442098 51.8378009 19.30639504 52.16921997 20.91864014 C53.05422498 25.21979681 53.95221503 29.51822875 54.8515625 33.81640625 C55.03298294 34.68366333 55.21440338 35.55092041 55.40132141 36.44445801 C57.04522714 44.27260682 58.78418153 52.07631135 60.5625 59.875 C61.12765403 62.35936366 61.69275807 64.84373869 62.2578125 67.328125 C62.53915039 68.56498047 62.82048828 69.80183594 63.11035156 71.07617188 C64.5776938 77.54035388 66.0288572 84.00805694 67.46139526 90.4800415 C67.77546284 91.89498631 68.09144125 93.30950851 68.40945435 94.72357178 C68.84957613 96.68178672 69.28236612 98.64164515 69.71484375 100.6015625 C69.96355225 101.71869629 70.21226074 102.83583008 70.46850586 103.98681641 C70.95393388 106.73883872 71.10652741 109.21474528 71 112 C66.61290681 107.89778299 63.19113486 103.36532486 59.6875 98.5 C54.46529368 91.32401649 49.15094575 84.22987197 43.75 77.1875 C34.45434536 65.01637168 34.45434536 65.01637168 30.0625 59 C29.29035156 57.948125 28.51820313 56.89625 27.72265625 55.8125 C25.96935456 52.94996663 25.0361705 51.34835504 25 48 C26.60745373 44.54568454 28.55413184 41.41089067 30.53125 38.15625 C32.21464893 34.53873316 32.08358211 33.71513867 31 30 C30.12087742 28.18516921 29.16866903 26.40474449 28.1640625 24.65625 C27.59429687 23.65722656 27.02453125 22.65820312 26.4375 21.62890625 C25.839375 20.59636719 25.24125 19.56382812 24.625 18.5 C24.03460938 17.46746094 23.44421875 16.43492187 22.8359375 15.37109375 C21.23389435 12.57473465 19.62515245 9.78298862 18 7 C17.2721228 5.61905151 17.2721228 5.61905151 16.52954102 4.21020508 C15.09389941 1.58759435 15.09389941 1.58759435 11.42578125 1.29296875 C10.05553137 1.23339267 8.68399597 1.19902518 7.3125 1.1875 C6.61060547 1.16236328 5.90871094 1.13722656 5.18554688 1.11132812 C3.45763219 1.05255552 1.7287557 1.0233903 0 1 C0 0.67 0 0.34 0 0 Z " fill="#666E79" transform="translate(159,396)"/>
<path d="M0 0 C1.34888732 0.00015905 2.69778075 0.00584927 4.04663086 0.01586914 C5.10991859 0.01799156 5.10991859 0.01799156 6.19468689 0.02015686 C8.46699173 0.02577096 10.73919936 0.03832576 13.01147461 0.05102539 C14.54858257 0.05603858 16.08569206 0.0606018 17.62280273 0.06469727 C21.39823103 0.07574497 25.17358632 0.09301898 28.94897461 0.11352539 C27.47038731 4.24268101 25.42482702 7.66520552 23.04272461 11.34008789 C21.90064116 13.17323915 20.76665021 15.0112553 19.63256836 16.84936523 C18.84424468 18.10762609 18.04076904 19.35652132 17.22241211 20.59545898 C14.55658541 24.65117033 12.28709109 28.42345378 10.94897461 33.11352539 C12.05134127 37.53240247 14.19394155 40.54975192 16.94897461 44.11352539 C18.95219138 47.64628994 18.95219138 47.64628994 18.93334961 50.38305664 C17.46412731 54.45839946 14.89279329 57.4452484 12.19897461 60.80102539 C11.00020589 62.32928605 9.80365484 63.85928841 8.60913086 65.39086914 C7.9969873 66.17445801 7.38484375 66.95804687 6.75415039 67.76538086 C3.95893014 71.40135982 1.29755736 75.12885492 -1.36352539 78.86352539 C-6.97319766 86.71116804 -12.78404247 94.3932391 -18.67138672 102.03442383 C-21.95510483 106.30725336 -25.13869567 110.57829438 -28.05102539 115.11352539 C-29.34491877 111.23184526 -28.39890177 109.95383127 -27.05102539 106.11352539 C-26.26138267 102.95596858 -25.59269471 99.77317489 -24.91430664 96.59008789 C-24.71413437 95.66419357 -24.5139621 94.73829926 -24.307724 93.78434753 C-23.65663383 90.76971667 -23.01011834 87.75412371 -22.36352539 84.73852539 C-21.91239969 82.64689245 -21.46089955 80.55534024 -21.0090332 78.46386719 C-20.10654254 74.28567643 -19.20542663 70.10719328 -18.30541992 65.9284668 C-15.85127822 54.54181576 -13.35591238 43.16418425 -10.85668945 31.78735352 C-10.15393339 28.58278588 -9.45446774 25.37753015 -8.75634766 22.17195129 C-8.06588177 19.00599053 -7.3705564 15.84109644 -6.67602539 12.67602539 C-6.42498047 11.5188501 -6.17393555 10.3616748 -5.9152832 9.16943359 C-5.68421875 8.12102295 -5.4531543 7.0726123 -5.21508789 5.99243164 C-4.91272217 4.60906616 -4.91272217 4.60906616 -4.60424805 3.19775391 C-3.73442679 -0.07923819 -3.55251893 0.13218543 0 0 Z " fill="#666E78" transform="translate(309.051025390625,395.886474609375)"/>
<path d="M0 0 C6.20664094 3.19152854 11.90732726 6.90532903 17.5690918 10.96459961 C20.05017112 12.72809528 22.09026838 14.03008946 25 15 C27.28755597 18.35325619 28.96167037 22.04909535 30.75 25.6875 C31.26949219 26.66267578 31.78898437 27.63785156 32.32421875 28.64257812 C36.35473286 36.83724408 36.44160925 43.13709772 35 52 C34.85494019 52.91893036 34.70988037 53.83786072 34.5604248 54.78463745 C33.29933168 62.66474537 31.90684551 70.51984181 30.5 78.375 C29.87305482 81.90741858 29.24814023 85.44018385 28.62512207 88.97329712 C28.23937113 91.15750772 27.85108764 93.34127312 27.45983887 95.52450562 C26.48553823 101.00669407 25.63096948 106.46745482 25 112 C24.34 112 23.68 112 23 112 C22.8548999 111.28908203 22.7097998 110.57816406 22.56030273 109.84570312 C19.70807358 95.89900258 16.80314939 81.96680437 13.75 68.0625 C13.47075684 66.78914795 13.19151367 65.5157959 12.90380859 64.20385742 C11.51164104 57.86078919 10.11493655 51.51873462 8.71337891 45.17773438 C7.55498627 39.93547178 6.40205043 34.69202913 5.25183105 29.44796753 C4.7943835 27.36723733 4.3350098 25.28692961 3.87365723 23.20706177 C3.22477405 20.2810009 2.58240817 17.35357722 1.94140625 14.42578125 C1.74488968 13.54698303 1.54837311 12.66818481 1.34590149 11.76275635 C0.48014449 7.77897521 -0.26069643 4.10557533 0 0 Z " fill="#E5E7EB" transform="translate(207,397)"/>
<path d="M0 0 C0.93530642 3.00833259 1.00762615 5.02472882 0.32250977 8.08959961 C0.14775116 8.89220215 -0.02700745 9.69480469 -0.20706177 10.52172852 C-0.40556732 11.38983154 -0.60407288 12.25793457 -0.80859375 13.15234375 C-1.01032196 14.06757813 -1.21205017 14.9828125 -1.41989136 15.92578125 C-2.08425331 18.93156662 -2.76092307 21.93444282 -3.4375 24.9375 C-3.9002722 27.02200844 -4.36209649 29.10672754 -4.82299805 31.19165039 C-5.76021872 35.42805954 -6.70142022 39.66355362 -7.64550781 43.8984375 C-9.40460211 51.80365646 -11.1138064 59.71942671 -12.81686401 67.63687134 C-13.30831913 69.91809337 -13.80226311 72.19876153 -14.29711914 74.47924805 C-15.73373815 81.10250268 -17.15719947 87.72749858 -18.53515625 94.36328125 C-18.76485107 95.45713135 -18.9945459 96.55098145 -19.23120117 97.67797852 C-19.64603734 99.6574565 -20.05426874 101.63833591 -20.4543457 103.62084961 C-20.90570824 105.76169715 -21.44297867 107.88418253 -22 110 C-22.99 110.495 -22.99 110.495 -24 111 C-25.44207359 102.66455332 -26.87690237 94.32790496 -28.30266571 85.98965454 C-28.9650285 82.11732494 -29.62981736 78.24544556 -30.30029297 74.37451172 C-30.94803652 70.63427531 -31.58922103 66.8929669 -32.22599792 63.15084839 C-32.46927281 61.72802187 -32.71485243 60.3055873 -32.96284485 58.88357544 C-35.20247763 46.02592862 -35.78357424 38.21934293 -30.0625 26.3125 C-29.61326172 25.29349609 -29.16402344 24.27449219 -28.70117188 23.22460938 C-25.29549733 16.04215921 -22.1079921 13.2464133 -15 10 C-13.59522018 9.13679871 -12.20759463 8.24496863 -10.83984375 7.32421875 C-10.19208984 6.88916016 -9.54433594 6.45410156 -8.87695312 6.00585938 C-7.91692383 5.35327148 -7.91692383 5.35327148 -6.9375 4.6875 C-6.26267578 4.23310547 -5.58785156 3.77871094 -4.89257812 3.31054688 C-3.25953309 2.2102683 -1.62943797 1.10561338 0 0 Z " fill="#E5E7EB" transform="translate(304,397)"/>
<path d="M0 0 C3.57714844 0.69873047 3.57714844 0.69873047 6.63964844 2.76123047 C8.57714844 5.69873047 8.57714844 5.69873047 8.5014801 9.02857971 C7.39743134 13.41231506 5.88740192 15.15924686 2.7253418 18.35864258 C2.22110687 18.876604 1.71687195 19.39456543 1.19735718 19.92822266 C-0.46441488 21.62643025 -2.14724501 23.30170332 -3.83300781 24.97607422 C-5.00142064 26.1536148 -6.16908848 27.33189502 -7.33604431 28.51087952 C-9.78170205 30.97437879 -12.23835601 33.42623076 -14.70288086 35.87084961 C-17.85534262 39.00031704 -20.9749514 42.16039138 -24.08658695 45.33038998 C-26.48925554 47.76980001 -28.91032855 50.19026793 -31.33712578 52.60565376 C-32.49508094 53.76330279 -33.64686864 54.92715605 -34.79219246 56.09730339 C-36.39803451 57.73300657 -38.02744108 59.34100404 -39.6652832 60.94458008 C-40.58604141 61.86500595 -41.50679962 62.78543182 -42.45545959 63.73374939 C-46.51156286 66.4196656 -48.62642063 66.22580762 -53.42285156 65.69873047 C-56.11035156 63.75732422 -56.11035156 63.75732422 -58.42285156 61.13623047 C-61.44928502 57.8346667 -64.41177435 54.74633487 -67.86035156 51.88623047 C-70.73278122 49.39175209 -73.05674645 47.34167744 -74.42285156 43.69873047 C-74.30499265 40.28082205 -74.01201838 37.77309348 -72.36035156 34.76123047 C-69.04744134 32.94447325 -66.00140462 32.79292916 -62.42285156 33.69873047 C-59.39987355 35.6994718 -56.93768234 38.10044292 -54.42285156 40.69873047 C-53.18535156 41.90529297 -53.18535156 41.90529297 -51.92285156 43.13623047 C-51.42785156 43.65185547 -50.93285156 44.16748047 -50.42285156 44.69873047 C-46.97981689 43.22367084 -44.82651022 41.30610583 -42.24023438 38.61621094 C-41.42548645 37.77549042 -40.61073853 36.9347699 -39.77130127 36.068573 C-38.89834412 35.16019684 -38.02538696 34.25182068 -37.12597656 33.31591797 C-35.73924713 31.89587515 -34.35249287 30.47585561 -32.96430588 29.05723763 C-29.54585775 25.56265067 -26.1362566 22.05994993 -22.75097656 18.53320312 C-20.84934347 16.55317562 -18.93741416 14.58426962 -17.01287842 12.62649536 C-15.2022554 10.78396207 -13.40731407 8.92585688 -11.63018799 7.05099487 C-4.78671978 0.14913302 -4.78671978 0.14913302 0 0 Z " fill="#F4F6F8" transform="translate(462.4228515625,396.30126953125)"/>
<path d="M0 0 C0.81791016 0.28166016 1.63582031 0.56332031 2.47851562 0.85351562 C4.46773483 1.53985441 6.4530524 2.2374845 8.4375 2.9375 C7.83768027 8.14646082 5.36715684 12.41016068 3 17 C2.59201172 17.80244141 2.18402344 18.60488281 1.76367188 19.43164062 C1.00348826 20.92596568 0.24083573 22.41903935 -0.52514648 23.91040039 C-1.55013269 25.91333296 -2.55934347 27.92355944 -3.5625 29.9375 C-4.5525 29.6075 -5.5425 29.2775 -6.5625 28.9375 C-7.92344292 28.84623089 -9.28834558 28.80684548 -10.65234375 28.8046875 C-11.43673828 28.80339844 -12.22113281 28.80210937 -13.02929688 28.80078125 C-14.25229492 28.80658203 -14.25229492 28.80658203 -15.5 28.8125 C-16.31146484 28.80863281 -17.12292969 28.80476563 -17.95898438 28.80078125 C-19.13750977 28.80271484 -19.13750977 28.80271484 -20.33984375 28.8046875 C-21.05390381 28.80581543 -21.76796387 28.80694336 -22.50366211 28.80810547 C-24.63033896 28.94176357 -26.51604523 29.35789658 -28.5625 29.9375 C-28.77003906 29.37804687 -28.97757813 28.81859375 -29.19140625 28.2421875 C-31.52267711 22.17503071 -34.24737033 16.4166794 -37.27563477 10.67333984 C-38.72605809 7.87047875 -39.5625 6.14488332 -39.5625 2.9375 C-36.26047379 1.71939513 -32.94472493 0.54391723 -29.625 -0.625 C-28.69880859 -0.96724609 -27.77261719 -1.30949219 -26.81835938 -1.66210938 C-16.83202796 -5.13104555 -9.73659853 -3.45388804 0 0 Z " fill="#EC5565" transform="translate(271.5625,409.0625)"/>
</svg>
