<?xml version="1.0" encoding="UTF-8"?>
<svg version="1.1" xmlns="http://www.w3.org/2000/svg" width="512" height="512">
<path d="M0 0 C1.01790619 0.00215515 2.03581238 0.0043103 3.08456421 0.00653076 C17.69363523 0.05620146 32.02575853 0.30709809 46.375 3.3125 C47.34985352 3.51117676 48.32470703 3.70985352 49.32910156 3.91455078 C97.7109774 14.03517194 141.69928269 35.9516877 177.375 70.3125 C178.3640332 71.26068604 178.3640332 71.26068604 179.37304688 72.22802734 C188.86130305 81.37247479 197.6012044 90.66984009 205.375 101.3125 C206.23306152 102.46355017 207.09113451 103.61459177 207.94921875 104.765625 C213.98736829 112.95680614 219.34595521 121.47054105 224.375 130.3125 C224.73948242 130.94430176 225.10396484 131.57610352 225.47949219 132.22705078 C247.08534998 169.97532572 256.85198095 212.74189997 256.6875 255.9375 C256.68534485 256.95540619 256.6831897 257.97331238 256.68096924 259.02206421 C256.63129854 273.63113523 256.38040191 287.96325853 253.375 302.3125 C253.07698486 303.77478027 253.07698486 303.77478027 252.77294922 305.26660156 C242.65232806 353.6484774 220.7358123 397.63678269 186.375 433.3125 C185.74287598 433.97185547 185.11075195 434.63121094 184.45947266 435.31054688 C175.31502521 444.79880305 166.01765991 453.5387044 155.375 461.3125 C154.22394983 462.17056152 153.07290823 463.02863451 151.921875 463.88671875 C143.73224019 469.92427396 135.22961724 475.30707302 126.375 480.3125 C125.66778809 480.7146875 124.96057617 481.116875 124.23193359 481.53125 C101.09654164 494.5566741 75.92537591 503.30551461 49.9375 508.625 C49.21860596 508.77235596 48.49971191 508.91971191 47.7590332 509.0715332 C33.08339502 511.86090125 18.55831162 512.66142619 3.64770508 512.62817383 C0.70811513 512.6250221 -2.2304558 512.64854926 -5.16992188 512.67382812 C-18.54306192 512.71848737 -31.43916711 511.51301542 -44.625 509.3125 C-46.33055054 509.03031616 -46.33055054 509.03031616 -48.07055664 508.74243164 C-91.33802759 500.97044532 -132.38793216 480.98345309 -165.625 452.3125 C-166.37007813 451.67828125 -167.11515625 451.0440625 -167.8828125 450.390625 C-181.38779833 438.57948485 -194.05918743 425.82889772 -204.625 411.3125 C-205.48149066 410.16255169 -206.33826433 409.01281411 -207.1953125 407.86328125 C-213.23534209 399.67315742 -218.61867614 391.16870382 -223.625 382.3125 C-224.0271875 381.60528809 -224.429375 380.89807617 -224.84375 380.16943359 C-237.8691741 357.03404164 -246.61801461 331.86287591 -251.9375 305.875 C-252.08485596 305.15610596 -252.23221191 304.43721191 -252.3840332 303.6965332 C-255.35789088 288.05024391 -255.99800362 272.57681954 -255.9375 256.6875 C-255.93534485 255.66959381 -255.9331897 254.65168762 -255.93096924 253.60293579 C-255.88129854 238.99386477 -255.63040191 224.66174147 -252.625 210.3125 C-252.42632324 209.33764648 -252.22764648 208.36279297 -252.02294922 207.35839844 C-241.90232806 158.9765226 -219.9858123 114.98821731 -185.625 79.3125 C-184.99287598 78.65314453 -184.36075195 77.99378906 -183.70947266 77.31445312 C-174.56502521 67.82619695 -165.26765991 59.0862956 -154.625 51.3125 C-153.47394983 50.45443848 -152.32290823 49.59636549 -151.171875 48.73828125 C-142.98224019 42.70072604 -134.47961724 37.31792698 -125.625 32.3125 C-124.91778809 31.9103125 -124.21057617 31.508125 -123.48193359 31.09375 C-100.34654164 18.0683259 -75.17537591 9.31948539 -49.1875 4 C-48.46860596 3.85264404 -47.74971191 3.70528809 -47.0090332 3.5534668 C-31.36274391 0.57960912 -15.88931954 -0.06050362 0 0 Z " fill="#6DC152" transform="translate(255.625,-0.3125)"/>
<path d="M0 0 C3.56398931 1.67751758 5.85893489 3.62185546 8.64501953 6.43383789 C9.55921661 7.35141373 10.4734137 8.26898956 11.41531372 9.21437073 C12.40451178 10.2171012 13.39367727 11.2198638 14.3828125 12.22265625 C15.40312474 13.24924157 16.42395562 14.27531166 17.44528198 15.30088806 C20.12844483 17.99733438 22.8059782 20.69929598 25.48193359 23.40289307 C29.77089904 27.73503495 34.06665023 32.06042276 38.36562729 36.38262749 C39.86701406 37.8942501 41.36494978 39.40923185 42.86257935 40.92457581 C43.77047211 41.83899948 44.67836487 42.75342316 45.61376953 43.69555664 C46.41444855 44.50448868 47.21512756 45.31342072 48.04006958 46.14686584 C49.86870778 48.05499702 49.86870778 48.05499702 52 49 C50.60624465 52.14299753 48.97931512 54.26974387 46.55234337 56.69375229 C45.83426518 57.41581258 45.11618699 58.13787286 44.37634885 58.88181376 C43.18862078 60.06080332 43.18862078 60.06080332 41.97689819 61.26361084 C41.13806111 62.10415677 40.29922403 62.94470271 39.43496764 63.81071973 C37.10575509 66.14265894 34.77213392 68.47002193 32.43655586 70.79557538 C29.91897732 73.30452318 27.40717484 75.8192418 24.89466858 78.33326721 C20.5408352 82.68814968 16.18335269 87.03935308 11.8233757 91.38808441 C5.51957502 97.67563631 -0.77870081 103.96869855 -7.07563858 110.26312271 C-17.2919607 120.47506675 -27.51274189 130.68253577 -37.73632812 140.88720703 C-47.6680317 150.80055473 -57.59763414 160.71599923 -67.52441406 170.63427734 C-68.13622271 171.24556054 -68.74803136 171.85684374 -69.37837966 172.48665068 C-72.44760738 175.55326834 -75.51679379 178.61992733 -78.58595967 181.68660688 C-104.05090556 207.13081676 -129.52308866 232.56777125 -155 258 C-158.76016497 256.24092616 -161.16569182 254.08088083 -164.11260986 251.12789917 C-164.61422095 250.62799693 -165.11583204 250.12809469 -165.63264346 249.6130439 C-167.31099114 247.93798853 -168.98209396 246.25588872 -170.65332031 244.57373047 C-171.85543587 243.37105074 -173.05799204 242.16881129 -174.26095581 240.96697998 C-177.52543908 237.703071 -180.78371516 234.43302818 -184.04092503 231.16186285 C-187.44597086 227.74432242 -190.85667368 224.33243734 -194.26678467 220.91995239 C-200.72345606 214.4570625 -207.17501188 207.98909083 -213.62475276 201.51928532 C-220.96779895 194.15389166 -228.31651864 186.7941699 -235.66572428 179.43492293 C-250.7834783 164.29625853 -265.8940807 149.15047294 -281 134 C-279.28543952 130.34670352 -277.24190437 127.99980016 -274.36669922 125.13964844 C-273.89823578 124.67089294 -273.42977234 124.20213745 -272.94711304 123.71917725 C-271.40433305 122.17778568 -269.85460036 120.64359127 -268.3046875 119.109375 C-267.23093808 118.03935745 -266.15763067 116.96889619 -265.08474731 115.89801025 C-262.26479548 113.08568121 -259.43888846 110.27941111 -256.61169434 107.47436523 C-253.7257863 104.60894477 -250.84555743 101.73782832 -247.96484375 98.8671875 C-242.31543511 93.23920488 -236.65972175 87.61761116 -231 82 C-226.12023249 86.06554671 -221.53144744 90.32826276 -217.05493164 94.83154297 C-216.40042023 95.48590836 -215.74590881 96.14027374 -215.07156372 96.81446838 C-212.93204586 98.95467689 -210.79608124 101.09839383 -208.66015625 103.2421875 C-207.16822345 104.73598749 -205.67606814 106.22956528 -204.18370056 107.72293091 C-200.27381051 111.63662239 -196.36693406 115.55330865 -192.46069336 119.47064209 C-188.46715994 123.47444088 -184.47076191 127.47537813 -180.47460938 131.4765625 C-172.64694515 139.31492213 -164.82246401 147.15645093 -157 155 C-152.72604067 153.34580289 -149.8687142 150.140746 -146.71051025 146.95101929 C-146.08230904 146.32452693 -145.45410783 145.69803457 -144.80687022 145.05255759 C-142.70012168 142.94910699 -140.60060756 140.83858084 -138.50097656 138.72802734 C-136.9934461 137.21993284 -135.4854753 135.7122784 -133.97709656 134.20503235 C-129.87999805 130.10850861 -125.78910333 126.00583943 -121.69927311 121.90206099 C-117.4253792 117.61568042 -113.14583612 113.33494776 -108.86688232 109.05361938 C-100.76337127 100.9438875 -92.66497277 92.82906998 -84.56838679 84.71242487 C-75.35112787 75.47282575 -66.12820196 66.23889234 -56.90478945 57.00543666 C-37.93020214 38.00993367 -18.9627628 19.00730661 0 0 Z " fill="#FDFEFD" transform="translate(371,143)"/>
</svg>
