<?xml version="1.0" encoding="UTF-8"?>
<svg version="1.1" xmlns="http://www.w3.org/2000/svg" width="512" height="512">
<path d="M0 0 C20.27618372 10.21340925 38.79429425 22.91216701 55.4921875 38.3046875 C57.06094481 39.74836117 58.64981886 41.17047337 60.2578125 42.5703125 C108.70004435 84.86114983 135.54515332 148.91375788 140.53125 212.09375 C143.00904942 259.32680151 134.28465899 306.5980422 111.84375 348.46875 C111.28349121 349.53706055 111.28349121 349.53706055 110.71191406 350.62695312 C96.18697624 378.27392054 75.8753494 404.40665586 51.84375 424.46875 C51.05677734 425.13221436 51.05677734 425.13221436 50.25390625 425.80908203 C35.61346052 438.08829941 19.77734344 448.62192162 2.84375 457.46875 C1.72685791 458.05970459 1.72685791 458.05970459 0.58740234 458.66259766 C-21.40725505 470.1588729 -45.73514668 478.108967 -70.15625 482.46875 C-71.05263184 482.62956055 -71.94901367 482.79037109 -72.87255859 482.95605469 C-84.65844794 484.97554111 -96.32699592 485.75354958 -108.28125 485.84375 C-109.48539551 485.85768799 -110.68954102 485.87162598 -111.93017578 485.88598633 C-113.0592334 485.87978271 -114.18829102 485.8735791 -115.3515625 485.8671875 C-116.35203613 485.86380371 -117.35250977 485.86041992 -118.38330078 485.85693359 C-122.89390705 485.22549637 -125.44580995 483.27786228 -128.40625 479.90625 C-131.76309072 475.23065042 -131.79856865 471.11941811 -131.15625 465.46875 C-129.34375 462.03125 -129.34375 462.03125 -127.15625 459.46875 C-126.74375 458.870625 -126.33125 458.2725 -125.90625 457.65625 C-122.99222997 455.67887926 -119.61762073 455.84755463 -116.15625 455.46875 C-116.00637907 428.94727968 -115.9253196 402.42636609 -115.92565536 375.90445328 C-115.9242157 363.58911783 -115.90045741 351.27458817 -115.82373047 338.95947266 C-115.75689363 328.22261193 -115.73236801 317.48662011 -115.75815511 306.74956775 C-115.77033931 301.06658581 -115.76167342 295.38539706 -115.7022934 289.70267487 C-115.64699977 284.34694078 -115.64854154 278.9941479 -115.69255638 273.63833809 C-115.69884352 271.6792386 -115.68485444 269.71994571 -115.64840889 267.76117516 C-115.32549727 255.33664415 -115.32549727 255.33664415 -121.45296693 245.00988364 C-123.04977481 243.52475451 -124.68556172 242.13801588 -126.38705826 240.77489853 C-130.20229518 237.59761655 -130.20229518 237.59761655 -131.15625 234.46875 C-131.41351891 231.47892189 -131.41351891 231.47892189 -131.42367554 227.91592407 C-131.42820665 227.25928784 -131.43273776 226.6026516 -131.43740618 225.9261173 C-131.45005867 223.72752864 -131.4484293 221.52918743 -131.44677734 219.33056641 C-131.45276207 217.75352154 -131.45956749 216.17647961 -131.46713257 214.59944153 C-131.48480536 210.31633862 -131.48948848 206.03331561 -131.49076414 201.75017977 C-131.49266348 198.17414867 -131.5000214 194.59813618 -131.50710833 191.02211225 C-131.5233947 182.58471889 -131.52827705 174.14736821 -131.52685547 165.70996094 C-131.5256539 157.0075629 -131.54675811 148.30541282 -131.5783428 139.60307753 C-131.6044978 132.13034162 -131.61522309 124.65768674 -131.61394465 117.18490541 C-131.61343479 112.72231925 -131.61913102 108.25995343 -131.64030075 103.79741287 C-131.65967018 99.59975503 -131.65981667 95.40252803 -131.64526749 91.20485497 C-131.64317667 89.66576063 -131.64789659 88.12663942 -131.6599884 86.58759117 C-131.67544979 84.48307003 -131.66612932 82.3800329 -131.65072632 80.27554321 C-131.65236062 78.51072822 -131.65236062 78.51072822 -131.65402794 76.71026039 C-130.93367464 72.01934799 -128.65585112 68.96835112 -125.34375 65.65625 C-123.15625 64.46875 -123.15625 64.46875 -116.15625 63.46875 C-116.15625 43.66875 -116.15625 23.86875 -116.15625 3.46875 C-118.79625 3.13875 -121.43625 2.80875 -124.15625 2.46875 C-126.21484375 0.91015625 -126.21484375 0.91015625 -127.59375 -0.96875 C-128.06683594 -1.58621094 -128.53992188 -2.20367188 -129.02734375 -2.83984375 C-131.90645755 -7.15353329 -131.73110888 -11.47404555 -131.15625 -16.53125 C-113.90281399 -49.25328381 -24.79034614 -12.24761149 0 0 Z " fill="#FE8320" transform="translate(371.15625,26.53125)"/>
<path d="M0 0 C20.27618372 10.21340925 38.79429425 22.91216701 55.4921875 38.3046875 C57.06094481 39.74836117 58.64981886 41.17047337 60.2578125 42.5703125 C108.70004435 84.86114983 135.54515332 148.91375788 140.53125 212.09375 C143.00904942 259.32680151 134.28465899 306.5980422 111.84375 348.46875 C111.28349121 349.53706055 111.28349121 349.53706055 110.71191406 350.62695312 C96.18697624 378.27392054 75.8753494 404.40665586 51.84375 424.46875 C51.05677734 425.13221436 51.05677734 425.13221436 50.25390625 425.80908203 C35.61346052 438.08829941 19.77734344 448.62192162 2.84375 457.46875 C1.72685791 458.05970459 1.72685791 458.05970459 0.58740234 458.66259766 C-21.40725505 470.1588729 -45.73514668 478.108967 -70.15625 482.46875 C-71.05263184 482.62956055 -71.94901367 482.79037109 -72.87255859 482.95605469 C-84.65844794 484.97554111 -96.32699592 485.75354958 -108.28125 485.84375 C-109.48539551 485.85768799 -110.68954102 485.87162598 -111.93017578 485.88598633 C-113.0592334 485.87978271 -114.18829102 485.8735791 -115.3515625 485.8671875 C-116.35203613 485.86380371 -117.35250977 485.86041992 -118.38330078 485.85693359 C-122.89390705 485.22549637 -125.44580995 483.27786228 -128.40625 479.90625 C-131.76309072 475.23065042 -131.79856865 471.11941811 -131.15625 465.46875 C-128.70072855 460.81172656 -126.20621079 457.15207026 -121.15625 455.46875 C-119.58356313 455.34364591 -118.00670219 455.26759708 -116.4296875 455.22265625 C-115.01949341 455.17588745 -115.01949341 455.17588745 -113.58081055 455.12817383 C-112.57445557 455.09618896 -111.56810059 455.0642041 -110.53125 455.03125 C-48.11146624 452.53561716 9.2740626 426.05699073 51.84375 380.46875 C55.00385317 376.91301576 57.9581682 373.24968076 60.84375 369.46875 C61.47893555 368.64818115 61.47893555 368.64818115 62.12695312 367.81103516 C69.55782918 358.17495308 75.99180465 348.13467336 81.84375 337.46875 C82.20065918 336.81825684 82.55756836 336.16776367 82.92529297 335.49755859 C110.57021639 284.34990554 116.73750874 222.17510809 100.69091797 166.45898438 C95.95004842 150.78397061 89.57304615 135.89169277 81.84375 121.46875 C81.52438477 120.86869141 81.20501953 120.26863281 80.87597656 119.65039062 C71.05619106 101.36664787 58.04199788 85.5164657 43.84375 70.46875 C43.04195312 69.6128125 42.24015625 68.756875 41.4140625 67.875 C34.76922412 60.99051171 27.47764168 55.19624319 19.84375 49.46875 C19.28171875 49.04062012 18.7196875 48.61249023 18.140625 48.17138672 C8.58607998 40.91897361 -1.51613391 34.98790702 -12.15625 29.46875 C-12.90503418 29.07800293 -13.65381836 28.68725586 -14.42529297 28.28466797 C-41.83598547 14.16149386 -73.26102094 5.31982086 -104.12890625 4.2421875 C-105.16764893 4.20520752 -106.2063916 4.16822754 -107.27661133 4.13012695 C-109.31897013 4.06560122 -111.3618933 4.0165454 -113.4050293 3.98510742 C-122.17759831 3.75271647 -122.17759831 3.75271647 -126.15625 0.46875 C-130.54956285 -4.53474519 -131.5020206 -7.43849554 -131.4453125 -13.98828125 C-130.89926802 -18.79199691 -127.80825867 -22.51437327 -124.15625 -25.53125 C-87.37714785 -37.79095072 -32.80932013 -16.20936649 0 0 Z " fill="#15171A" transform="translate(371.15625,26.53125)"/>
<path d="M0 0 C4.28590933 2.79515826 7.22425239 5.92275717 8.875 10.875 C8.68684769 13.22869682 8.68684769 13.22869682 8.24591064 16.06710815 C8.08632055 17.14719336 7.92673046 18.22727856 7.76230431 19.34009361 C7.49566192 21.12443526 7.49566192 21.12443526 7.22363281 22.94482422 C4.68550738 41.15484371 3.10715345 59.39188398 2.125 77.75 C2.079581 78.57770936 2.03416201 79.40541872 1.98736668 80.25821018 C-0.32357455 123.8693086 4.00988652 159.00355019 33.96818352 192.42803717 C44.80780035 204.33531604 56.31441144 215.45001324 68.25 226.25 C69.29347312 227.19571381 69.29347312 227.19571381 70.3580265 228.16053295 C82.8699736 239.47555489 95.56829235 250.5735867 108.72390747 261.13659668 C109.63372541 261.86789974 109.63372541 261.86789974 110.5619235 262.6139766 C113.38809641 264.87984438 116.22549584 267.12847403 119.08777237 269.34856987 C120.07494122 270.12705347 121.06211006 270.90553707 122.07919312 271.70761108 C122.93792715 272.37265341 123.79666119 273.03769573 124.68141747 273.72289085 C128.13229184 277.10852061 129.67121178 280.49942952 130.375 285.25 C129.58584564 290.97136908 126.92069697 294.94963815 122.75 298.875 C118.12425663 300.48395422 113.64609689 301.08575574 108.875 299.875 C101.05345256 294.81503783 94.61383968 287.89126924 88.0859375 281.31640625 C86.97250402 280.20177705 85.85869664 279.08752125 84.74453735 277.97361755 C82.42357915 275.6511054 80.10598572 273.32530675 77.79101562 270.99682617 C74.8432672 268.03207992 71.88897034 265.07396763 68.93233299 262.11808872 C66.63617997 259.82166207 64.34265508 257.52262548 62.04997635 255.22273064 C60.96225026 254.13185272 59.87394422 253.04155273 58.78501511 251.95187569 C53.57830556 246.7376675 48.47312296 241.49800122 43.67468262 235.90028381 C39.77647031 231.51340681 35.56351753 227.42073056 31.41015625 223.27734375 C30.40784919 222.27436097 29.40569044 221.27122997 28.40367126 220.26795959 C26.31508466 218.17790862 24.22472612 216.08965112 22.13305664 214.00268555 C19.4726959 211.3480213 16.81685158 208.68889116 14.16233158 206.02838802 C12.09733394 203.95975051 10.02992796 201.89353301 7.9618206 199.82800484 C6.98243589 198.84927995 6.00377319 197.86983194 5.02589607 196.88960075 C-0.02001663 191.8342046 -5.09979418 186.88568522 -10.52861023 182.24090576 C-12.42052792 180.62213989 -14.22891584 178.93739894 -16 177.1875 C-16.55429688 176.64738281 -17.10859375 176.10726562 -17.6796875 175.55078125 C-21.04784436 171.64553992 -21.37787824 168.42543957 -21.39242554 163.32217407 C-21.39695665 162.66553784 -21.40148776 162.0089016 -21.40615618 161.3323673 C-21.41880867 159.13377864 -21.4171793 156.93543743 -21.41552734 154.73681641 C-21.42151207 153.15977154 -21.42831749 151.58272961 -21.43588257 150.00569153 C-21.45355536 145.72258862 -21.45823848 141.43956561 -21.45951414 137.15642977 C-21.46141348 133.58039867 -21.4687714 130.00438618 -21.47585833 126.42836225 C-21.4921447 117.99096889 -21.49702705 109.55361821 -21.49560547 101.11621094 C-21.4944039 92.4138129 -21.51550811 83.71166282 -21.5470928 75.00932753 C-21.5732478 67.53659162 -21.58397309 60.06393674 -21.58269465 52.59115541 C-21.58218479 48.12856925 -21.58788102 43.66620343 -21.60905075 39.20366287 C-21.62842018 35.00600503 -21.62856667 30.80877803 -21.61401749 26.61110497 C-21.61192667 25.07201063 -21.61664659 23.53288942 -21.6287384 21.99384117 C-21.64419979 19.88932003 -21.63487932 17.7862829 -21.61947632 15.68179321 C-21.62111062 13.91697822 -21.62111062 13.91697822 -21.62277794 12.11651039 C-20.89146858 7.35425258 -18.64688909 4.21241769 -15.0625 1.0625 C-10.20094654 -1.9171618 -5.27875312 -1.90035112 0 0 Z " fill="#16171A" transform="translate(261.125,91.125)"/>
<path d="M0 0 C-0.99 0.33 -1.98 0.66 -3 1 C-3 62.38 -3 123.76 -3 187 C-10.91176471 180.21848739 -10.91176471 180.21848739 -13.875 176.75 C-14.44992188 176.08484375 -15.02484375 175.4196875 -15.6171875 174.734375 C-18.30706304 171.36063279 -18.13169574 168.95216978 -18.14717102 164.68768311 C-18.15084771 164.03275572 -18.1545244 163.37782834 -18.1583125 162.70305467 C-18.16936627 160.49831767 -18.17319603 158.29362777 -18.17700195 156.08886719 C-18.18326536 154.51211903 -18.18991205 152.93537236 -18.19691467 151.35862732 C-18.21433653 147.06716258 -18.22487981 142.77570899 -18.2331202 138.48421764 C-18.2382682 135.80366764 -18.24434405 133.1231211 -18.25063133 130.44257355 C-18.26968734 122.05764034 -18.2839172 113.67271597 -18.2922433 105.28776526 C-18.30201606 95.60541537 -18.32833481 85.92329407 -18.36874419 76.24102473 C-18.39889673 68.75984653 -18.41371138 61.27873388 -18.41702431 53.79749608 C-18.41937593 49.32815878 -18.4283506 44.85906557 -18.45348549 40.3897934 C-18.47675603 36.18397374 -18.48100367 31.97855906 -18.47072411 27.77269173 C-18.47022837 26.23036668 -18.47655997 24.68802177 -18.49028015 23.14575768 C-18.50798968 21.03677115 -18.50089956 18.92923947 -18.48774719 16.82025146 C-18.49013555 15.6411105 -18.4925239 14.46196953 -18.49498463 13.24709702 C-17.76825961 8.47978402 -15.5248788 5.340045 -11.9375 2.1875 C-7.97373727 -0.24190296 -4.53836719 -0.08562957 0 0 Z " fill="#33393F" transform="translate(258,90)"/>
<path d="M0 0 C1.20527344 0.39123047 2.41054687 0.78246094 3.65234375 1.18554688 C5.39451172 1.76852539 5.39451172 1.76852539 7.171875 2.36328125 C8.21956055 2.71302002 9.26724609 3.06275879 10.34667969 3.4230957 C14.60823039 5.27901322 17.46610149 7.52516772 20.0625 11.375 C21.80618643 16.23896742 22.2312094 20.7088286 20.59375 25.6796875 C18.26788998 30.35145806 15.12901719 32.93587864 10.25 34.6875 C2.04504111 35.44614947 -4.66557586 33.1553748 -12.375 30.5 C-13.56351563 30.11263672 -14.75203125 29.72527344 -15.9765625 29.32617188 C-23.39290275 26.82232933 -30.08854032 24.55090921 -34.6875 17.875 C-36.4141335 12.6950995 -36.4446449 8.65566054 -34.625 3.5 C-32.11617803 -0.26323295 -29.23429897 -3.48720218 -24.80175781 -4.9597168 C-16.42398918 -6.40020652 -7.77789108 -2.63335966 0 0 Z " fill="#32383F" transform="translate(185.75,469.3125)"/>
<path d="M0 0 C4.88031433 3.13125063 9.13949195 7.00599968 13.40234375 10.91796875 C15.684859 12.94512515 18.04620388 14.78548211 20.484375 16.62109375 C25.27309706 20.34008383 28.59557682 23.12128942 29.609375 29.30859375 C29.91320601 33.88125043 29.04910109 36.9459887 26.671875 40.93359375 C22.90228846 44.898336 19.53396827 46.74096341 14.046875 47.30859375 C3.68357528 47.04575644 -4.30953306 37.95780664 -11.59082031 31.45800781 C-12.79205797 30.40397072 -14.0116122 29.37057857 -15.24511719 28.35449219 C-15.86805664 27.84047852 -16.49099609 27.32646484 -17.1328125 26.796875 C-17.69726074 26.33966064 -18.26170898 25.88244629 -18.84326172 25.41137695 C-22.03644386 22.23342044 -23.22654314 18.28322633 -23.41796875 13.85546875 C-23.05281385 8.94928494 -21.50187892 5.62201047 -18.328125 1.93359375 C-12.91489659 -1.93299797 -6.10503985 -2.79643604 0 0 Z " fill="#32383F" transform="translate(100.328125,420.06640625)"/>
<path d="M0 0 C8.83667633 3.83478407 13.67298552 15.52399025 18.375 23.5 C18.92027344 24.38558594 19.46554688 25.27117187 20.02734375 26.18359375 C23.36369287 31.87796405 25.08161533 36.36974012 24 43 C22.07936852 48.35755096 19.08325568 51.45837216 14 54 C11.86328125 54.23828125 11.86328125 54.23828125 9.3125 54.3125 C8.06919922 54.36857422 8.06919922 54.36857422 6.80078125 54.42578125 C1.38959434 53.60316009 -2.01755423 51.21227657 -5.37109375 47.07421875 C-6.05300781 45.95660156 -6.73492187 44.83898437 -7.4375 43.6875 C-7.80875 43.08010986 -8.18 42.47271973 -8.5625 41.84692383 C-9.73114542 39.91048828 -10.86795649 37.95802494 -12 36 C-12.38430176 35.34902344 -12.76860352 34.69804687 -13.16455078 34.02734375 C-22.03990681 18.88769446 -22.03990681 18.88769446 -21 12 C-19.69364813 7.58215548 -17.72578478 4.70808271 -14.4375 1.5 C-9.54353238 -0.63554951 -5.25805043 -0.74665888 0 0 Z " fill="#32383F" transform="translate(46,351)"/>
<path d="M0 0 C3.72317861 2.80600535 5.37750695 5.4124881 6.1640625 9.95703125 C6.24250161 16.18733735 5.02655027 19.93904294 1.1640625 24.95703125 C-1.68359375 27.4140625 -1.68359375 27.4140625 -4.8984375 29.76953125 C-6.05327134 30.62730913 -7.20689469 31.48671883 -8.359375 32.34765625 C-8.9378418 32.77755859 -9.51630859 33.20746094 -10.11230469 33.65039062 C-13.73421685 36.39606681 -17.20001408 39.333546 -20.69140625 42.2421875 C-25.51092277 46.09604497 -30.88893084 45.51674952 -36.8359375 44.95703125 C-41.33270298 42.82698444 -43.86075281 40.53114317 -45.8359375 35.95703125 C-47.25663184 29.76686308 -46.83630995 25.57657008 -43.8359375 19.95703125 C-41.91327208 17.67352272 -39.73767755 15.86421805 -37.3984375 14.01953125 C-36.78025146 13.51373535 -36.16206543 13.00793945 -35.52514648 12.48681641 C-33.64280702 10.95830377 -31.74141386 9.45654527 -29.8359375 7.95703125 C-28.72134837 7.05729885 -27.60676473 6.15755965 -26.4921875 5.2578125 C-18.06481101 -1.3500168 -10.16074563 -5.77216826 0 0 Z " fill="#32383F" transform="translate(125.8359375,46.04296875)"/>
<path d="M0 0 C3.4908279 3.09414291 5.4809777 5.93247082 6.75 10.4375 C7.02700451 15.63133447 6.19537433 20.41789661 2.75 24.4375 C-3.68191301 28.73153284 -10.81002896 30.88159697 -18.125 33.25 C-19.35347656 33.66958984 -20.58195312 34.08917969 -21.84765625 34.52148438 C-28.8412439 36.79646171 -34.02203893 38.08222992 -41.25 36.4375 C-45.60835033 34.17761464 -48.47759502 32.06544634 -50.25 27.4375 C-50.90528913 22.146647 -50.92405257 17.86338044 -48.625 13 C-43.26727884 7.21930086 -37.23042751 5.1538051 -29.875 2.8125 C-28.9675 2.5134375 -28.06 2.214375 -27.125 1.90625 C-8.58979623 -4.12970973 -8.58979623 -4.12970973 0 0 Z " fill="#32383F" transform="translate(203.25,9.5625)"/>
<path d="M0 0 C4.34731225 2.2146685 7.48432837 4.80721395 10 9 C11.5956751 16.68825277 10.31585793 23.58213732 8.73168945 31.16674805 C8.31190692 33.190359 7.92135279 35.21815883 7.53320312 37.24804688 C7.27087891 38.54162109 7.00855469 39.83519531 6.73828125 41.16796875 C6.50149658 42.33610107 6.26471191 43.5042334 6.02075195 44.70776367 C4.38994228 49.96762219 1.73325004 54.09897578 -3 57 C-8.07538397 58.69179466 -12.31964436 58.56371867 -17.1875 56.375 C-21.11940611 54.15328218 -23.20188017 52.27053459 -25 48 C-26.48045886 39.34284054 -24.37547996 30.55846435 -22.75 22.0625 C-22.54576416 20.97219482 -22.34152832 19.88188965 -22.13110352 18.75854492 C-20.72736157 11.89774956 -19.32656258 6.92334287 -13.9375 2.1875 C-9.54289675 -0.50596651 -4.99992452 -0.61642905 0 0 Z " fill="#32383F" transform="translate(26,183)"/>
<path d="M0 0 C4.25713497 3.93784985 6.03440284 7.35300696 6.56469727 13.22583008 C6.34956138 20.16457131 1.75123949 26.61440629 -1.8125 32.3125 C-2.27333984 33.06789062 -2.73417969 33.82328125 -3.20898438 34.6015625 C-12.83071556 50.17832898 -12.83071556 50.17832898 -19.5 52.3125 C-24.89567505 53.07092822 -28.87088337 52.36350869 -33.5 49.3125 C-37.90832158 44.42760312 -39.09481091 41.15150521 -39.03515625 34.640625 C-37.94388288 27.85401983 -34.0748906 22.07603675 -30.5 16.3125 C-30.14244629 15.73193848 -29.78489258 15.15137695 -29.41650391 14.55322266 C-22.39426713 3.28573935 -14.30953456 -6.89923988 0 0 Z " fill="#32383F" transform="translate(65.5,106.6875)"/>
<path d="M0 0 C7.77647383 6.83387094 8.49672095 15.51236507 10.1875 25.25 C10.36925781 26.24837891 10.55101562 27.24675781 10.73828125 28.27539062 C13.50175782 44.07707434 13.50175782 44.07707434 9.0625 50.8125 C5.34863108 54.63247946 1.35410286 56.50011557 -3.9375 56.8125 C-9.6025423 55.98969753 -13.23210569 54.19822823 -16.83764648 49.60986328 C-18.81545835 46.37775431 -19.43941471 42.93850378 -20.125 39.25 C-20.28444092 38.45859619 -20.44388184 37.66719238 -20.6081543 36.85180664 C-21.07183755 34.50874908 -21.507452 32.1619309 -21.9375 29.8125 C-22.17726563 28.575 -22.41703125 27.3375 -22.6640625 26.0625 C-24.03434742 18.31582257 -24.89246787 11.58279518 -21.1875 4.4375 C-15.61640265 -2.06211358 -7.95980858 -3.21779496 0 0 Z " fill="#32383F" transform="translate(23.9375,270.1875)"/>
<path d="M0 0 C0 9.9 0 19.8 0 30 C-8 29 -8 29 -10.05859375 27.44140625 C-10.51363281 26.82136719 -10.96867188 26.20132812 -11.4375 25.5625 C-11.91058594 24.94503906 -12.38367188 24.32757813 -12.87109375 23.69140625 C-15.75020755 19.37771671 -15.57485888 15.05720445 -15 10 C-11.22865295 2.84744525 -8.20629402 0 0 0 Z " fill="#32383F" transform="translate(255,482)"/>
<path d="M0 0 C0 9.9 0 19.8 0 30 C-8 29 -8 29 -10.05859375 27.44140625 C-10.51363281 26.82136719 -10.96867188 26.20132812 -11.4375 25.5625 C-11.91058594 24.94503906 -12.38367188 24.32757812 -12.87109375 23.69140625 C-15.75020755 19.37771671 -15.57485888 15.05720445 -15 10 C-11.22865295 2.84744525 -8.20629402 0 0 0 Z " fill="#32383F" transform="translate(255,0)"/>
</svg>
