<?xml version="1.0" encoding="UTF-8"?>
<svg version="1.1" xmlns="http://www.w3.org/2000/svg" width="512" height="512">
<path d="M0 0 C4.11564151 0.01707693 8.23070051 0.00693806 12.34632206 -0.01031494 C29.7542617 -0.07235931 46.84863401 0.06695652 64.00805664 3.39111328 C65.20084229 3.62072754 66.39362793 3.8503418 67.62255859 4.08691406 C70.50501631 4.70076034 73.34666691 5.38806858 76.19555664 6.14111328 C77.19272705 6.40005371 78.18989746 6.65899414 79.21728516 6.92578125 C111.7171936 15.61215346 141.58211637 31.42966052 167.00805664 53.39111328 C167.91813477 54.17099609 168.82821289 54.95087891 169.76586914 55.75439453 C172.22871796 57.92027605 174.62801063 60.13456023 177.00805664 62.39111328 C177.50370117 62.85952637 177.9993457 63.32793945 178.51000977 63.81054688 C186.85538809 71.75285255 194.14012042 80.15216527 201.00805664 89.39111328 C201.43183594 89.94879395 201.85561523 90.50647461 202.29223633 91.08105469 C209.55021994 100.64028215 215.48554743 110.74453466 221.00805664 121.39111328 C221.39880371 122.13989746 221.78955078 122.88868164 222.19213867 123.66015625 C238.32717002 154.97552343 245.4670167 189.03197444 245.32055664 224.07861328 C245.31840149 225.00753387 245.31624634 225.93645447 245.31402588 226.89352417 C245.26416477 240.28180804 244.9003878 253.27250964 242.00805664 266.39111328 C241.70206543 267.85508545 241.70206543 267.85508545 241.38989258 269.34863281 C236.05755918 294.55496864 227.49649427 320.34042832 212.87695312 341.81225586 C211.7841359 343.45765884 211.7841359 343.45765884 212.19555664 345.89111328 C212.46368164 346.71611328 212.73180664 347.54111328 213.00805664 348.39111328 C213.89005315 355.11633664 213.89005315 355.11633664 211.71870422 358.25465393 C210.86480354 359.18180458 210.86480354 359.18180458 209.99365234 360.12768555 C209.03696152 361.17147873 209.03696152 361.17147873 208.0609436 362.23635864 C204.66448009 365.80136034 201.22516121 369.31658056 197.73852539 372.79345703 C196.9763118 373.55662735 196.21409821 374.31979767 195.42878723 375.10609436 C193.83249596 376.70306117 192.23496111 378.29878581 190.63623047 379.89331055 C188.18152841 382.34261064 185.73226768 384.79726232 183.28344727 387.25244141 C181.72712757 388.80810108 180.17049812 390.36345095 178.61352539 391.91845703 C177.88022507 392.65378159 177.14692474 393.38910614 176.3914032 394.14671326 C175.71342178 394.82154251 175.03544037 395.49637177 174.33691406 396.19165039 C173.74069748 396.78707138 173.1444809 397.38249237 172.53019714 397.99595642 C169.97794248 400.3352908 168.16139122 400.48275232 164.81274414 400.64892578 C159.7193935 401.17961022 156.98673209 403.04705134 153.13305664 406.26611328 C117.09404568 434.3481603 70.38154468 448.73963683 24.99633789 448.69189453 C23.41041455 448.69580104 21.82449223 448.70013955 20.23857117 448.70487976 C16.93847237 448.71227041 13.63848068 448.71210423 10.33837891 448.70678711 C7.00197861 448.70215987 3.66594314 448.70906795 0.32958984 448.72729492 C-35.40832479 448.92069048 -35.40832479 448.92069048 -52.99194336 445.39111328 C-54.74631714 445.06252319 -54.74631714 445.06252319 -56.53613281 444.72729492 C-59.47990618 444.13955004 -62.38930389 443.48147869 -65.30444336 442.76611328 C-66.85264771 442.3876123 -66.85264771 442.3876123 -68.43212891 442.00146484 C-92.1756862 435.93805281 -114.54113686 425.81844411 -134.90209961 412.22705078 C-135.88786987 411.57965942 -135.88786987 411.57965942 -136.89355469 410.91918945 C-138.99194336 409.39111328 -138.99194336 409.39111328 -141.20556641 407.29467773 C-150.1292985 399.39310109 -159.42426348 400.48958398 -170.67944336 400.82861328 C-173.44842532 400.90622118 -176.21430638 400.97090716 -178.98432922 400.99195862 C-180.69567542 401.00506289 -182.40718894 401.04952166 -184.11662292 401.13145447 C-190.00735943 401.17896742 -192.84619779 399.53261464 -197.01914978 395.43974304 C-197.67017166 394.76369522 -198.32119354 394.0876474 -198.99194336 393.39111328 C-200.35971498 392.0651796 -201.72813661 390.73991616 -203.09716797 389.4152832 C-204.53221325 387.98672885 -205.96449168 386.55539079 -207.39428711 385.12158203 C-208.53904259 383.97826164 -208.53904259 383.97826164 -209.70692444 382.81184387 C-211.30389125 381.2155526 -212.89961589 379.61801775 -214.49414062 378.01928711 C-216.94344072 375.56458505 -219.3980924 373.11532433 -221.85327148 370.66650391 C-223.40893116 369.11018421 -224.96428102 367.55355476 -226.51928711 365.99658203 C-227.62227394 364.89663155 -227.62227394 364.89663155 -228.74754333 363.77445984 C-229.42237259 363.09647842 -230.09720184 362.41849701 -230.79248047 361.7199707 C-231.38790146 361.12375412 -231.98332245 360.52753754 -232.5967865 359.91325378 C-235.28090101 356.98483797 -235.2037653 354.34220503 -235.41772461 350.46142578 C-234.78714616 347.39531037 -233.41993523 346.3238456 -230.99194336 344.39111328 C-227.9675293 343.93701172 -227.9675293 343.93701172 -224.47631836 344.00048828 C-223.22592773 344.01337891 -221.97553711 344.02626953 -220.68725586 344.03955078 C-218.73432617 344.08982422 -218.73432617 344.08982422 -216.74194336 344.14111328 C-215.42452148 344.15916016 -214.10709961 344.17720703 -212.74975586 344.19580078 C-209.49642028 344.24295057 -206.24454711 344.30875284 -202.99194336 344.39111328 C-205.06654138 338.45601732 -207.64639656 333.13662221 -210.67944336 327.64111328 C-225.57812445 299.86844366 -235.02209697 267.72605485 -235.19506836 236.06298828 C-235.20212799 235.20013718 -235.20918762 234.33728607 -235.21646118 233.44828796 C-235.44053111 198.03270247 -235.44053111 198.03270247 -231.99194336 182.39111328 C-231.78794922 181.41513184 -231.58395508 180.43915039 -231.3737793 179.43359375 C-223.42375781 141.85325201 -207.14831643 107.51598248 -181.99194336 78.39111328 C-181.21206055 77.48103516 -180.43217773 76.57095703 -179.62866211 75.63330078 C-177.46278059 73.17045197 -175.24849641 70.77115929 -172.99194336 68.39111328 C-172.52353027 67.89546875 -172.05511719 67.39982422 -171.57250977 66.88916016 C-163.63020409 58.54378183 -155.23089137 51.2590495 -145.99194336 44.39111328 C-145.4342627 43.96733398 -144.87658203 43.54355469 -144.30200195 43.10693359 C-121.17943907 25.55078868 -93.75049062 13.04843816 -65.61694336 6.14111328 C-64.67463867 5.9069873 -63.73233398 5.67286133 -62.76147461 5.43164062 C-59.51655123 4.67416604 -56.26449752 4.01905237 -52.99194336 3.39111328 C-52.32883148 3.25767517 -51.6657196 3.12423706 -50.98251343 2.98675537 C-34.11785166 -0.29854667 -17.10484265 -0.07160417 0 0 Z " fill="#90C73C" transform="translate(250.991943359375,31.60888671875)"/>
<path d="M0 0 C0.89297791 -0.00570007 1.78595581 -0.01140015 2.70599365 -0.01727295 C4.59906833 -0.02672986 6.49215952 -0.03325967 8.38525391 -0.03710938 C11.27145476 -0.04678974 14.15693589 -0.07779591 17.04296875 -0.109375 C18.88280827 -0.11590764 20.72265289 -0.12115709 22.5625 -0.125 C23.42208313 -0.1373468 24.28166626 -0.1496936 25.16729736 -0.16241455 C31.12675453 -0.14044135 35.03990414 0.65461827 39.72360229 4.62420654 C45.70781505 11.01385853 44.80898288 18.89329816 44.6328125 27.078125 C44.62160528 28.6136712 44.6130723 30.14923903 44.60708618 31.68481445 C44.58430699 35.70323157 44.52548216 39.72032274 44.4588623 43.73822021 C44.3863378 48.57139183 44.35908141 53.40500979 44.32414246 58.23857117 C44.26619176 65.56100791 44.15115228 72.88054235 44.046875 80.203125 C59.886875 80.203125 75.726875 80.203125 92.046875 80.203125 C92.421875 94.078125 92.421875 94.078125 92.52490234 98.39013672 C93.01770815 114.34054375 96.14559757 127.07975179 107.49609375 138.9453125 C118.12717156 148.355363 130.04542514 152.05984456 144.015625 151.546875 C156.53193307 150.71404081 167.73485349 145.03217021 176.359375 136.015625 C190.09203501 119.46311694 188.32766124 101.77953773 189.046875 80.203125 C225.676875 80.203125 262.306875 80.203125 300.046875 80.203125 C299.88867728 57.76518755 299.88867728 57.76518755 299.68652344 35.32763672 C299.66845703 30.97485352 299.66845703 30.97485352 299.6651001 28.93313599 C299.65898246 27.51584848 299.64496515 26.098581 299.62457275 24.681427 C299.59513309 22.52667427 299.59125594 20.37318653 299.59277344 18.21826172 C299.58389099 17.0058078 299.57500854 15.79335388 299.56585693 14.54415894 C300.31274722 9.35644153 302.80734628 6.29509078 306.671875 2.890625 C311.05826554 -0.22602091 314.76561764 0.02563789 320 0 C320.89297791 -0.00570007 321.78595581 -0.01140015 322.70599365 -0.01727295 C324.59906833 -0.02672986 326.49215952 -0.03325967 328.38525391 -0.03710938 C331.27145476 -0.04678974 334.15693589 -0.07779591 337.04296875 -0.109375 C338.88280827 -0.11590764 340.72265289 -0.12115709 342.5625 -0.125 C343.42208313 -0.1373468 344.28166626 -0.1496936 345.16729736 -0.16241455 C351.0085642 -0.14087713 355.27647453 0.43386585 359.60713005 4.76273727 C364.35189607 10.44649795 364.88607133 14.86055566 364.72802734 22.1171875 C364.7289035 23.1814949 364.72977966 24.24580231 364.73068237 25.34236145 C364.72652305 28.83837885 364.67994578 32.33244539 364.6328125 35.828125 C364.62161457 38.26048739 364.61307721 40.69286336 364.60708618 43.12524414 C364.58423544 49.51077992 364.52534268 55.89548996 364.4588623 62.28070068 C364.39735984 68.80290559 364.37005405 75.32524462 364.33984375 81.84765625 C364.27559739 94.63316371 364.1744239 107.41810032 364.046875 120.203125 C364.80830811 120.19265137 365.56974121 120.18217773 366.35424805 120.17138672 C369.8142566 120.12973481 373.27421231 120.1037694 376.734375 120.078125 C377.93255859 120.06136719 379.13074219 120.04460937 380.36523438 120.02734375 C381.52216797 120.02089844 382.67910156 120.01445312 383.87109375 120.0078125 C385.46570435 119.99210205 385.46570435 119.99210205 387.0925293 119.97607422 C390.1624702 120.21200886 392.31259607 120.80516164 395.046875 122.203125 C396.69932967 125.50803435 396.80544268 128.6574822 396.046875 132.203125 C394.75752258 134.0849762 394.75752258 134.0849762 393.0324707 135.95141602 C392.07577988 136.99267136 392.07577988 136.99267136 391.09976196 138.05496216 C387.69904301 141.61351078 384.26278336 145.12978514 380.77734375 148.60546875 C380.01513016 149.36863907 379.25291656 150.13180939 378.46760559 150.91810608 C376.87131432 152.51507289 375.27377947 154.11079753 373.67504883 155.70532227 C371.22034677 158.15462236 368.77108604 160.60927404 366.32226562 163.06445312 C364.76594593 164.6201128 363.20931648 166.17546266 361.65234375 167.73046875 C360.91904343 168.4657933 360.1857431 169.20111786 359.43022156 169.95872498 C358.75224014 170.63355423 358.07425873 171.30838348 357.37573242 172.00366211 C356.77951584 172.5990831 356.18329926 173.19450409 355.5690155 173.80796814 C353.01676083 176.14730252 351.20020958 176.29476404 347.8515625 176.4609375 C342.75821186 176.99162194 340.02555045 178.85906306 336.171875 182.078125 C300.13286404 210.16017202 253.42036304 224.55164855 208.03515625 224.50390625 C206.44923291 224.50781276 204.86331059 224.51215127 203.27738953 224.51689148 C199.97729073 224.52428213 196.67729903 224.52411595 193.37719727 224.51879883 C190.04079697 224.51417159 186.7047615 224.52107967 183.3684082 224.53930664 C147.63049357 224.7327022 147.63049357 224.7327022 130.046875 221.203125 C128.29250122 220.87453491 128.29250122 220.87453491 126.50268555 220.53930664 C123.55891218 219.95156176 120.64951447 219.29349041 117.734375 218.578125 C116.70223877 218.32579102 115.67010254 218.07345703 114.60668945 217.81347656 C90.86313216 211.75006453 68.4976815 201.63045583 48.13671875 188.0390625 C47.47953857 187.60746826 46.8223584 187.17587402 46.14526367 186.73120117 C44.046875 185.203125 44.046875 185.203125 41.83325195 183.10668945 C32.90951986 175.20511281 23.61455488 176.30159569 12.359375 176.640625 C9.59039304 176.71823289 6.82451198 176.78291887 4.05448914 176.80397034 C2.34314294 176.8170746 0.63162942 176.86153338 -1.07780457 176.94346619 C-6.96854107 176.99097914 -9.80737943 175.34462636 -13.98033142 171.25175476 C-14.6313533 170.57570694 -15.28237518 169.89965912 -15.953125 169.203125 C-17.32089662 167.87719132 -18.68931825 166.55192788 -20.05834961 165.22729492 C-21.4933949 163.79874057 -22.92567332 162.36740251 -24.35546875 160.93359375 C-25.50022423 159.79027336 -25.50022423 159.79027336 -26.66810608 158.62385559 C-28.26507289 157.02756432 -29.86079753 155.43002947 -31.45532227 153.83129883 C-33.90462236 151.37659677 -36.35927404 148.92733604 -38.81445312 146.47851562 C-40.3701128 144.92219593 -41.92546266 143.36556648 -43.48046875 141.80859375 C-44.58345558 140.70864326 -44.58345558 140.70864326 -45.70872498 139.58647156 C-46.38355423 138.90849014 -47.05838348 138.23050873 -47.75366211 137.53198242 C-48.64679359 136.63765755 -48.64679359 136.63765755 -49.55796814 135.7252655 C-52.24208265 132.79684969 -52.16494694 130.15421675 -52.37890625 126.2734375 C-51.7483278 123.20732209 -50.38111687 122.13585732 -47.953125 120.203125 C-44.92871094 119.74902344 -44.92871094 119.74902344 -41.4375 119.8125 C-40.18710937 119.82539063 -38.93671875 119.83828125 -37.6484375 119.8515625 C-36.34648438 119.88507813 -35.04453125 119.91859375 -33.703125 119.953125 C-32.38570312 119.97117187 -31.06828125 119.98921875 -29.7109375 120.0078125 C-26.45760192 120.05496229 -23.20572875 120.12076456 -19.953125 120.203125 C-19.95681217 119.64689894 -19.96049934 119.09067287 -19.96429825 118.51759148 C-20.05271012 104.97128384 -20.11860857 91.42502688 -20.16037369 77.87849236 C-20.18125005 71.3274142 -20.20956936 64.77654426 -20.25488281 58.22558594 C-20.29833766 51.90377887 -20.32226173 45.5821721 -20.33263397 39.2602272 C-20.3400259 36.84807303 -20.35446048 34.43592985 -20.37604523 32.02386093 C-20.40507337 28.64571168 -20.4090811 25.26839059 -20.40722656 21.89013672 C-20.42160767 20.89247787 -20.43598877 19.89481903 -20.45080566 18.8669281 C-20.41667517 13.12297232 -19.85488653 9.72771209 -15.953125 5.203125 C-10.5280473 0.42388989 -7.08195108 0.03468724 0 0 Z " fill="#90C73C" transform="translate(67.953125,255.796875)"/>
<path d="M0 0 C24.7048066 21.90662815 51.10432147 53.6365003 55.94921875 87.55078125 C26.57921875 87.55078125 -2.79078125 87.55078125 -33.05078125 87.55078125 C-33.38078125 82.60078125 -33.71078125 77.65078125 -34.05078125 72.55078125 C-35.25891735 69.01586451 -36.18418132 66.61949569 -38.05078125 63.55078125 C-38.43878906 62.8546875 -38.82679688 62.15859375 -39.2265625 61.44140625 C-43.52274786 54.69931005 -50.59157661 50.93142516 -58.26307678 48.99128723 C-61.70200303 48.44787684 -65.08435502 48.38732175 -68.55639648 48.3737793 C-69.29541702 48.3672081 -70.03443756 48.3606369 -70.79585266 48.35386658 C-73.23369469 48.33421395 -75.67147511 48.32248432 -78.109375 48.3125 C-79.36709559 48.30638671 -79.36709559 48.30638671 -80.65022469 48.30014992 C-85.09485753 48.27931585 -89.53945981 48.26500685 -93.98413086 48.25561523 C-98.5397074 48.24460142 -103.09478868 48.21025262 -107.65019131 48.17044353 C-111.18246771 48.14408924 -114.7146299 48.13590652 -118.24699593 48.13233376 C-119.92406594 48.1275103 -121.60113236 48.11602004 -123.27810478 48.09729576 C-142.74475806 47.89357948 -159.4088569 52.63732207 -173.93383789 66.20996094 C-180.25489903 72.45114346 -184.11459238 79.67840351 -188.05078125 87.55078125 C-219.07078125 87.55078125 -250.09078125 87.55078125 -282.05078125 87.55078125 C-279.79504679 76.27210895 -279.79504679 76.27210895 -278.0546875 72.17578125 C-277.66659912 71.26223877 -277.27851074 70.34869629 -276.87866211 69.4074707 C-276.46108643 68.46476318 -276.04351074 67.52205566 -275.61328125 66.55078125 C-275.17443604 65.55328857 -274.73559082 64.5557959 -274.28344727 63.52807617 C-265.61614135 44.32885212 -253.57514575 27.72935071 -239.05078125 12.55078125 C-238.16390625 11.61105469 -237.27703125 10.67132813 -236.36328125 9.703125 C-174.87400504 -53.84175202 -66.71853613 -57.27771141 0 0 Z " fill="#D6E5EF" transform="translate(353.05078125,120.44921875)"/>
<path d="M0 0 C15.84 0 31.68 0 48 0 C48.375 13.875 48.375 13.875 48.47802734 18.18701172 C48.97083315 34.13741875 52.09872257 46.87662679 63.44921875 58.7421875 C74.08029656 68.152238 85.99855014 71.85671956 99.96875 71.34375 C112.48505807 70.51091581 123.68797849 64.82904521 132.3125 55.8125 C146.04516001 39.25999194 144.28078624 21.57641273 145 0 C181.63 0 218.26 0 256 0 C256 13.2 256 26.4 256 40 C242.75 40.25 242.75 40.25 238.58886719 40.29785156 C236.95933105 40.34377441 236.95933105 40.34377441 235.296875 40.390625 C234.18666992 40.41157227 233.07646484 40.43251953 231.93261719 40.45410156 C228.37609499 41.11613816 227.18787628 42.16962127 225 45 C224.08044397 47.82491198 224.08044397 47.82491198 225 51 C226.65813282 53.21785786 228.43704223 55.18703113 230.37109375 57.16796875 C232 59 232 59 233 62 C191.80725905 89.73372658 144.28829787 102.87583298 94.63671875 93.55224609 C68.39705104 88.05649347 45.10493149 76.88252813 23 62 C24.41266828 59.04748522 25.84205551 56.97411679 28.125 54.625 C30.37806666 52.0641974 30.96305468 51.24014455 31.5 47.75 C31.15090893 44.79637631 31.15090893 44.79637631 29 42 C25.82490018 40.94163339 23.35717617 40.79756211 20.01953125 40.68359375 C18.97128174 40.64548584 17.92303223 40.60737793 16.84301758 40.56811523 C15.51294678 40.52501221 14.18287598 40.48190918 12.8125 40.4375 C8.584375 40.293125 4.35625 40.14875 0 40 C0 26.8 0 13.6 0 0 Z " fill="#D6E5EF" transform="translate(112,336)"/>
<path d="M0 0 C0.89297791 -0.00570007 1.78595581 -0.01140015 2.70599365 -0.01727295 C4.59906833 -0.02672986 6.49215952 -0.03325967 8.38525391 -0.03710938 C11.27145476 -0.04678974 14.15693589 -0.07779591 17.04296875 -0.109375 C18.88280827 -0.11590764 20.72265289 -0.12115709 22.5625 -0.125 C23.42208313 -0.1373468 24.28166626 -0.1496936 25.16729736 -0.16241455 C31.0085642 -0.14087713 35.27647453 0.43386585 39.60713005 4.76273727 C44.35189607 10.44649795 44.88607133 14.86055566 44.72802734 22.1171875 C44.72934158 23.71364861 44.72934158 23.71364861 44.73068237 25.34236145 C44.72652305 28.83837885 44.67994578 32.33244539 44.6328125 35.828125 C44.62161457 38.26048739 44.61307721 40.69286336 44.60708618 43.12524414 C44.58423544 49.51077992 44.52534268 55.89548996 44.4588623 62.28070068 C44.39735984 68.80290559 44.37005405 75.32524462 44.33984375 81.84765625 C44.27559739 94.63316371 44.1744239 107.41810032 44.046875 120.203125 C44.80830811 120.18741455 45.56974121 120.1717041 46.35424805 120.15551758 C49.8142144 120.09304047 53.2740619 120.05409328 56.734375 120.015625 C57.93255859 119.99048828 59.13074219 119.96535156 60.36523438 119.93945312 C61.52216797 119.92978516 62.67910156 119.92011719 63.87109375 119.91015625 C64.93416748 119.8944458 65.99724121 119.87873535 67.0925293 119.86254883 C70.47164831 120.25209275 72.32678464 121.19517046 75.046875 123.203125 C76.55576969 126.22091437 76.54713776 127.82635137 76.046875 131.203125 C74.72593689 132.97070312 74.72593689 132.97070312 72.97631836 134.859375 C70.40702409 137.69032099 67.91020941 140.54774607 65.49047852 143.5078125 C37.83686121 176.91000353 37.83686121 176.91000353 20.9921875 178.875 C17.38312104 179.12618583 13.84710548 179.11709855 10.234375 178.953125 C9.37675568 178.91815918 8.51913635 178.88319336 7.63552856 178.84716797 C5.16786782 178.703298 2.73194657 178.47700306 0.27734375 178.1875 C-0.7970546 178.06529083 -0.7970546 178.06529083 -1.89315796 177.94061279 C-8.07908497 176.87627497 -11.59744575 173.53301342 -15.953125 169.203125 C-16.62458054 168.55538116 -17.29603607 167.90763733 -17.98783875 167.24026489 C-20.13036005 165.1572857 -22.24548194 163.04950315 -24.35546875 160.93359375 C-25.50022423 159.79027336 -25.50022423 159.79027336 -26.66810608 158.62385559 C-28.26507289 157.02756432 -29.86079753 155.43002947 -31.45532227 153.83129883 C-33.90462236 151.37659677 -36.35927404 148.92733604 -38.81445312 146.47851562 C-40.3701128 144.92219593 -41.92546266 143.36556648 -43.48046875 141.80859375 C-44.58345558 140.70864326 -44.58345558 140.70864326 -45.70872498 139.58647156 C-46.38355423 138.90849014 -47.05838348 138.23050873 -47.75366211 137.53198242 C-48.64679359 136.63765755 -48.64679359 136.63765755 -49.55796814 135.7252655 C-52.24208265 132.79684969 -52.16494694 130.15421675 -52.37890625 126.2734375 C-51.7483278 123.20732209 -50.38111687 122.13585732 -47.953125 120.203125 C-44.92871094 119.74902344 -44.92871094 119.74902344 -41.4375 119.8125 C-40.18710937 119.82539063 -38.93671875 119.83828125 -37.6484375 119.8515625 C-36.34648438 119.88507813 -35.04453125 119.91859375 -33.703125 119.953125 C-32.38570312 119.97117187 -31.06828125 119.98921875 -29.7109375 120.0078125 C-26.45760192 120.05496229 -23.20572875 120.12076456 -19.953125 120.203125 C-19.95681217 119.64689894 -19.96049934 119.09067287 -19.96429825 118.51759148 C-20.05271012 104.97128384 -20.11860857 91.42502688 -20.16037369 77.87849236 C-20.18125005 71.3274142 -20.20956936 64.77654426 -20.25488281 58.22558594 C-20.29833766 51.90377887 -20.32226173 45.5821721 -20.33263397 39.2602272 C-20.3400259 36.84807303 -20.35446048 34.43592985 -20.37604523 32.02386093 C-20.40507337 28.64571168 -20.4090811 25.26839059 -20.40722656 21.89013672 C-20.42160767 20.89247787 -20.43598877 19.89481903 -20.45080566 18.8669281 C-20.41667517 13.12297232 -19.85488653 9.72771209 -15.953125 5.203125 C-10.5280473 0.42388989 -7.08195108 0.03468724 0 0 Z " fill="#F99F19" transform="translate(67.953125,255.796875)"/>
<path d="M0 0 C0.89297791 -0.00570007 1.78595581 -0.01140015 2.70599365 -0.01727295 C4.59906833 -0.02672986 6.49215952 -0.03325967 8.38525391 -0.03710938 C11.27145476 -0.04678974 14.15693589 -0.07779591 17.04296875 -0.109375 C18.88280827 -0.11590764 20.72265289 -0.12115709 22.5625 -0.125 C23.42208313 -0.1373468 24.28166626 -0.1496936 25.16729736 -0.16241455 C31.0085642 -0.14087713 35.27647453 0.43386585 39.60713005 4.76273727 C44.35189607 10.44649795 44.88607133 14.86055566 44.72802734 22.1171875 C44.72934158 23.71364861 44.72934158 23.71364861 44.73068237 25.34236145 C44.72652305 28.83837885 44.67994578 32.33244539 44.6328125 35.828125 C44.62161457 38.26048739 44.61307721 40.69286336 44.60708618 43.12524414 C44.58423544 49.51077992 44.52534268 55.89548996 44.4588623 62.28070068 C44.39735984 68.80290559 44.37005405 75.32524462 44.33984375 81.84765625 C44.27559739 94.63316371 44.1744239 107.41810032 44.046875 120.203125 C44.80830811 120.19265137 45.56974121 120.18217773 46.35424805 120.17138672 C49.8142566 120.12973481 53.27421231 120.1037694 56.734375 120.078125 C57.93255859 120.06136719 59.13074219 120.04460937 60.36523438 120.02734375 C61.52216797 120.02089844 62.67910156 120.01445312 63.87109375 120.0078125 C65.46570435 119.99210205 65.46570435 119.99210205 67.0925293 119.97607422 C70.1624702 120.21200886 72.31259607 120.80516164 75.046875 122.203125 C76.69932967 125.50803435 76.80544268 128.6574822 76.046875 132.203125 C74.75752258 134.0849762 74.75752258 134.0849762 73.0324707 135.95141602 C72.39467682 136.64558624 71.75688293 137.33975647 71.09976196 138.05496216 C67.69904301 141.61351078 64.26278336 145.12978514 60.77734375 148.60546875 C60.01513016 149.36863907 59.25291656 150.13180939 58.46760559 150.91810608 C56.87131432 152.51507289 55.27377947 154.11079753 53.67504883 155.70532227 C51.22034677 158.15462236 48.77108604 160.60927404 46.32226562 163.06445312 C44.76594593 164.6201128 43.20931648 166.17546266 41.65234375 167.73046875 C40.55239326 168.83345558 40.55239326 168.83345558 39.43022156 169.95872498 C38.75224014 170.63355423 38.07425873 171.30838348 37.37573242 172.00366211 C36.77951584 172.5990831 36.18329926 173.19450409 35.5690155 173.80796814 C30.80774198 178.17203532 21.82121689 176.59479524 15.67285156 176.66308594 C13.84934122 176.6896262 12.02597906 176.73047814 10.203125 176.78613281 C7.56449153 176.86571369 4.92872403 176.89847003 2.2890625 176.921875 C1.4835495 176.95486694 0.6780365 176.98785889 -0.15188599 177.02185059 C-5.98202264 177.00151405 -8.82987816 175.30280772 -12.96264648 171.26174927 C-13.61950439 170.58240326 -14.2763623 169.90305725 -14.953125 169.203125 C-16.35184586 167.846954 -17.75086075 166.49108621 -19.15014648 165.13549805 C-20.62751198 163.66462829 -22.10210415 162.19096883 -23.57421875 160.71484375 C-24.7522683 159.53822929 -24.7522683 159.53822929 -25.95411682 158.33784485 C-27.59816217 156.69447524 -29.24096453 155.04986125 -30.88256836 153.40405273 C-33.4042972 150.87692352 -35.93137664 148.35523212 -38.45898438 145.83398438 C-40.06021695 144.23209176 -41.66113971 142.62988937 -43.26171875 141.02734375 C-44.01891708 140.27216965 -44.77611542 139.51699554 -45.55625916 138.73893738 C-46.25110916 138.04093521 -46.94595917 137.34293304 -47.66186523 136.6237793 C-48.27505112 136.00979782 -48.888237 135.39581635 -49.52000427 134.76322937 C-51.51720496 132.58906396 -51.93354222 131.34999584 -52.328125 128.390625 C-51.94141181 125.10356293 -51.33148597 123.50382876 -48.91894531 121.22631836 C-44.22310335 118.78217111 -38.28312293 119.71770086 -33.140625 119.890625 C-31.87541016 119.91318359 -30.61019531 119.93574219 -29.30664062 119.95898438 C-26.18759881 120.01783422 -23.07096598 120.1000113 -19.953125 120.203125 C-19.95681217 119.64689894 -19.96049934 119.09067287 -19.96429825 118.51759148 C-20.05271012 104.97128384 -20.11860857 91.42502688 -20.16037369 77.87849236 C-20.18125005 71.3274142 -20.20956936 64.77654426 -20.25488281 58.22558594 C-20.29833766 51.90377887 -20.32226173 45.5821721 -20.33263397 39.2602272 C-20.3400259 36.84807303 -20.35446048 34.43592985 -20.37604523 32.02386093 C-20.40507337 28.64571168 -20.4090811 25.26839059 -20.40722656 21.89013672 C-20.42160767 20.89247787 -20.43598877 19.89481903 -20.45080566 18.8669281 C-20.41667517 13.12297232 -19.85488653 9.72771209 -15.953125 5.203125 C-10.5280473 0.42388989 -7.08195108 0.03468724 0 0 Z " fill="#F99F19" transform="translate(387.953125,255.796875)"/>
<path d="M0 0 C60.37168807 -0.94315648 115.2787224 12.64486976 162 53 C162.91007813 53.77988281 163.82015625 54.55976562 164.7578125 55.36328125 C167.22066132 57.52916276 169.61995399 59.74344694 172 62 C172.49564453 62.46841309 172.99128906 62.93682617 173.50195312 63.41943359 C181.84733145 71.36173927 189.13206378 79.76105198 196 89 C196.4237793 89.55768066 196.84755859 90.11536133 197.28417969 90.68994141 C204.5421633 100.24916887 210.47749079 110.35342137 216 121 C216.39074707 121.74878418 216.78149414 122.49756836 217.18408203 123.26904297 C233.31911338 154.58441015 240.45896006 188.64086116 240.3125 223.6875 C240.30926727 225.08088089 240.30926727 225.08088089 240.30596924 226.50241089 C240.25610813 239.89069476 239.89233116 252.88139636 237 266 C236.79600586 266.97598145 236.59201172 267.95196289 236.38183594 268.95751953 C230.59820558 296.29716958 220.38849763 321.01917062 206 345 C196.1 344.67 186.2 344.34 176 344 C177.1226988 336.14110837 177.1226988 336.14110837 178.78515625 333.30078125 C179.14706055 332.65923096 179.50896484 332.01768066 179.88183594 331.35668945 C180.27145508 330.68210693 180.66107422 330.00752441 181.0625 329.3125 C186.28247578 319.87356789 190.19743331 310.07680173 194 300 C194.48924274 298.73945109 194.9787953 297.47902236 195.46875 296.21875 C200.95097377 281.64405754 203.8044753 266.37585954 206 251 C206.09716309 250.36336426 206.19432617 249.72672852 206.29443359 249.07080078 C213.76239051 193.28234704 196.3737454 135.53806191 163.4375 90.625 C161.97381397 88.73789051 160.49443438 86.86285397 159 85 C158.195625 83.99195312 157.39125 82.98390625 156.5625 81.9453125 C145.24917662 68.04559725 132.50140613 55.53637817 118 45 C116.43378906 43.85144531 116.43378906 43.85144531 114.8359375 42.6796875 C96.43339715 29.57415628 77.08376149 19.82536743 55.6875 12.6875 C55.04978668 12.47440186 54.41207336 12.26130371 53.7550354 12.04174805 C45.58117241 9.32786927 37.38758778 6.95459176 29 5 C28.18539307 4.80801025 27.37078613 4.61602051 26.53149414 4.41821289 C17.84218097 2.42342944 8.85729651 1.85481096 0 1 C0 0.67 0 0.34 0 0 Z " fill="#4B9640" transform="translate(256,32)"/>
<path d="M0 0 C32.01 0 64.02 0 97 0 C97 43.31758996 97 43.31758996 82.25 58.93359375 C71.9972745 68.34972533 59.72740978 72.66814704 45.88330078 72.47070312 C32.72789185 71.87402837 20.52084601 65.5308389 11.55859375 55.9453125 C-2.22836973 38.73752349 0 22.55811503 0 0 Z " fill="#4B9641" transform="translate(160,336)"/>
<path d="M0 0 C4.58980814 -0.07447267 9.17926014 -0.12875322 13.76953125 -0.16479492 C15.32916394 -0.17982869 16.88875472 -0.20026135 18.44824219 -0.22631836 C20.69737116 -0.26294211 22.94593847 -0.27978021 25.1953125 -0.29296875 C25.8861795 -0.30845261 26.57704651 -0.32393646 27.28884888 -0.33988953 C32.78005051 -0.34177412 36.6119967 0.62823626 40.57050705 4.55982685 C45.30515515 10.24458902 45.83908809 14.66240073 45.68115234 21.9140625 C45.68246658 23.51052361 45.68246658 23.51052361 45.68380737 25.13923645 C45.67964805 28.63525385 45.63307078 32.12932039 45.5859375 35.625 C45.57473957 38.05736239 45.56620221 40.48973836 45.56021118 42.92211914 C45.53736044 49.30765492 45.47846768 55.69236496 45.4119873 62.07757568 C45.35048484 68.59978059 45.32317905 75.12211962 45.29296875 81.64453125 C45.22872239 94.43003871 45.1275489 107.21497532 45 120 C45.76143311 119.98952637 46.52286621 119.97905273 47.30737305 119.96826172 C50.7673816 119.92660981 54.22733731 119.9006444 57.6875 119.875 C58.88568359 119.85824219 60.08386719 119.84148437 61.31835938 119.82421875 C62.47529297 119.81777344 63.63222656 119.81132812 64.82421875 119.8046875 C66.41882935 119.78897705 66.41882935 119.78897705 68.0456543 119.77294922 C71.1155952 120.00888386 73.26572107 120.60203664 76 122 C77.65245467 125.30490935 77.75856768 128.4543572 77 132 C75.71064758 133.8818512 75.71064758 133.8818512 73.9855957 135.74829102 C73.34780182 136.44246124 72.71000793 137.13663147 72.05288696 137.85183716 C68.65216801 141.41038578 65.21590836 144.92666014 61.73046875 148.40234375 C60.96825516 149.16551407 60.20604156 149.92868439 59.42073059 150.71498108 C57.82443932 152.31194789 56.22690447 153.90767253 54.62817383 155.50219727 C52.17347177 157.95149736 49.72421104 160.40614904 47.27539062 162.86132812 C45.71907093 164.4169878 44.16244148 165.97233766 42.60546875 167.52734375 C41.87216843 168.2626683 41.1388681 168.99799286 40.38334656 169.75559998 C39.70536514 170.43042923 39.02738373 171.10525848 38.32885742 171.80053711 C37.43453255 172.69366859 37.43453255 172.69366859 36.5221405 173.60484314 C33.16957655 176.67772149 29.66222502 176.12788306 25.3671875 176.09765625 C24.23943405 176.09553383 24.23943405 176.09553383 23.08889771 176.09336853 C20.6842249 176.08776465 18.27964473 176.07521157 15.875 176.0625 C14.24609509 176.0574855 12.61718873 176.0529225 10.98828125 176.04882812 C6.99215173 176.03779397 2.99609158 176.02052679 -1 176 C-0.36030273 175.52256348 0.27939453 175.04512695 0.93847656 174.55322266 C5.20363921 170.99619945 9.06408889 167.07835259 12.984375 163.1484375 C14.26867401 161.86557358 14.26867401 161.86557358 15.57891846 160.55679321 C17.38212979 158.75426076 19.18408538 156.95047133 20.98486328 155.14550781 C23.7505016 152.37449742 26.52145433 149.60888184 29.29296875 146.84375 C31.04459174 145.09146656 32.7959047 143.33887314 34.546875 141.5859375 C35.79522125 140.34062759 35.79522125 140.34062759 37.06878662 139.07015991 C38.21567963 137.91853867 38.21567963 137.91853867 39.38574219 136.74365234 C40.06127136 136.06732758 40.73680054 135.39100281 41.43280029 134.69418335 C43.55325113 132.40192125 43.97097674 131.26701401 44.3125 128.125 C44.27025734 124.96999956 44.27025734 124.96999956 42.37402344 122.84277344 C39.33038584 120.48022957 37.52876 120.46280679 33.703125 120.390625 C32.49785156 120.35839844 31.29257812 120.32617188 30.05078125 120.29296875 C28.79652344 120.27878906 27.54226563 120.26460938 26.25 120.25 C24.98027344 120.22035156 23.71054687 120.19070313 22.40234375 120.16015625 C19.26816515 120.08946049 16.13473044 120.03675988 13 120 C12.99761165 119.45500319 12.99522329 118.91000639 12.99276257 118.34849453 C12.93354739 105.06869774 12.85776839 91.78908366 12.76428509 78.50948238 C12.71957481 72.08747044 12.68031986 65.66552204 12.65356445 59.2434082 C12.62753845 53.0446787 12.58714034 46.84619361 12.53681374 40.64761543 C12.5201404 38.28379928 12.50862905 35.91994085 12.50238609 33.55607414 C12.49275043 30.24277044 12.46469614 26.93009274 12.43237305 23.61694336 C12.43380814 22.64158127 12.43524323 21.66621918 12.4367218 20.66130066 C12.35890321 15.01373389 11.71868757 10.98629818 9 6 C6.20487587 3.34821557 3.43585328 1.6705104 0 0 Z " fill="#EF6423" transform="translate(387,256)"/>
<path d="M0 0 C4.58980814 -0.07447267 9.17926014 -0.12875322 13.76953125 -0.16479492 C15.32916394 -0.17982869 16.88875472 -0.20026135 18.44824219 -0.22631836 C20.69737116 -0.26294211 22.94593847 -0.27978021 25.1953125 -0.29296875 C25.8861795 -0.30845261 26.57704651 -0.32393646 27.28884888 -0.33988953 C32.78005051 -0.34177412 36.6119967 0.62823626 40.57050705 4.55982685 C45.30515515 10.24458902 45.83908809 14.66240073 45.68115234 21.9140625 C45.68246658 23.51052361 45.68246658 23.51052361 45.68380737 25.13923645 C45.67964805 28.63525385 45.63307078 32.12932039 45.5859375 35.625 C45.57473957 38.05736239 45.56620221 40.48973836 45.56021118 42.92211914 C45.53736044 49.30765492 45.47846768 55.69236496 45.4119873 62.07757568 C45.35048484 68.59978059 45.32317905 75.12211962 45.29296875 81.64453125 C45.22872239 94.43003871 45.1275489 107.21497532 45 120 C45.76143311 119.98428955 46.52286621 119.9685791 47.30737305 119.95239258 C50.7673394 119.88991547 54.2271869 119.85096828 57.6875 119.8125 C58.88568359 119.78736328 60.08386719 119.76222656 61.31835938 119.73632812 C62.47529297 119.72666016 63.63222656 119.71699219 64.82421875 119.70703125 C65.88729248 119.6913208 66.95036621 119.67561035 68.0456543 119.65942383 C71.42477331 120.04896775 73.27990964 120.99204546 76 123 C77.50889469 126.01778937 77.50026276 127.62322637 77 131 C75.68647766 132.76757812 75.68647766 132.76757812 73.94262695 134.65625 C73.30434967 135.35959473 72.66607239 136.06293945 72.00845337 136.78759766 C71.34566376 137.51769043 70.68287415 138.2477832 70 139 C68.77783275 140.43067058 67.56065064 141.86561418 66.34838867 143.3046875 C37.68020605 176.88778789 37.68020605 176.88778789 23 178.42578125 C14.91541687 178.89917427 6.86735165 177.82300614 -1 176 C-0.36030273 175.52256348 0.27939453 175.04512695 0.93847656 174.55322266 C5.20363921 170.99619945 9.06408889 167.07835259 12.984375 163.1484375 C14.26867401 161.86557358 14.26867401 161.86557358 15.57891846 160.55679321 C17.38212979 158.75426076 19.18408538 156.95047133 20.98486328 155.14550781 C23.7505016 152.37449742 26.52145433 149.60888184 29.29296875 146.84375 C31.04459174 145.09146656 32.7959047 143.33887314 34.546875 141.5859375 C35.79522125 140.34062759 35.79522125 140.34062759 37.06878662 139.07015991 C38.21567963 137.91853867 38.21567963 137.91853867 39.38574219 136.74365234 C40.06127136 136.06732758 40.73680054 135.39100281 41.43280029 134.69418335 C43.55325113 132.40192125 43.97097674 131.26701401 44.3125 128.125 C44.27025734 124.96999956 44.27025734 124.96999956 42.37402344 122.84277344 C39.33038584 120.48022957 37.52876 120.46280679 33.703125 120.390625 C32.49785156 120.35839844 31.29257813 120.32617188 30.05078125 120.29296875 C28.79652344 120.27878906 27.54226562 120.26460938 26.25 120.25 C24.98027344 120.22035156 23.71054688 120.19070313 22.40234375 120.16015625 C19.26816515 120.08946049 16.13473044 120.03675988 13 120 C12.99761165 119.45500319 12.99522329 118.91000639 12.99276257 118.34849453 C12.93354739 105.06869774 12.85776839 91.78908366 12.76428509 78.50948238 C12.71957481 72.08747044 12.68031986 65.66552204 12.65356445 59.2434082 C12.62753845 53.0446787 12.58714034 46.84619361 12.53681374 40.64761543 C12.5201404 38.28379928 12.50862905 35.91994085 12.50238609 33.55607414 C12.49275043 30.24277044 12.46469614 26.93009274 12.43237305 23.61694336 C12.43380814 22.64158127 12.43524323 21.66621918 12.4367218 20.66130066 C12.35890321 15.01373389 11.71868757 10.98629818 9 6 C6.20487587 3.34821557 3.43585328 1.6705104 0 0 Z " fill="#EF6423" transform="translate(67,256)"/>
<path d="M0 0 C0.74588379 -0.00511093 1.49176758 -0.01022186 2.26025391 -0.01548767 C4.70109308 -0.02927205 7.14164631 -0.02843532 9.58251953 -0.02612305 C11.29590965 -0.03001625 13.00929882 -0.03435219 14.72268677 -0.03910828 C18.30506526 -0.04654663 21.88734516 -0.04629668 25.46972656 -0.04101562 C30.0378768 -0.0352257 34.60562097 -0.05215203 39.17370415 -0.0753603 C42.71011678 -0.09016366 46.24643311 -0.09096037 49.78287125 -0.08785057 C51.46601286 -0.08836052 53.14916034 -0.09353626 54.83227158 -0.10366249 C67.55467973 -0.17081825 79.12997416 0.43945187 89.09033203 9.2746582 C97.71421919 19.39620516 98.09033203 26.18644133 98.09033203 40.2746582 C46.94033203 40.2746582 -4.20966797 40.2746582 -56.90966797 40.2746582 C-51.93075732 25.33792626 -41.63212553 14.69070333 -27.90966797 7.2746582 C-18.81196666 2.93309695 -10.14041599 -0.03668067 0 0 Z " fill="#4B9641" transform="translate(221.90966796875,167.725341796875)"/>
<path d="M0 0 C5.54695864 3.80594243 10.13111461 9.0110963 12.140625 15.46875 C12.4525845 18.66095851 12.46851447 21.84113667 12.4765625 25.046875 C12.4832193 25.97288513 12.4898761 26.89889526 12.49673462 27.85296631 C12.50684153 29.80967225 12.51155225 31.76641252 12.51123047 33.72314453 C12.51559005 36.6949247 12.55189272 39.6652024 12.58984375 42.63671875 C12.59571528 44.5442658 12.59968242 46.45181984 12.6015625 48.359375 C12.61593353 49.23781067 12.63030457 50.11624634 12.64511108 51.02130127 C12.58982294 58.60545963 10.47313298 65.86463096 4.953125 71.34375 C-0.83096692 76.64788535 -7.73704441 78.11460486 -15.44921875 77.8046875 C-22.97299868 76.75599208 -27.30202683 72.39994336 -32.1953125 66.8828125 C-36.1232334 61.18456105 -36.17852686 55.42870057 -36.1953125 48.7578125 C-36.2019693 47.83084564 -36.2086261 46.90387878 -36.21548462 45.94882202 C-36.22557883 43.99389623 -36.23030264 42.0389362 -36.22998047 40.08398438 C-36.23435098 37.11009345 -36.27069746 34.13769103 -36.30859375 31.1640625 C-36.31446331 29.25781753 -36.31843177 27.35156557 -36.3203125 25.4453125 C-36.33468353 24.5648526 -36.34905457 23.6843927 -36.36386108 22.7772522 C-36.31147171 15.61757134 -34.45010368 10.38853366 -29.67578125 5.0078125 C-28.56009766 4.06035156 -28.56009766 4.06035156 -27.421875 3.09375 C-26.68066406 2.44664062 -25.93945312 1.79953125 -25.17578125 1.1328125 C-17.68122943 -4.25113198 -8.10718954 -4.08275732 0 0 Z " fill="#D6E5EE" transform="translate(251.859375,234.53125)"/>
<path d="M0 0 C9.05460147 4.68341456 14.06827195 10.89231584 17.25 20.4375 C18.40208863 29.75629288 16.45518892 36.65857021 11.25 44.4375 C6.28792854 50.44993696 -0.86724275 53.76259138 -8.51953125 54.8203125 C-17.16300999 55.18297594 -23.39691564 52.56178112 -30.0625 47.1875 C-34.98214783 42.64025579 -38.37014799 36.58473666 -38.98828125 29.8359375 C-39.24163201 19.51522758 -36.70451364 12.75574537 -29.6875 5.1640625 C-21.73572147 -1.9219982 -9.89705325 -4.03468721 0 0 Z " fill="#4C9642" transform="translate(310.75,105.5625)"/>
<path d="M0 0 C5.57101127 3.82244569 10.05798789 9.00853099 12.140625 15.46875 C12.92373761 20.28283172 12.83606382 23.46649994 10.015625 27.53125 C6.63777287 29.80762861 5.13084509 30.1479364 1.140625 29.46875 C-1.5379457 27.91167432 -2.66408903 26.98810967 -3.765625 24.05859375 C-4.1620135 22.2878846 -4.55784532 20.51705075 -4.953125 18.74609375 C-5.66675499 16.35047292 -5.66675499 16.35047292 -7.7265625 15.1484375 C-11.01174379 14.1015116 -13.5548183 14.67320857 -16.859375 15.46875 C-19.38983574 19.2644411 -19.14778303 22.3180298 -19.125 26.71484375 C-19.12691345 27.52236588 -19.1288269 28.329888 -19.13079834 29.16188049 C-19.13215876 30.86907259 -19.12847229 32.57627507 -19.12011719 34.28344727 C-19.10942936 36.89297829 -19.12000993 39.50181872 -19.1328125 42.11132812 C-19.13149061 43.77083485 -19.1289276 45.43034115 -19.125 47.08984375 C-19.12904846 47.86911728 -19.13309692 48.64839081 -19.13726807 49.45127869 C-19.11256334 54.78013171 -19.11256334 54.78013171 -16.859375 59.46875 C-14.08837106 60.85425197 -11.9259044 60.6564967 -8.859375 60.46875 C-4.83814872 57.78793248 -4.86228449 55.41199239 -3.80078125 50.87890625 C-2.66463268 47.97017735 -1.53199105 47.02527358 1.140625 45.46875 C5.16758137 44.78331062 6.63798669 45.11908857 10.015625 47.46875 C12.23055897 50.59571561 12.8285499 52.46610203 12.5546875 56.29296875 C11.12216221 63.82048374 7.33923686 69.94841843 1.140625 74.46875 C-5.34383426 77.85561441 -12.90623044 78.8320008 -19.98828125 76.8828125 C-26.49566408 74.10666875 -32.17450751 68.42644144 -34.94238281 61.92480469 C-36.1224629 57.47719722 -36.18378212 53.34017402 -36.1953125 48.7578125 C-36.2019693 47.83084564 -36.2086261 46.90387878 -36.21548462 45.94882202 C-36.22557883 43.99389623 -36.23030264 42.0389362 -36.22998047 40.08398438 C-36.23435098 37.11009345 -36.27069746 34.13769103 -36.30859375 31.1640625 C-36.31446331 29.25781753 -36.31843177 27.35156557 -36.3203125 25.4453125 C-36.33468353 24.5648526 -36.34905457 23.6843927 -36.36386108 22.7772522 C-36.31147171 15.61757134 -34.45010368 10.38853366 -29.67578125 5.0078125 C-28.56009766 4.06035156 -28.56009766 4.06035156 -27.421875 3.09375 C-26.68066406 2.44664062 -25.93945312 1.79953125 -25.17578125 1.1328125 C-17.68122943 -4.25113198 -8.10718954 -4.08275732 0 0 Z " fill="#D5E5ED" transform="translate(195.859375,234.53125)"/>
<path d="M0 0 C0.91201172 -0.01095703 1.82402344 -0.02191406 2.76367188 -0.03320312 C8.87096066 0.03246665 13.60132131 1.08126233 18.6875 4.5625 C23.54750761 9.67829748 25.2206869 13.9874523 25.06640625 20.9609375 C24.25158373 26.55549213 21.16996565 30.18850745 17.125 33.9375 C12.1630094 36.28316828 7.10253469 36.8965734 1.6875 37.5625 C1.3575 38.5525 1.0275 39.5425 0.6875 40.5625 C2.54955078 40.51029297 2.54955078 40.51029297 4.44921875 40.45703125 C6.09113226 40.42888416 7.73306046 40.40158499 9.375 40.375 C10.59993164 40.33729492 10.59993164 40.33729492 11.84960938 40.29882812 C16.62765822 40.24079514 19.82173093 40.41346129 23.6875 43.5625 C25.09207737 46.37165474 24.93645157 48.45060534 24.6875 51.5625 C22.90765595 54.6984157 22.16441793 55.40352736 18.6875 56.5625 C14.55721894 56.78892956 10.42681774 56.79073569 6.29077148 56.80273438 C4.26048966 56.8124498 2.2312167 56.84349209 0.20117188 56.875 C-1.08080078 56.88015625 -2.36277344 56.8853125 -3.68359375 56.890625 C-4.85849365 56.8999707 -6.03339355 56.90931641 -7.24389648 56.91894531 C-10.60267967 56.52879308 -11.95572237 55.94615837 -14.3125 53.5625 C-16.53147445 46.90557665 -16.55122954 37.5970537 -14.4765625 30.83984375 C-11.6980981 26.00084032 -7.48130401 22.60867026 -2.3125 20.5625 C1.02644162 19.92424297 4.29150426 19.63904908 7.6875 19.5625 C7.6875 18.9025 7.6875 18.2425 7.6875 17.5625 C5.82544922 17.54123047 5.82544922 17.54123047 3.92578125 17.51953125 C2.28381757 17.472618 0.64189163 17.42437068 -1 17.375 C-2.22493164 17.36629883 -2.22493164 17.36629883 -3.47460938 17.35742188 C-7.85774676 17.19771242 -9.78937929 16.96877475 -13.35546875 14.19921875 C-15.3125 11.5625 -15.3125 11.5625 -15.9375 8.5625 C-14.12296665 -0.1472601 -7.42232567 -0.19164414 0 0 Z " fill="#D6E5ED" transform="translate(287.3125,255.4375)"/>
<path d="M0 0 C1.4867077 0.09360872 2.97369835 0.18283097 4.4609375 0.26757812 C8.06195724 0.48218316 11.65553544 0.75550743 15.25 1.0625 C11.57115101 4.8261043 7.83487283 7.93707203 3.4375 10.8125 C2.78297852 11.24296631 2.12845703 11.67343262 1.45410156 12.11694336 C-36.28228824 36.62045111 -78.22465877 49.63048182 -123.25 49.1875 C-125.05598454 49.17743609 -126.8619746 49.16831635 -128.66796875 49.16015625 C-133.02878587 49.13844514 -137.38932923 49.10410945 -141.75 49.0625 C-141.75 48.7325 -141.75 48.4025 -141.75 48.0625 C-140.54730469 47.98773438 -139.34460938 47.91296875 -138.10546875 47.8359375 C-100.45074298 45.09857261 -54.93408925 32.6165451 -26.11279297 6.69018555 C-17.35466064 -0.91125443 -10.95781229 -0.95419152 0 0 Z " fill="#4B9640" transform="translate(395.75,430.9375)"/>
<path d="M0 0 C4.52403755 2.23495188 7.59538151 4.61447598 9.375 9.4375 C10.26329854 15.862572 10.30085853 22.02252272 6.375 27.4375 C1.07441393 32.33034868 -3.03036634 33.91751342 -10.16015625 33.75 C-15.22663053 33.10765778 -18.21270589 30.0487001 -21.4375 26.375 C-24.99260497 21.6010019 -25.31683596 17.21240851 -24.625 11.4375 C-22.56995812 5.7079539 -18.67557874 2.47121916 -13.75 -0.8125 C-8.90863796 -2.52121602 -4.67224417 -1.8113692 0 0 Z " fill="#4D9744" transform="translate(256.625,126.5625)"/>
<path d="M0 0 C0.98613281 0.17208984 0.98613281 0.17208984 1.9921875 0.34765625 C2.65476563 0.43917969 3.31734375 0.53070313 4 0.625 C6.68069146 1.75223637 7.41783782 2.86776373 8.8671875 5.41015625 C9.16006401 8.25547922 9.28796204 10.87544506 9.265625 13.71875 C9.26849518 14.5224855 9.27136536 15.32622101 9.27432251 16.15431213 C9.27636063 17.85133571 9.27084835 19.54838291 9.25830078 21.24536133 C9.24226378 23.83533626 9.25814635 26.42374581 9.27734375 29.01367188 C9.27536086 30.66536801 9.27151624 32.31706318 9.265625 33.96875 C9.27473404 35.12521278 9.27473404 35.12521278 9.2840271 36.30503845 C9.22509236 40.83883992 8.69516908 43.81369203 5.8671875 47.41015625 C3.05803276 48.81473362 0.97908216 48.65910782 -2.1328125 48.41015625 C-5.2687282 46.6303122 -5.97383986 45.88707418 -7.1328125 42.41015625 C-7.40970747 37.15896576 -7.44620471 31.9081974 -7.48291016 26.65039062 C-7.49947892 24.9103458 -7.52678139 23.1703693 -7.56494141 21.43066406 C-7.61978131 18.91565839 -7.6415911 16.40224218 -7.65625 13.88671875 C-7.67891937 13.11260651 -7.70158875 12.33849426 -7.72494507 11.54092407 C-7.70900142 7.45320935 -7.31754005 5.6414416 -4.73339844 2.40600586 C-2.1328125 0.41015625 -2.1328125 0.41015625 0 0 Z " fill="#91C83E" transform="translate(239.1328125,247.58984375)"/>
<path d="M0 0 C3.00245308 1.80147185 5.40693472 3.81386943 7 7 C7.49893401 11.36210879 8.00145931 15.96102884 6.0234375 19.98828125 C3.79205828 22.74670403 1.41786722 25.02346651 -2 26 C-6.73679066 26.4583991 -9.02668629 26.47747465 -13.3125 24.375 C-17.35070586 20.80635297 -18.77134963 17.82920294 -19.4375 12.5 C-18.7503907 7.00312563 -16.3398567 4.21521886 -12.3125 0.5625 C-7.88371814 -1.52654805 -4.64708965 -1.46051389 0 0 Z " fill="#4E9744" transform="translate(219,134)"/>
<path d="M0 0 C3.64331077 1.61924923 6.20425519 3.40851039 8 7 C8.66298964 10.81765466 8.87514728 14.35736245 7.015625 17.84765625 C3.81540491 21.86768581 1.13181393 23.72193731 -3.875 24.375 C-7.93145679 23.88822519 -9.88880113 22.6272346 -13 20 C-15.34587502 16.67037094 -16.27097147 14.02573957 -16.125 10 C-15.37522702 5.80772095 -13.38526145 3.59102351 -10.03515625 1.06640625 C-6.42459684 -0.82549916 -4.03429738 -0.58562381 0 0 Z " fill="#4E9845" transform="translate(189,147)"/>
<path d="M0 0 C3.55247432 0.87379409 4.94828114 2.4927342 6.9375 5.4765625 C7.63597125 8.3162489 7.63597125 10.6368761 6.9375 13.4765625 C4.94828114 16.4603908 3.55247432 18.07933091 0 18.953125 C-3.92313492 19.23547183 -5.73362371 18.69581336 -9.0625 16.4765625 C-11.28175086 13.14768621 -11.82140933 11.33719742 -11.5390625 7.4140625 C-10.07519871 1.46261629 -5.59135555 -0.40240816 0 0 Z " fill="#4E9744" transform="translate(166.0625,170.5234375)"/>
</svg>
