<?xml version="1.0" standalone="no"?>
<!DOCTYPE svg PUBLIC "-//W3C//DTD SVG 20010904//EN"
 "http://www.w3.org/TR/2001/REC-SVG-20010904/DTD/svg10.dtd">
<svg version="1.0" xmlns="http://www.w3.org/2000/svg"
 width="183.000000pt" height="276.000000pt" viewBox="0 0 183.000000 276.000000"
 preserveAspectRatio="xMidYMid meet">

<g transform="translate(0.000000,276.000000) scale(0.100000,-0.100000)"
fill="#000000" stroke="none">
<path d="M835 2430 c-4 -6 -15 -8 -26 -5 -11 4 -38 4 -60 0 -39 -7 -85 -43
-131 -102 -21 -27 -11 -39 12 -13 23 26 126 53 151 39 11 -5 19 -7 19 -4 0 13
58 -26 83 -57 20 -24 26 -40 22 -57 -4 -14 0 -30 10 -41 9 -9 20 -31 25 -48
l9 -32 -27 14 c-65 32 -148 30 -139 -4 2 -9 0 -25 -5 -34 -25 -45 29 -79 119
-74 l58 3 3 -43 c2 -33 -1 -47 -15 -58 -29 -22 -49 -16 -93 26 -40 38 -76 57
-50 25 10 -12 9 -16 -4 -21 -9 -3 -23 -4 -31 0 -20 7 -45 -3 -45 -18 0 -9 14
-11 53 -5 46 6 54 4 69 -15 22 -28 12 -36 -37 -27 -47 8 -128 6 -180 -3 -34
-7 -36 -6 -30 14 6 19 5 20 -14 8 -17 -10 -20 -19 -15 -48 7 -39 14 -52 14
-27 0 19 21 22 37 6 13 -13 112 -19 119 -7 3 4 -18 8 -46 8 -44 0 -51 3 -48
18 3 14 14 17 73 16 41 -1 71 -6 73 -13 2 -6 9 -8 15 -5 8 5 9 4 2 -4 -6 -6
-19 -13 -30 -15 -11 -1 -27 -7 -35 -12 -8 -5 -24 -11 -34 -12 -41 -7 -27 -13
28 -13 32 0 70 7 86 15 30 15 30 15 30 -11 0 -34 -33 -87 -62 -101 -13 -6 -46
-14 -75 -17 -65 -8 -86 9 -145 119 -40 75 -42 85 -41 160 0 79 0 79 -13 40 -7
-22 -13 -33 -13 -25 -1 12 -3 13 -10 1 -7 -11 -9 -11 -14 0 -4 10 -6 8 -6 -4
-1 -18 -23 -47 -35 -47 -3 0 -6 10 -7 23 0 12 -9 -9 -20 -48 -13 -48 -18 -102
-18 -174 0 -105 -13 -151 -28 -95 -4 16 -6 34 -5 40 1 7 -8 9 -23 6 -17 -3
-25 0 -25 9 -1 10 -5 8 -14 -4 -11 -15 -16 -16 -23 -5 -5 8 -28 13 -58 13 -27
1 -87 4 -132 9 l-83 7 0 -794 0 -795 130 -32 c71 -18 130 -35 130 -38 0 -3 -7
-14 -17 -24 -16 -17 10 -18 785 -18 l802 0 0 1084 c0 952 -2 1085 -15 1090 -8
3 -14 15 -12 28 2 19 -2 22 -23 20 -14 -2 -38 -4 -53 -4 -18 -1 -34 -9 -44
-24 -15 -23 -48 -31 -68 -16 -6 4 -22 22 -34 41 -23 33 -25 33 -85 29 -33 -3
-80 -1 -103 4 -42 9 -43 9 -93 -41 -27 -27 -50 -52 -50 -55 0 -2 16 0 35 5 19
6 40 7 45 4 6 -3 10 -1 10 4 0 15 62 13 83 -3 24 -19 21 -51 -6 -63 -13 -6
-43 -9 -68 -6 -26 3 -66 -1 -96 -10 -28 -9 -54 -13 -57 -10 -3 3 -13 0 -23 -8
-9 -8 -14 -9 -10 -3 4 7 0 14 -8 18 -18 7 -18 4 -3 -29 8 -18 14 -22 20 -13 5
9 8 6 8 -10 0 -13 8 -40 19 -60 46 -90 61 -115 62 -102 1 8 5 4 9 -10 8 -24 8
-24 9 -2 1 12 -6 25 -14 28 -8 4 -15 12 -15 19 0 7 -5 15 -12 17 -7 3 -8 10
-3 17 6 11 10 10 18 -4 8 -14 11 -15 18 -4 7 9 8 5 3 -13 -4 -20 -1 -27 14
-32 10 -4 27 -24 37 -46 18 -40 18 -41 -3 -63 -12 -13 -22 -30 -22 -38 1 -16
25 -51 31 -44 3 2 5 -4 6 -13 1 -9 5 -28 9 -41 7 -22 6 -23 -8 -11 -9 8 -13
21 -10 29 3 9 1 12 -6 7 -8 -5 -12 1 -12 18 0 13 -4 26 -9 28 -15 5 -79 125
-91 169 -13 46 -57 148 -101 234 -17 33 -47 92 -67 130 -20 39 -40 72 -44 73
-4 2 -8 11 -8 21 0 24 -65 85 -81 76 -7 -5 -10 -4 -5 3 4 6 -1 10 -11 10 -10
0 -25 2 -34 6 -10 4 -20 2 -24 -4z m81 -336 c18 -14 18 -15 -6 -8 -14 3 -32
10 -40 15 -12 7 -11 8 6 9 11 0 29 -7 40 -16z m-599 -480 c-3 -3 -12 -4 -19
-1 -8 3 -5 6 6 6 11 1 17 -2 13 -5z m1074 -41 c6 -37 5 -53 -5 -50 -6 2 -10
12 -10 21 1 9 -2 16 -7 16 -5 0 -9 5 -9 10 0 11 29 14 31 3z m-1068 -23 c4
-15 0 -20 -14 -20 -18 0 -26 20 -12 33 11 12 21 8 26 -13z m34 -12 c-3 -8 -6
-5 -6 6 -1 11 2 17 5 13 3 -3 4 -12 1 -19z m1003 -74 c0 -2 -9 0 -20 6 -11 6
-20 13 -20 16 0 2 9 0 20 -6 11 -6 20 -13 20 -16z m-949 -70 c1 -36 -3 -69
-12 -84 -7 -14 -13 -29 -14 -33 0 -5 -8 -14 -17 -21 -19 -14 -25 -66 -8 -66 6
0 10 -7 10 -15 0 -8 3 -15 8 -15 4 0 8 -12 9 -26 l1 -26 -17 29 c-10 15 -31
65 -46 109 -29 80 -29 81 -12 125 9 24 31 60 48 79 38 41 47 32 50 -56z m933
64 c24 -11 49 -32 55 -45 13 -29 3 -29 -45 -1 -22 13 -55 22 -78 23 -23 0 -42
5 -42 10 -1 6 3 8 10 6 6 -2 20 -5 31 -8 17 -4 17 -2 -3 9 -12 8 -19 17 -16
21 13 12 42 7 88 -15z m-35 -129 c22 -22 41 -70 66 -164 3 -15 -9 -36 -45 -75
-28 -30 -50 -61 -50 -69 0 -10 -4 -11 -12 -3 -7 6 -26 12 -43 14 -30 3 -30 4
-27 58 2 40 0 51 -7 40 -9 -12 -11 -11 -11 7 0 17 -4 21 -17 17 -14 -5 -15 -4
-4 4 12 9 12 19 -2 69 -10 33 -17 69 -17 81 0 12 -5 22 -11 22 -6 0 -9 12 -7
28 3 24 7 27 35 25 17 -2 35 2 38 7 8 13 78 -25 114 -61z m51 53 c13 -10 21
-24 18 -32 -3 -10 -8 -9 -21 4 -9 9 -29 23 -44 31 l-28 15 26 0 c15 0 37 -8
49 -18z m-876 -471 c3 -19 4 -32 0 -29 -8 9 -64 161 -63 173 1 17 56 -108 63
-144z m55 -200 c28 -25 47 -99 56 -207 5 -69 19 -114 36 -114 17 0 1 -52 -22
-68 -11 -7 -17 -18 -13 -23 3 -5 0 -16 -6 -24 -14 -16 -4 -95 11 -95 6 0 7 -4
4 -10 -3 -5 1 -10 10 -10 20 0 38 47 31 80 -11 58 -11 64 7 68 16 3 23 -17 18
-55 -1 -7 4 -13 10 -13 35 0 75 -69 49 -85 -16 -10 -12 -20 16 -49 15 -14 23
-26 18 -26 -5 0 -9 -15 -9 -32 0 -33 0 -33 -50 -34 -69 -2 -102 12 -114 47 -5
16 -14 29 -20 29 -10 0 -27 39 -22 54 1 5 -1 16 -4 24 -4 12 -10 11 -30 -8
-14 -13 -25 -19 -25 -13 0 6 7 13 15 17 8 3 15 15 15 27 0 11 7 46 16 76 14
48 15 71 5 162 -6 58 -17 133 -25 167 -8 35 -11 83 -8 115 3 30 8 45 10 35 2
-11 12 -27 21 -35z m1206 -502 c-9 -17 -19 -28 -22 -25 -8 8 17 56 29 56 5 0
1 -14 -7 -31z m-1355 -124 c0 -2 -10 -10 -22 -16 -21 -11 -22 -11 -9 4 13 16
31 23 31 12z m-85 -55 c3 -6 -1 -7 -9 -4 -18 7 -21 14 -7 14 6 0 13 -4 16 -10z"/>
<path d="M1096 2213 c-9 -10 26 -61 45 -66 31 -8 42 17 16 40 -25 23 -52 34
-61 26z"/>
<path d="M611 2136 c11 -9 69 -14 69 -6 0 6 -16 10 -37 10 -20 0 -34 -2 -32
-4z"/>
<path d="M570 2060 c-11 -7 -2 -10 32 -10 25 0 53 -3 62 -6 10 -4 16 -1 16 9
0 17 -85 23 -110 7z"/>
<path d="M675 1940 c-3 -5 1 -10 9 -10 9 0 16 5 16 10 0 6 -4 10 -9 10 -6 0
-13 -4 -16 -10z"/>
</g>
</svg>
