<?xml version="1.0" encoding="UTF-8"?>
<svg version="1.1" xmlns="http://www.w3.org/2000/svg" width="512" height="512">
<path d="M0 0 C12.71591725 9.9371857 21.72671396 22.76224255 24 39 C24.31456249 44.9997041 24.18006183 50.99793916 24 57 C25.08410156 57.10570313 26.16820312 57.21140625 27.28515625 57.3203125 C31.8367219 58.15309107 33.16460387 59.22772266 35.8984375 62.765625 C38.01070409 67.05008065 37.71662256 71.37061823 37 76 C35.30828203 80.27381381 33.09322665 82.00330407 29 84 C27.67235641 84.35531872 26.33960272 84.69282995 25 85 C24.73445313 86.18078125 24.46890625 87.3615625 24.1953125 88.578125 C23.83880998 90.13547811 23.48202428 91.69276642 23.125 93.25 C22.86396484 94.41595703 22.86396484 94.41595703 22.59765625 95.60546875 C22.33662109 96.73662109 22.33662109 96.73662109 22.0703125 97.890625 C21.91320801 98.58188477 21.75610352 99.27314453 21.59423828 99.98535156 C20.95625622 102.14830473 20.02857311 103.99801354 19 106 C19.73807325 106.00238835 20.47614651 106.00477671 21.23658562 106.00723743 C39.22409612 106.06646213 57.21147028 106.14205986 75.19883537 106.23571491 C83.89751852 106.28061468 92.59616126 106.32004268 101.29492188 106.34643555 C108.87980361 106.36946285 116.46455684 106.40291349 124.04933655 106.44870156 C128.06267374 106.47257017 132.07588416 106.49134051 136.08929062 106.49761391 C139.87324652 106.50369373 143.65687833 106.523797 147.44071388 106.55427551 C149.47840724 106.56714816 151.51617649 106.56549376 153.5539093 106.5632782 C164.63907915 106.67592823 173.74931474 108.17515656 182 116 C189.86224888 124.29012636 191.45827104 133.76079283 191.38095093 144.85400391 C191.3856309 145.9008819 191.39031087 146.9477599 191.39513266 148.02636147 C191.40703209 151.50989336 191.39764502 154.99302817 191.38818359 158.4765625 C191.39225153 160.98395008 191.39759465 163.49133586 191.40411377 165.99871826 C191.4163507 172.08747164 191.4145908 178.17607967 191.40587585 184.26483488 C191.39908434 189.21589282 191.3981889 194.16691969 191.4014473 199.11798096 C191.401907 199.82423131 191.40236669 200.53048166 191.40284032 201.25813353 C191.40379956 202.69313289 191.4047722 204.12813223 191.4057581 205.56313157 C191.41430061 219.00043991 191.40449578 232.43768673 191.388357 245.87498498 C191.37495484 257.38999474 191.37728326 268.90491375 191.39111328 280.41992188 C191.40718926 293.81109039 191.41347674 307.20220506 191.40427649 320.59338188 C191.4033209 322.02292759 191.40237779 323.45247331 191.4014473 324.88201904 C191.40098447 325.58527427 191.40052164 326.2885295 191.40004479 327.0130955 C191.39746095 331.95480881 191.40181279 336.8964878 191.40888596 341.8381958 C191.41820725 348.49656134 191.41151472 355.15472968 191.39420319 361.81308746 C191.39024387 364.25352952 191.39136285 366.69398603 191.39799118 369.1344223 C191.40621843 372.47180643 191.39587024 375.8086464 191.38095093 379.14599609 C191.38764309 380.10612925 191.39433526 381.0662624 191.40123022 382.05549049 C191.32830091 390.49661547 189.93600922 398.54655525 184.3125 405.125 C183.68988281 405.87007813 183.06726563 406.61515625 182.42578125 407.3828125 C181.95527344 407.91648437 181.48476563 408.45015625 181 409 C181.84296631 409.02505615 182.68593262 409.0501123 183.55444336 409.07592773 C186.67241674 409.17088155 189.79021503 409.27012448 192.90795898 409.37231445 C194.25914147 409.41571223 195.61038053 409.4573837 196.96166992 409.49731445 C198.90036701 409.55489952 200.83886276 409.61914298 202.77734375 409.68359375 C203.94515381 409.72025146 205.11296387 409.75690918 206.31616211 409.79467773 C209 410 209 410 210 411 C209.60517195 416.78087867 207.8039853 421.31288535 205.3125 426.5 C204.98572266 427.22058594 204.65894531 427.94117188 204.32226562 428.68359375 C201.78840462 434.04200728 198.49461723 440.25269138 193 443 C193.90363281 443.04898437 194.80726563 443.09796875 195.73828125 443.1484375 C196.91777344 443.22320312 198.09726562 443.29796875 199.3125 443.375 C200.48425781 443.44460938 201.65601563 443.51421875 202.86328125 443.5859375 C206 444 206 444 209 446 C208.67 447.65 208.34 449.3 208 451 C49.6 451 -108.8 451 -272 451 C-272.33 449.35 -272.66 447.7 -273 446 C-269.47844036 443.65229357 -267.49228157 443.62330386 -263.3125 443.375 C-262.13300781 443.30023438 -260.95351563 443.22546875 -259.73828125 443.1484375 C-258.83464844 443.09945313 -257.93101562 443.05046875 -257 443 C-258.14662109 442.14728516 -258.14662109 442.14728516 -259.31640625 441.27734375 C-266.44015812 435.23200555 -270.8168386 424.61259627 -274 416 C-274.2265625 413.17578125 -274.2265625 413.17578125 -274 411 C-272.16780354 409.16780354 -269.24286259 409.76098672 -266.77734375 409.68359375 C-265.51728516 409.64169922 -264.25722656 409.59980469 -262.95898438 409.55664062 C-261.61849264 409.51682404 -260.2779978 409.47711186 -258.9375 409.4375 C-257.59308477 409.39431958 -256.2486834 409.35070544 -254.90429688 409.30664062 C-251.6029766 409.20014642 -248.30157764 409.0981354 -245 409 C-245.47050781 408.46632813 -245.94101563 407.93265625 -246.42578125 407.3828125 C-247.04839844 406.63773437 -247.67101562 405.89265625 -248.3125 405.125 C-248.92738281 404.40570313 -249.54226562 403.68640625 -250.17578125 402.9453125 C-254.75096511 395.55839894 -255.44024317 387.65272757 -255.38095093 379.14599609 C-255.3856309 378.0991181 -255.39031087 377.0522401 -255.39513266 375.97363853 C-255.40703209 372.49010664 -255.39764502 369.00697183 -255.38818359 365.5234375 C-255.39225153 363.01604992 -255.39759465 360.50866414 -255.40411377 358.00128174 C-255.4163507 351.91252836 -255.4145908 345.82392033 -255.40587585 339.73516512 C-255.39908434 334.78410718 -255.3981889 329.83308031 -255.4014473 324.88201904 C-255.40213684 323.82264352 -255.40213684 323.82264352 -255.40284032 322.74186647 C-255.40379956 321.30686711 -255.4047722 319.87186777 -255.4057581 318.43686843 C-255.41430061 304.99956009 -255.40449578 291.56231327 -255.388357 278.12501502 C-255.37495484 266.61000526 -255.37728326 255.09508625 -255.39111328 243.58007812 C-255.40718926 230.18890961 -255.41347674 216.79779494 -255.40427649 203.40661812 C-255.4033209 201.97707241 -255.40237779 200.54752669 -255.4014473 199.11798096 C-255.40098447 198.41472573 -255.40052164 197.7114705 -255.40004479 196.9869045 C-255.39746095 192.04519119 -255.40181279 187.1035122 -255.40888596 182.1618042 C-255.41820725 175.50343866 -255.41151472 168.84527032 -255.39420319 162.18691254 C-255.39024387 159.74647048 -255.39136285 157.30601397 -255.39799118 154.8655777 C-255.40621843 151.52819357 -255.39587024 148.1913536 -255.38095093 144.85400391 C-255.38764309 143.89387075 -255.39433526 142.9337376 -255.40123022 141.94450951 C-255.31443092 131.89801748 -253.01816881 123.40010997 -246 116 C-236.6177584 107.10200313 -225.97666391 106.55412041 -213.55419922 106.56762695 C-212.12416242 106.55859304 -210.69413332 106.54826186 -209.26411438 106.53674316 C-205.41150273 106.50933805 -201.55903865 106.49991129 -197.70634222 106.49388909 C-193.66908853 106.48446214 -189.63194323 106.4582555 -185.59475708 106.43388367 C-177.96297082 106.39033325 -170.33120574 106.36171611 -162.69933331 106.33856028 C-154.00512907 106.31144693 -145.3110345 106.26753938 -136.61690879 106.22227156 C-118.74466388 106.12958954 -100.87238996 106.0578338 -83 106 C-83.4189856 104.90461914 -83.4189856 104.90461914 -83.84643555 103.78710938 C-84.39231323 102.33014648 -84.39231323 102.33014648 -84.94921875 100.84375 C-85.49195435 99.40805664 -85.49195435 99.40805664 -86.0456543 97.94335938 C-86.9672881 95.1008889 -87.45677111 92.46023352 -87.8125 89.5 C-88.16185507 87.06161136 -88.16185507 87.06161136 -89 85 C-92.31342388 83.00851184 -92.31342388 83.00851184 -96 82 C-98.97581495 79.41573965 -100.78815032 77.61702987 -101.30859375 73.64453125 C-101.58815205 67.50272022 -101.10523138 63.89698298 -96.99609375 59.2421875 C-94.12686255 57.45663853 -91.32067404 57.32377559 -88 57 C-88.04640625 55.87464844 -88.0928125 54.74929687 -88.140625 53.58984375 C-88.67871432 34.84297605 -84.49524238 20.2382744 -71.40625 6.3203125 C-52.37537671 -12.03088674 -21.94557107 -14.78032605 0 0 Z " fill="#423A7A" transform="translate(288,24)"/>
<path d="M0 0 C0.69338821 -0.00467997 1.38677641 -0.00935994 2.10117638 -0.01418173 C4.42426382 -0.02614625 6.74676293 -0.0166691 9.06985474 -0.00723267 C10.73556869 -0.01129781 12.40127994 -0.01663937 14.06698608 -0.02316284 C18.59186828 -0.03685123 23.1165455 -0.03153097 27.64143133 -0.02202559 C32.37654011 -0.01443435 37.11163126 -0.02147334 41.84674072 -0.02618408 C49.80102694 -0.03164426 57.75522964 -0.02444425 65.70950317 -0.01016235 C74.90265 0.00615345 84.09559712 0.0008845 93.28873909 -0.01564157 C101.18185918 -0.02926234 109.0749192 -0.03117286 116.96804726 -0.02332556 C121.68208915 -0.01865086 126.39603724 -0.01801841 131.11007309 -0.02793503 C135.54407071 -0.0366106 139.9778114 -0.03057198 144.41178131 -0.01325226 C146.037943 -0.00929009 147.66412636 -0.01041686 149.29027939 -0.01704025 C151.51282053 -0.02525704 153.7345421 -0.01493333 155.95703125 0 C157.19994368 0.00113108 158.4428561 0.00226215 159.72343254 0.00342751 C163.10549927 0.38095093 163.10549927 0.38095093 169.10549927 3.38095093 C169.10549927 8.00095093 169.10549927 12.62095093 169.10549927 17.38095093 C167.96854614 17.39513062 166.83159302 17.4093103 165.66018677 17.42391968 C150.85669099 17.80077107 138.80805145 20.67793554 127.10549927 30.38095093 C126.47128052 30.90302124 125.83706177 31.42509155 125.18362427 31.96298218 C116.93802898 39.4606363 110.64990013 50.8474829 109.84350586 62.00643921 C109.72064939 66.41406821 109.76760416 70.82010392 109.81253052 75.22860718 C109.81813499 76.85241807 109.82240106 78.47623408 109.82539368 80.10005188 C109.83677554 84.34649996 109.86618423 88.59263372 109.89950562 92.83895874 C109.93035118 97.18299103 109.94392979 101.52707476 109.95901489 105.8711853 C109.99106135 114.37459989 110.0437737 122.87769994 110.10549927 131.38095093 C118.52049927 131.87595093 118.52049927 131.87595093 127.10549927 132.38095093 C127.35299927 133.94845093 127.60049927 135.51595093 127.85549927 137.13095093 C131.02556424 154.28012186 138.70961897 168.72813871 152.98049927 179.19345093 C163.67676148 186.22479229 174.40417314 189.73426218 187.16799927 189.75595093 C187.89954224 189.78044312 188.63108521 189.8049353 189.38479614 189.83016968 C197.9952639 189.87369352 204.16468569 187.61615432 213.10549927 185.38095093 C213.10549927 203.86095093 213.10549927 222.34095093 213.10549927 241.38095093 C205.45032685 234.81937457 205.45032685 234.81937457 202.54299927 231.69345093 C197.7268851 226.89855312 193.93859687 225.2130676 187.10549927 224.94345093 C180.39304551 225.13452325 177.31781578 227.0521967 172.73049927 231.88095093 C170.31821602 237.07663793 170.12714344 241.75540492 171.10549927 247.38095093 C172.66420585 250.53573034 174.70382395 252.83596577 177.10549927 255.38095093 C178.14977734 256.58544611 179.18894582 257.79438211 180.22415161 259.00668335 C180.76389618 259.63821823 181.30364075 260.26975311 181.85974121 260.92042542 C182.27084137 261.40239883 182.68194153 261.88437225 183.10549927 262.38095093 C158.40169652 262.47432368 133.69792016 262.54489552 108.99397659 262.58819962 C97.52392941 262.60883941 86.05399177 262.63698712 74.58401489 262.68270874 C64.58871411 262.72253307 54.59349264 262.74837343 44.59811473 262.75730491 C39.30385825 262.76252711 34.0098287 262.77483065 28.71564484 262.80387115 C23.7350799 262.83097064 18.75483592 262.83940698 13.77420425 262.83338165 C11.94400159 262.83448434 10.11378847 262.84247069 8.28364944 262.85777283 C5.78858643 262.87761555 3.29474212 262.87291157 0.7996521 262.86196899 C0.07202329 262.87362036 -0.65560552 262.88527173 -1.40528369 262.89727616 C-4.50560341 262.86041262 -6.63633721 262.52812559 -9.34363937 260.98473835 C-11.78784312 256.88109172 -11.44521519 252.93062616 -11.4024353 248.23933411 C-11.40867527 247.19672725 -11.41491523 246.1541204 -11.42134428 245.0799194 C-11.43733986 241.57513629 -11.42464393 238.07104233 -11.41207886 234.56625366 C-11.417497 232.05824374 -11.42461792 229.55023701 -11.43331909 227.04223633 C-11.44969202 220.93090953 -11.44725866 214.81983931 -11.43566853 208.70850902 C-11.42664056 203.74293819 -11.42540743 198.77742246 -11.42976379 193.81184578 C-11.43037673 193.10553679 -11.43098966 192.3992278 -11.43162116 191.67151551 C-11.43290004 190.23674383 -11.43419689 188.80197216 -11.43551153 187.3672005 C-11.44692105 173.90960598 -11.43379739 160.4521204 -11.41231006 146.99454374 C-11.39443483 135.44140683 -11.39754591 123.88843065 -11.41598511 112.33529663 C-11.43737861 98.92481703 -11.44582647 85.51443292 -11.43353605 72.10393864 C-11.43226183 70.67470588 -11.43100435 69.2454731 -11.42976379 67.81624031 C-11.42914669 67.11299428 -11.42852959 66.40974825 -11.42789379 65.68519173 C-11.4244366 60.72371801 -11.43027706 55.76230474 -11.43968201 50.80084038 C-11.45205481 44.12692793 -11.44327928 37.45336684 -11.42010498 30.77946854 C-11.41479922 28.32480565 -11.4163633 25.87011728 -11.42515564 23.4154644 C-11.43602059 20.07515375 -11.42245651 16.7358311 -11.4024353 13.39558411 C-11.41135819 12.41485929 -11.42028108 11.43413448 -11.42947435 10.42369074 C-11.41904336 9.53191851 -11.40861238 8.64014629 -11.3978653 7.72135067 C-11.39721589 6.95002865 -11.39656648 6.17870663 -11.39589739 5.38401121 C-10.89450073 3.38095093 -10.89450073 3.38095093 -9.05868948 1.63327116 C-5.97961105 -0.14845523 -3.54471551 0.00322772 0 0 Z " fill="#62BBE6" transform="translate(67.89450073242188,154.61904907226563)"/>
<path d="M0 0 C1.04476228 -0.00701996 1.04476228 -0.00701996 2.11063087 -0.01418173 C4.43217616 -0.0260974 6.75312739 -0.01668844 9.07467651 -0.00723267 C10.74393049 -0.01129983 12.41318178 -0.01664253 14.08242798 -0.02316284 C18.60705767 -0.03682292 23.13148183 -0.03154377 27.65611506 -0.02202559 C32.39214789 -0.01442475 37.12816325 -0.02147555 41.86419678 -0.02618408 C49.81492266 -0.03163932 57.76556489 -0.02445497 65.71627808 -0.01016235 C74.91064241 0.00617494 84.10480727 0.0008669 93.2991668 -0.01564157 C101.19399446 -0.02924963 109.08876204 -0.03117977 116.98359764 -0.02332556 C121.69866385 -0.01864675 126.41363624 -0.01803015 131.12869644 -0.02793503 C135.55943152 -0.03659292 139.98990894 -0.03060443 144.42061615 -0.01325226 C146.0476196 -0.00928159 147.67464469 -0.01043137 149.30163956 -0.01704025 C151.52039738 -0.02522289 153.73832642 -0.01497498 155.95703125 0 C157.82026881 0.00169662 157.82026881 0.00169662 159.72114754 0.00342751 C163.189956 0.42176476 164.35786747 1.00699936 166.85153198 3.38095093 C167.35292864 5.38401121 167.35292864 5.38401121 167.35489655 7.72135067 C167.36532753 8.61312289 167.37575852 9.50489511 167.3865056 10.42369074 C167.37758272 11.40441555 167.36865983 12.38514036 167.35946655 13.39558411 C167.36570652 14.43663097 167.37194648 15.47767783 167.37837553 16.55027157 C167.39439291 20.05582599 167.38166669 23.56069348 167.36911011 27.06625366 C167.37452735 29.57249357 167.38164776 32.07873029 167.39035034 34.58496094 C167.40673372 40.69609188 167.40428404 46.8069664 167.39269978 52.91810089 C167.38367501 57.88416378 167.38243729 62.85017158 167.38679504 67.81624031 C167.38740798 68.52239607 167.38802091 69.22855182 167.38865241 69.95610623 C167.38993129 71.39055372 167.39122814 72.8250012 167.39254278 74.25944865 C167.40395636 87.7189766 167.39082316 101.17839569 167.36934131 114.63790578 C167.35147347 126.19073646 167.35457029 137.74340636 167.37301636 149.29623413 C167.39441607 162.70525116 167.40285357 176.11417267 167.3905673 189.52320439 C167.38929308 190.9527515 167.3880356 192.38229863 167.38679504 193.81184578 C167.38586939 194.86694624 167.38586939 194.86694624 167.38492504 195.94336186 C167.38146914 200.90385325 167.38730571 205.86428414 167.39671326 210.82476616 C167.40909482 217.5003099 167.40029609 224.17550261 167.37713623 230.85103226 C167.37183425 233.30527426 167.37338818 235.75954177 167.38218689 238.21377373 C167.39306684 241.55597638 167.37946913 244.8971947 167.35946655 248.23933411 C167.36838944 249.2178282 167.37731233 250.19632229 167.3865056 251.20446771 C167.31017621 257.74914732 167.31017621 257.74914732 164.96136856 260.98473835 C162.44724247 262.64849492 161.08208829 262.867301 158.08297729 262.83505249 C157.14230408 262.83475037 156.20163086 262.83444824 155.23245239 262.83413696 C154.22502991 262.81349182 153.21760742 262.79284668 152.17965698 262.77157593 C151.14210266 262.76591614 150.10454834 262.76025635 149.03555298 262.75442505 C145.72374206 262.73204584 142.41301554 262.68184512 139.10153198 262.63095093 C136.85545386 262.61088799 134.60935878 262.59263686 132.36325073 262.57626343 C126.85897489 262.53217611 121.35533091 262.46524834 115.85153198 262.38095093 C115.84606354 261.38949318 115.84606354 261.38949318 115.84048462 260.37800598 C115.79859358 253.48304396 115.72920095 246.58874349 115.64401245 239.69418335 C115.61583024 237.12296167 115.59460211 234.55165381 115.58053589 231.98031616 C115.5590694 228.27877767 115.51239633 224.57827253 115.46090698 220.87704468 C115.45906403 219.15946205 115.45906403 219.15946205 115.45718384 217.40718079 C115.33771391 210.86016154 114.76923241 206.7017176 110.85153198 201.38095093 C106.41452048 197.51551951 100.98526018 196.76238914 95.26168823 196.97470093 C91.47073675 197.61369437 88.98954721 199.19798382 85.85153198 201.38095093 C85.48801636 200.83825562 85.12450073 200.2955603 84.74996948 199.73641968 C81.61616226 195.27677094 79.25171691 192.01119543 73.85153198 190.38095093 C67.80240832 189.75641014 62.84789259 189.51280078 57.85153198 193.38095093 C57.19153198 193.38095093 56.53153198 193.38095093 55.85153198 193.38095093 C54.58981323 191.95516968 54.58981323 191.95516968 53.16403198 190.06845093 C49.26456392 185.39287514 45.36667299 183.64570261 39.28903198 183.00595093 C35.5281959 183.41622395 33.13039666 184.55088692 29.85153198 186.38095093 C29.19153198 186.38095093 28.53153198 186.38095093 27.85153198 186.38095093 C27.82616107 179.49415881 27.80865627 172.60737876 27.79660034 165.72055054 C27.79157397 163.37809804 27.7847519 161.03564867 27.77609253 158.69320679 C27.76395281 155.32479071 27.75828667 151.95641615 27.75387573 148.58798218 C27.74871445 147.54197342 27.74355316 146.49596466 27.73823547 145.41825867 C27.73815994 144.43761948 27.73808441 143.45698029 27.73800659 142.44662476 C27.73578598 141.58724808 27.73356537 140.7278714 27.73127747 139.842453 C27.85153198 137.38095093 27.85153198 137.38095093 28.85153198 132.38095093 C34.46153198 132.05095093 40.07153198 131.72095093 45.85153198 131.38095093 C45.96506728 122.08747559 46.05655287 112.7944704 46.11059284 103.5004549 C46.136546 99.18358137 46.17167781 94.86721209 46.22872925 90.55062866 C46.28356541 86.37491683 46.31305953 82.19968606 46.3259182 78.02364159 C46.33506657 76.44059883 46.35292792 74.8575786 46.38018227 73.27474403 C46.65433256 56.67356527 41.92644978 43.90256823 30.53903198 31.63095093 C18.04979731 19.83556263 3.27613592 17.74594213 -13.14846802 17.38095093 C-13.14846802 12.76095093 -13.14846802 8.14095093 -13.14846802 3.38095093 C-7.55402309 0.58372846 -5.8557352 0.00532884 0 0 Z " fill="#62BBE6" transform="translate(288.1484680175781,154.61904907226563)"/>
<path d="M0 0 C2.6875 2.1875 2.6875 2.1875 4.6875 5.1875 C4.90040139 7.84333104 4.99875372 10.39786259 5.00634766 13.05541992 C5.01639328 13.85565079 5.0264389 14.65588165 5.03678894 15.48036194 C5.06768736 18.12622355 5.08467447 20.77198367 5.1015625 23.41796875 C5.1202688 25.25215024 5.13984181 27.08632308 5.1602478 28.92048645 C5.21163186 33.74879867 5.25122397 38.57713881 5.28839111 43.40557861 C5.32839146 48.33230532 5.37950189 53.25891525 5.4296875 58.18554688 C5.52652105 67.85278263 5.61090204 77.52008422 5.6875 87.1875 C7.6675 87.6825 7.6675 87.6825 9.6875 88.1875 C9.6968457 87.46159668 9.70619141 86.73569336 9.71582031 85.98779297 C9.76971281 82.67868786 9.85332439 79.37096762 9.9375 76.0625 C9.95167969 74.92039062 9.96585937 73.77828125 9.98046875 72.6015625 C10.16566734 66.23073102 10.3215749 61.99164063 14.6875 57.1875 C17.42768076 55.0241994 19.17402151 54.26397552 22.625 53.75 C26.57794945 54.31470706 28.61572911 55.66182171 31.6875 58.1875 C34.68804324 62.21035814 35.09352425 65.2706398 35.19921875 70.23828125 C35.21716995 70.89708786 35.23512115 71.55589447 35.25361633 72.23466492 C35.30746656 74.32304631 35.34153108 76.4112026 35.375 78.5 C35.4081957 79.9225572 35.44268744 81.34508479 35.47851562 82.76757812 C35.56317601 86.24066915 35.6301077 89.71383913 35.6875 93.1875 C37.0075 92.8575 38.3275 92.5275 39.6875 92.1875 C39.69160889 91.49188965 39.69571777 90.7962793 39.69995117 90.07958984 C39.7329889 86.90638197 39.80364466 83.73506809 39.875 80.5625 C39.88370117 78.92087891 39.88370117 78.92087891 39.89257812 77.24609375 C40.14123744 68.12858548 40.14123744 68.12858548 43.11328125 64.4765625 C46.68278212 61.30246916 48.77530797 60.84111756 53.5859375 60.90234375 C57.02519673 61.36900904 59.09896518 62.96875587 61.6875 65.1875 C64.09860631 68.74364908 64.03087743 72.42120216 64.1015625 76.578125 C64.12092865 77.28273865 64.1402948 77.98735229 64.1602478 78.71331787 C64.21982735 80.95459039 64.26634123 83.19591489 64.3125 85.4375 C64.35069979 86.96095938 64.38975269 88.48439762 64.4296875 90.0078125 C64.52551018 93.73418106 64.60962107 97.46070835 64.6875 101.1875 C66.0075 101.1875 67.3275 101.1875 68.6875 101.1875 C68.70151855 100.09864502 68.70151855 100.09864502 68.71582031 98.98779297 C68.76971281 95.67868786 68.85332439 92.37096762 68.9375 89.0625 C68.95167969 87.92039062 68.96585938 86.77828125 68.98046875 85.6015625 C69.28998662 74.95414771 69.28998662 74.95414771 73.6875 70.1875 C77.39732446 67.7142837 80.38638142 67.64039098 84.6875 68.1875 C88.42033523 69.84653788 90.56873502 71.71715765 92.6875 75.1875 C93.07518005 78.01745605 93.07518005 78.01745605 93.09155273 81.32617188 C93.11057899 83.18961243 93.11057899 83.18961243 93.12998962 85.09069824 C93.12793645 86.44588385 93.12494698 87.80106831 93.12109375 89.15625 C93.12565985 90.55668388 93.13096669 91.95711552 93.13697815 93.35754395 C93.14591296 96.29639768 93.14348729 99.23497985 93.13354492 102.17382812 C93.12213293 105.90807307 93.142143 109.64136136 93.17146206 113.37548065 C93.18998432 116.27207239 93.18949883 119.16844251 93.18382454 122.06507874 C93.18367285 123.43955311 93.18958911 124.81404401 93.20211601 126.1884613 C93.30984063 139.96122008 90.07551719 149.83843587 82.39453125 161.08203125 C79.77483973 166.76163599 79.77483973 166.76163599 79.6875 180.1875 C47.3475 180.1875 15.0075 180.1875 -18.3125 180.1875 C-18.6425 173.5875 -18.9725 166.9875 -19.3125 160.1875 C-21.71930981 153.06832473 -21.71930981 153.06832473 -25.91015625 148.05395508 C-26.62099365 147.34995071 -27.33183105 146.64594635 -28.06420898 145.92060852 C-28.82677002 145.19012802 -29.58933105 144.45964752 -30.375 143.70703125 C-31.16269775 142.93115158 -31.95039551 142.15527191 -32.76196289 141.35588074 C-35.26717049 138.89169762 -37.78864822 136.44507176 -40.3125 134 C-42.83365047 131.5416617 -45.35108548 129.07972168 -47.86303711 126.61198425 C-49.42301424 125.08109614 -50.98871392 123.55601184 -52.56079102 122.03755188 C-61.72238158 113.08590794 -61.72238158 113.08590794 -61.8125 106.6875 C-61.70590781 102.92542255 -61.3944285 102.28833507 -58.875 99.1875 C-57.6065625 98.1975 -57.6065625 98.1975 -56.3125 97.1875 C-55.8175 96.6925 -55.8175 96.6925 -55.3125 96.1875 C-51.19541772 95.48125587 -47.10604097 95.20266989 -43.36328125 97.2578125 C-41.20209885 99.12364894 -39.27148831 101.10770742 -37.3125 103.1875 C-35.53675362 105.02915146 -33.75286016 106.86204665 -31.95996094 108.68701172 C-30.70640335 109.96734369 -29.46453557 111.25923859 -28.23535156 112.56298828 C-27.6575293 113.15966309 -27.07970703 113.75633789 -26.484375 114.37109375 C-25.9697168 114.91306396 -25.45505859 115.45503418 -24.92480469 116.01342773 C-23.10599338 117.57993949 -23.10599338 117.57993949 -19.3125 117.1875 C-19.31103344 116.62096647 -19.30956688 116.05443295 -19.30805588 115.47073174 C-19.27097417 101.67386059 -19.21168961 87.87723789 -19.12859726 74.0805645 C-19.08908349 67.40850443 -19.056914 60.73661578 -19.04150391 54.06445312 C-19.02636329 47.62578176 -18.99196305 41.18747528 -18.94419098 34.74896622 C-18.92935054 32.29221899 -18.92145747 29.83541968 -18.92061615 27.37862778 C-18.91825288 23.93805764 -18.89122258 20.49850111 -18.85839844 17.05810547 C-18.86594398 15.53356499 -18.86594398 15.53356499 -18.87364197 13.97822571 C-18.78645743 8.0738163 -18.21465163 4.70404148 -14.3125 0.1875 C-9.83605342 -3.20842499 -4.71282929 -2.57871791 0 0 Z " fill="#F6AE23" transform="translate(305.3125,288.8125)"/>
<path d="M0 0 C12.15658409 8.40366522 21.03451036 20.96863774 24 35.625 C24.27628176 39.65410893 24.2571561 43.59622108 24 47.625 C19.25 45.75 19.25 45.75 17 44.625 C11.0405389 43.99385544 6.27390938 44.58235997 1 47.625 C-2.2674024 50.72310693 -4.76790013 53.86811739 -5.15821838 58.50431824 C-5.17376266 59.20825211 -5.18930695 59.91218597 -5.20532227 60.63745117 C-5.22526749 61.43805466 -5.24521271 62.23865814 -5.26576233 63.06352234 C-5.28247482 63.92298965 -5.29918732 64.78245697 -5.31640625 65.66796875 C-5.3475779 66.99336418 -5.3475779 66.99336418 -5.37937927 68.34553528 C-5.44475754 71.16777785 -5.50370528 73.99011335 -5.5625 76.8125 C-5.60569637 78.72592106 -5.64931102 80.63933273 -5.69335938 82.55273438 C-5.80042695 87.24339437 -5.90172752 91.93414783 -6 96.625 C-8.49257971 97.46009093 -10.98853862 98.28060911 -13.48828125 99.09375 C-14.18280396 99.32803711 -14.87732666 99.56232422 -15.59289551 99.80371094 C-28.864561 104.07770226 -43.53006731 102.2231691 -56.125 96.5 C-69.51078385 89.16710706 -78.97534338 78.23230351 -84.34375 63.94140625 C-88.66714589 48.68084815 -86.93416038 32.25720314 -79.3125 18.5 C-72.64847774 8.15584604 -64.88553608 1.35145171 -54 -4.375 C-53.17371094 -4.83132812 -52.34742188 -5.28765625 -51.49609375 -5.7578125 C-35.35948694 -13.16562879 -14.53987149 -8.71605287 0 0 Z " fill="#CCCCCC" transform="translate(287,237.375)"/>
<path d="M0 0 C1.27433395 -0.01293594 2.54866791 -0.02587189 3.86161804 -0.03919983 C5.27165121 -0.048419 6.68168544 -0.05747731 8.09172058 -0.06639099 C9.57847358 -0.07920775 11.06522386 -0.09234334 12.55197144 -0.10577393 C26.10641694 -0.22152608 39.66158804 -0.27828328 53.21643543 -0.32254124 C63.23299843 -0.35579921 73.24865865 -0.41540729 83.26483423 -0.51005226 C90.31208759 -0.57439088 97.35909488 -0.60807868 104.40663069 -0.61929077 C108.61420794 -0.62684817 112.82069314 -0.64800108 117.02794838 -0.70231819 C120.98709062 -0.75283189 124.94456479 -0.76534018 128.90397835 -0.74906731 C130.35402946 -0.74967001 131.80415115 -0.76389984 133.25391006 -0.79301453 C144.24150128 -1.00207548 144.24150128 -1.00207548 148.18434715 1.98196602 C149.91163592 3.96632924 151.33922293 5.98992271 152.795578 8.17408752 C153.785578 8.66908752 153.785578 8.66908752 154.795578 9.17408752 C154.795578 9.83408752 154.795578 10.49408752 154.795578 11.17408752 C153.55924779 11.17490468 153.55924779 11.17490468 152.29794121 11.17573833 C132.24220235 11.19070606 112.18668579 11.23315257 92.13107109 11.30617809 C82.43230042 11.34083023 72.73367191 11.36618391 63.03483582 11.36964417 C54.58124514 11.37268375 46.12790764 11.39317339 37.67441475 11.4346121 C33.19834093 11.45594439 28.72262704 11.46854158 24.24650192 11.46024132 C20.03233242 11.45270255 15.81889233 11.46851628 11.60485649 11.50214767 C10.05934359 11.51038313 8.51375818 11.51012822 6.96825218 11.50068474 C-2.10075702 11.08287958 -2.10075702 11.08287958 -10.10820007 14.59030151 C-12.75643899 17.85449916 -13.32921354 19.32227614 -13.33864307 23.41708755 C-13.34310092 24.31260212 -13.34755876 25.20811669 -13.35215169 26.13076806 C-13.35196733 27.12082337 -13.35178297 28.11087868 -13.35159302 29.13093567 C-13.35710805 30.70135829 -13.35710805 30.70135829 -13.3627345 32.30350661 C-13.37380585 35.83491605 -13.37762101 39.36629611 -13.38142395 42.89772034 C-13.38768596 45.4202687 -13.39433252 47.94281614 -13.40133667 50.46536255 C-13.42058974 58.05231124 -13.43116865 65.63925478 -13.44006446 73.22622168 C-13.44444601 76.79781089 -13.44981318 80.3693986 -13.45505333 83.94098663 C-13.47206685 95.81178606 -13.48656129 107.68258456 -13.49380207 119.55339432 C-13.49571201 122.63480378 -13.49763234 125.71621324 -13.49958801 128.79762268 C-13.50007175 129.56350581 -13.50055549 130.32938894 -13.50105389 131.11848065 C-13.50935518 143.5268438 -13.53469316 155.93511057 -13.56716869 168.34343162 C-13.6002287 181.07876561 -13.61824989 193.81405061 -13.62144631 206.54942775 C-13.62361244 213.70150778 -13.63237596 220.85344729 -13.65790749 228.00548553 C-13.68186673 234.73269204 -13.68544684 241.45960174 -13.6751461 248.18685722 C-13.6746491 250.65801013 -13.68101758 253.12917523 -13.69470215 255.6002903 C-13.71232241 258.97026807 -13.70536276 262.33932735 -13.69216919 265.70930481 C-13.70313844 266.69043723 -13.71410768 267.67156966 -13.72540933 268.68243337 C-13.67203286 274.31776439 -13.13245893 277.80106747 -9.204422 282.17408752 C-5.6836734 284.90705925 -1.5416718 284.43496595 2.72615051 284.38526917 C3.53105592 284.38400591 4.33596133 284.38274265 5.16525781 284.38144112 C7.86588082 284.37502391 10.56621731 284.35448151 13.26676941 284.33424377 C15.20184497 284.32717189 17.13692449 284.32111871 19.07200623 284.31600952 C23.24191806 284.30377878 27.41176227 284.28620268 31.58163834 284.26509094 C38.17968798 284.23363053 44.77763091 284.22575372 51.37574768 284.22340393 C52.48945602 284.22289032 53.60316436 284.22237671 54.75062144 284.22184753 C57.02818424 284.22080604 59.30574706 284.21980178 61.58330989 284.21883392 C76.94446016 284.21093807 92.30524372 284.18576113 107.66618347 284.10231018 C118.02722121 284.04620431 128.38767018 284.02560158 138.74884927 284.04551029 C144.23034694 284.05458625 149.71046564 284.04544499 155.19174576 283.99272156 C160.35187527 283.9433117 165.50994569 283.94064492 170.6701889 283.97319603 C172.55918157 283.97685805 174.44829894 283.96353868 176.33702469 283.93157387 C191.32374757 283.69269127 191.32374757 283.69269127 196.20302963 287.44514465 C198.70636535 289.89979228 200.83901784 292.26917334 202.795578 295.17408752 C202.795578 295.50408752 202.795578 295.83408752 202.795578 296.17408752 C175.55317848 296.26753485 148.31080298 296.33806878 121.06827545 296.38133621 C108.41905357 296.40196014 95.76993128 296.43007767 83.12077332 296.47584534 C72.09558371 296.51571808 61.07046625 296.54152157 50.04520655 296.5504415 C44.20756762 296.55565546 38.37013504 296.56790698 32.53256226 296.59700775 C27.03654559 296.62418353 21.54082005 296.63252803 16.04474258 296.62651825 C14.02916506 296.62761751 12.01357768 296.63555835 9.99805832 296.65090942 C7.24169215 296.67087106 4.48641878 296.66600416 1.73002625 296.65510559 C0.93622983 296.66675696 0.14243342 296.67840832 -0.67541742 296.69041276 C-7.83119826 296.61416595 -13.92089549 294.03251312 -19.016922 288.92408752 C-19.55961731 288.40330627 -20.10231262 287.88252502 -20.66145325 287.34596252 C-25.30689033 280.80706881 -25.63846914 274.20777359 -25.58537292 266.47120667 C-25.5900529 265.41645928 -25.59473287 264.3617119 -25.59955466 263.27500248 C-25.61148752 259.75295369 -25.60205382 256.23129522 -25.59260559 252.70924377 C-25.59667203 250.179202 -25.60201432 247.649162 -25.60853577 245.11912537 C-25.62078755 238.96793715 -25.61900492 232.81689265 -25.61029784 226.66570258 C-25.6035133 221.66499923 -25.60260791 216.66432663 -25.60586929 211.66362 C-25.60632899 210.9509705 -25.60678869 210.238321 -25.60726232 209.50407606 C-25.60822153 208.05618818 -25.60919417 206.6083003 -25.61018009 205.16041243 C-25.61872775 191.59441266 -25.60890968 178.02847378 -25.592779 164.462484 C-25.57937637 152.83083959 -25.58170464 141.19928501 -25.59553528 129.56764221 C-25.61160214 116.04905818 -25.61790384 102.53052748 -25.60869849 89.01193523 C-25.60774287 87.56947518 -25.60679976 86.12701512 -25.60586929 84.68455505 C-25.60540647 83.9749002 -25.60494364 83.26524535 -25.60446679 82.53408581 C-25.60188022 77.54136214 -25.60624071 72.54867239 -25.61330795 67.55595398 C-25.62261693 60.83195967 -25.61595699 54.10816091 -25.59862518 47.38417435 C-25.59465993 44.91709296 -25.59579502 42.4499973 -25.60241318 39.9829216 C-25.61061689 36.61407816 -25.60032051 33.24577731 -25.58537292 29.87696838 C-25.59206509 28.90186341 -25.59875726 27.92675844 -25.60565221 26.92210484 C-25.53035595 18.16642148 -23.58765965 11.55732517 -17.204422 5.17408752 C-11.54044544 1.19021188 -6.82054198 0.05828066 0 0 Z " fill="#AAAAAE" transform="translate(65.20442199707031,137.82591247558594)"/>
<path d="M0 0 C3.91652632 -0.08714316 7.83280311 -0.14043985 11.75 -0.1875 C12.86117188 -0.21263672 13.97234375 -0.23777344 15.1171875 -0.26367188 C16.18710937 -0.27333984 17.25703125 -0.28300781 18.359375 -0.29296875 C19.34389648 -0.3086792 20.32841797 -0.32438965 21.34277344 -0.34057617 C24.50133956 0.06425659 25.69439461 0.83702186 28 3 C28.50139666 5.00306028 28.50139666 5.00306028 28.50336456 7.34039974 C28.51379555 8.23217196 28.52422654 9.12394419 28.53497362 10.04273981 C28.52605073 11.02346462 28.51712785 12.00418943 28.50793457 13.01463318 C28.51729451 14.57620347 28.51729451 14.57620347 28.52684355 16.16932064 C28.54286093 19.67487506 28.53013471 23.17974255 28.51757812 26.68530273 C28.52299537 29.19154264 28.53011578 31.69777936 28.53881836 34.20401001 C28.55520174 40.31514096 28.55275206 46.42601548 28.5411678 52.53714996 C28.53214303 57.50321285 28.53090531 62.46922065 28.53526306 67.43528938 C28.53587599 68.14144514 28.53648893 68.84760089 28.53712043 69.57515531 C28.53839931 71.0096028 28.53969616 72.44405027 28.5410108 73.87849773 C28.55242438 87.33802568 28.53929117 100.79744476 28.51780933 114.25695486 C28.49994148 125.80978553 28.5030383 137.36245544 28.52148438 148.9152832 C28.54288408 162.32430023 28.55132158 175.73322174 28.53903532 189.14225346 C28.5377611 190.57180057 28.53650362 192.00134771 28.53526306 193.43089485 C28.53464596 194.13429516 28.53402886 194.83769546 28.53339306 195.56241093 C28.52993715 200.52290232 28.53577373 205.48333321 28.54518127 210.44381523 C28.55756284 217.11935897 28.54876411 223.79455168 28.52560425 230.47008133 C28.52030226 232.92432334 28.5218562 235.37859084 28.53065491 237.8328228 C28.54153485 241.17502546 28.52793715 244.51624378 28.50793457 247.85838318 C28.5213189 249.32612431 28.5213189 249.32612431 28.53497362 250.82351679 C28.4587709 257.35733472 28.4587709 257.35733472 26.14006805 260.6054697 C23.31956991 262.44338794 21.49244868 262.45902956 18.140625 262.390625 C17.02558594 262.37773437 15.91054688 262.36484375 14.76171875 262.3515625 C13.02341797 262.30128906 13.02341797 262.30128906 11.25 262.25 C10.07566406 262.23195313 8.90132813 262.21390625 7.69140625 262.1953125 C4.7934466 262.1481912 1.89713582 262.08241305 -1 262 C-0.67509929 261.38586809 -0.35019857 260.77173618 -0.01545238 260.13899422 C1.43144091 255.66631806 1.27197446 251.44912183 1.24723816 246.77609253 C1.24965257 245.7367148 1.25206699 244.69733708 1.25455457 243.62646306 C1.2601967 240.1387698 1.25152446 236.65125928 1.24291992 233.16357422 C1.24399266 230.66527253 1.24593122 228.16697107 1.24867249 225.66867065 C1.25302068 219.58494341 1.24807669 213.50128788 1.23882218 207.41757141 C1.22843561 200.33504932 1.22850843 193.25253898 1.22899476 186.1700107 C1.2294953 173.53569226 1.22033563 160.90139915 1.20581055 148.26708984 C1.19171733 136.00211119 1.18464004 123.73715483 1.18530273 111.47216797 C1.18534269 110.71648092 1.18538265 109.96079387 1.18542381 109.18220721 C1.18546417 108.42783681 1.18550452 107.67346641 1.1855461 106.8962363 C1.18623558 92.93828344 1.18034877 78.98034006 1.17139288 65.02239027 C1.16837431 60.08296929 1.16731307 55.14355006 1.16686058 50.20412827 C1.16610804 43.56068407 1.15977306 36.91726038 1.14969444 30.27382278 C1.14676546 27.83044326 1.14554487 25.38706102 1.14612198 22.94367981 C1.14661021 19.61907464 1.14098129 16.2945361 1.13371277 12.96994019 C1.13526137 11.99378844 1.13680997 11.0176367 1.1384055 10.0119046 C1.13356883 8.68039641 1.13356883 8.68039641 1.12863445 7.32198906 C1.12793003 6.55424687 1.1272256 5.78650469 1.12649983 4.99549758 C1.07203915 2.79015875 1.07203915 2.79015875 0 0 Z " fill="#62E1E6" transform="translate(427,155)"/>
<path d="M0 0 C1.60488281 0.01450195 1.60488281 0.01450195 3.2421875 0.02929688 C4.35335937 0.05443359 5.46453125 0.07957031 6.609375 0.10546875 C8.29933594 0.12577148 8.29933594 0.12577148 10.0234375 0.14648438 C12.80256764 0.1818123 15.58072863 0.23114355 18.359375 0.29296875 C18.029375 1.28296875 17.699375 2.27296875 17.359375 3.29296875 C17.26893176 4.74369441 17.2338384 6.19823701 17.23353386 7.65177917 C17.22962224 8.99558765 17.22962224 8.99558765 17.22563159 10.36654377 C17.22786232 11.35184165 17.23009304 12.33713953 17.23239136 13.35229492 C17.23005137 14.92104889 17.23005137 14.92104889 17.22766411 16.52149487 C17.22365997 20.04298987 17.22684153 23.56444214 17.22998047 27.0859375 C17.22862617 29.60364813 17.22684608 32.12135855 17.22467041 34.6390686 C17.2205747 40.77785897 17.22118693 46.91663339 17.22408305 53.05542397 C17.22633907 58.04340989 17.22664874 63.03139238 17.22555923 68.01937866 C17.225406 68.7285985 17.22525277 69.43781834 17.22509489 70.16852969 C17.22477518 71.6091799 17.22445096 73.0498301 17.2241223 74.4904803 C17.221269 88.00764239 17.22455219 101.52479771 17.22992267 115.04195869 C17.23439057 126.64679096 17.2336146 138.25161322 17.22900391 149.85644531 C17.22365551 163.32439113 17.22154367 176.79233101 17.22461617 190.26027775 C17.22493473 191.69570478 17.2252491 193.13113181 17.22555923 194.56655884 C17.22571351 195.27286397 17.22586779 195.9791691 17.22602674 196.70687741 C17.22689109 201.69035909 17.22543075 206.67383701 17.22307968 211.65731812 C17.21998644 218.36147176 17.22218058 225.06560355 17.22797394 231.76975632 C17.2293004 234.23571109 17.22890934 236.70166746 17.22671127 239.16762161 C17.22399534 242.52298375 17.22738644 245.8782844 17.23239136 249.23364258 C17.22904527 250.7115894 17.22904527 250.7115894 17.22563159 252.21939373 C17.22823934 253.11526605 17.23084709 254.01113836 17.23353386 254.93415833 C17.23377739 256.09651111 17.23377739 256.09651111 17.23402584 257.28234577 C17.28599434 259.50046915 17.28599434 259.50046915 18.359375 262.29296875 C14.44295789 262.40915639 10.52698399 262.48021529 6.609375 262.54296875 C5.49820313 262.57648438 4.38703125 262.61 3.2421875 262.64453125 C2.17226562 262.65742188 1.10234375 262.6703125 0 262.68359375 C-0.98452148 262.70454102 -1.96904297 262.72548828 -2.98339844 262.74707031 C-6.60854136 262.12755857 -7.48976355 261.29671893 -9.640625 258.29296875 C-10.24901824 254.91829436 -10.17975641 251.57243357 -10.14855957 248.15135193 C-10.15479953 247.10874507 -10.1610395 246.06613822 -10.16746855 244.99193722 C-10.18346413 241.48715411 -10.1707682 237.98306015 -10.15820312 234.47827148 C-10.16362127 231.97026157 -10.17074218 229.46225483 -10.17944336 226.95425415 C-10.19581629 220.84292735 -10.19338293 214.73185713 -10.1817928 208.62052684 C-10.17276482 203.65495602 -10.1715317 198.68944028 -10.17588806 193.7238636 C-10.17650099 193.01755461 -10.17711393 192.31124563 -10.17774543 191.58353334 C-10.17902431 190.14876165 -10.18032116 188.71398998 -10.1816358 187.27921832 C-10.19304532 173.8216238 -10.17992166 160.36413822 -10.15843433 146.90656156 C-10.1405591 135.35342465 -10.14367017 123.80044847 -10.16210938 112.24731445 C-10.18350288 98.83683486 -10.19195074 85.42645074 -10.17966032 72.01595646 C-10.1783861 70.5867237 -10.17712861 69.15749092 -10.17588806 67.72825813 C-10.17527096 67.0250121 -10.17465386 66.32176607 -10.17401806 65.59720955 C-10.17056087 60.63573583 -10.17640132 55.67432256 -10.18580627 50.7128582 C-10.19817907 44.03894575 -10.18940355 37.36538466 -10.16622925 30.69148636 C-10.16092349 28.23682347 -10.16248757 25.7821351 -10.17127991 23.32748222 C-10.18214485 19.98717157 -10.16858078 16.64784892 -10.14855957 13.30760193 C-10.15748246 12.32687712 -10.16640534 11.3461523 -10.17559862 10.33570856 C-10.16516763 9.44393634 -10.15473664 8.55216411 -10.14398956 7.63336849 C-10.14334015 6.86204647 -10.14269074 6.09072445 -10.14202166 5.29602903 C-9.640625 3.29296875 -9.640625 3.29296875 -7.77524137 1.54297978 C-5.02439317 -0.06789074 -3.17466268 -0.05065951 0 0 Z " fill="#6277E6" transform="translate(66.640625,154.70703125)"/>
<path d="M0 0 C1.18239258 0.00676758 1.18239258 0.00676758 2.38867188 0.01367188 C4.32164761 0.02538688 6.25458393 0.04332002 8.1875 0.0625 C8.87005859 1.72345703 8.87005859 1.72345703 9.56640625 3.41796875 C11.73676631 8.29735654 14.24860074 11.05793812 19.1875 13.0625 C25.82091406 13.81709472 32.68894307 13.98607961 38.59765625 10.55078125 C41.64146659 7.7014158 42.92199648 3.95891873 44.1875 0.0625 C59.82257722 -0.27904295 72.37048998 1.2541444 85 11.75 C94.95204109 21.28737271 100.06372391 33.14945002 100.42578125 46.84765625 C100.49681287 52.26369844 100.32143778 57.63801994 100.1875 63.0625 C91.2775 63.0625 82.3675 63.0625 73.1875 63.0625 C72.8575 56.7925 72.5275 50.5225 72.1875 44.0625 C70.8675 44.3925 69.5475 44.7225 68.1875 45.0625 C67.8575 50.0125 67.5275 54.9625 67.1875 60.0625 C65.66125 59.03125 64.135 58 62.5625 56.9375 C46.60744512 46.78240685 29.21010529 43.30388938 10.46484375 46.74609375 C1.29185627 49.65872877 -6.85579018 54.75802679 -14.8125 60.0625 C-15.3075 52.6375 -15.3075 52.6375 -15.8125 45.0625 C-17.1325 44.7325 -18.4525 44.4025 -19.8125 44.0625 C-20.1425 50.3325 -20.4725 56.6025 -20.8125 63.0625 C-29.7225 63.0625 -38.6325 63.0625 -47.8125 63.0625 C-48.26290214 38.29038204 -48.26290214 38.29038204 -44.8125 30.0625 C-44.48378906 29.23105469 -44.15507812 28.39960938 -43.81640625 27.54296875 C-38.35880545 15.24920362 -28.9925673 7.71299161 -17 2.25 C-11.2448309 0.1059174 -6.06785046 -0.06612075 0 0 Z " fill="#F16175" transform="translate(229.8125,177.9375)"/>
<path d="M0 0 C4.1119222 1.33177182 8.11583719 2.82479165 12.125 4.4375 C30.23530095 11.39512974 48.340097 12.31350471 67.5 12.125 C69.30598454 12.11493609 71.1119746 12.10581635 72.91796875 12.09765625 C77.27878587 12.07594514 81.63932923 12.04160945 86 12 C86.14752942 16.39546883 86.23481071 20.79028616 86.3125 25.1875 C86.35439453 26.41404297 86.39628906 27.64058594 86.43945312 28.90429688 C86.63276307 43.5571906 81.17656349 55.3342906 71.5 66.125 C61.25783289 76.01126169 47.88427291 79.45168956 34.11230469 79.43383789 C22.01050432 79.1812804 13.00146403 75.13321258 4 67 C3.38640625 66.50113281 2.7728125 66.00226563 2.140625 65.48828125 C-4.93677484 59.27206944 -11.48412042 47.28752123 -12.15258789 37.84448242 C-12.19607236 35.43444893 -12.17496498 33.03484952 -12.125 30.625 C-12.11597656 29.79355469 -12.10695312 28.96210937 -12.09765625 28.10546875 C-12.0742622 26.07018663 -12.03839725 24.03505436 -12 22 C-11.21665283 21.7642627 -10.43330566 21.52852539 -9.6262207 21.28564453 C-6.88855976 20.24507834 -6.88855976 20.24507834 -5.78979492 17.93701172 C-5.52271729 17.10959473 -5.25563965 16.28217773 -4.98046875 15.4296875 C-4.68076172 14.53378906 -4.38105469 13.63789062 -4.07226562 12.71484375 C-3.78029297 11.77769531 -3.48832031 10.84054688 -3.1875 9.875 C-2.87619141 8.93011719 -2.56488281 7.98523438 -2.24414062 7.01171875 C-1.47853366 4.67956216 -0.73144991 2.34304934 0 0 Z " fill="#F6AD23" transform="translate(219,76)"/>
<path d="M0 0 C1.66161651 -0.00031393 1.66161651 -0.00031393 3.35680103 -0.00063419 C4.62831516 -0.01046833 5.89982929 -0.02030247 7.20987415 -0.03043461 C8.62195567 -0.021062 10.03403454 -0.01128266 11.44611073 -0.00113773 C12.9310962 -0.00492026 14.41607816 -0.01041976 15.90105152 -0.01751041 C19.93862173 -0.03149726 23.97576728 -0.02027019 28.01331401 -0.0037992 C32.24033148 0.01004138 36.46732402 0.00359186 40.69435596 0.00006771 C47.79885165 -0.00263668 54.90317863 0.01085573 62.00763416 0.03401852 C70.21064818 0.06057861 78.41337917 0.06239251 86.6164214 0.05063015 C94.51281603 0.0398293 102.4091087 0.04606082 110.30549526 0.06018543 C113.66216739 0.06593042 117.01876455 0.06587415 120.37543774 0.06112003 C124.33586776 0.05632829 128.29599034 0.06654234 132.25636196 0.08807468 C133.70590777 0.09361482 135.15548328 0.09413347 136.60503101 0.08912182 C146.11979676 0.0603651 154.49462851 0.15205499 161.90754896 6.94595146 C167.69429005 13.50382598 169.01062168 19.8648681 168.90755177 28.39290524 C168.91464615 29.45596858 168.92174054 30.51903193 168.92904991 31.61430931 C168.94658209 35.15880116 168.92854821 38.70218954 168.91046619 42.246665 C168.91560679 44.7949387 168.92288912 47.34320885 168.93214893 49.89147091 C168.94873302 56.08372497 168.94204086 62.27557326 168.92406071 68.46781182 C168.91000916 73.50234436 168.90614738 78.53679125 168.90950298 83.57134151 C168.90998043 84.28911752 168.91045787 85.00689353 168.91094978 85.74642032 C168.91197615 87.20477496 168.91303152 88.66312957 168.91411554 90.12148416 C168.92267434 103.00409456 168.90603435 115.88655261 168.87628651 128.76912594 C168.84745107 141.25682124 168.8403666 153.74429709 168.85577869 166.23201656 C168.87255682 179.84512465 168.87655866 193.45812865 168.85906833 207.07123947 C168.85722403 208.5240933 168.85538931 209.97694714 168.85356426 211.42980099 C168.85265217 212.14454836 168.85174008 212.85929573 168.85080035 213.59570211 C168.84520496 218.62153538 168.84849281 223.64731767 168.85510921 228.67314816 C168.86366838 235.44318715 168.8506281 242.2128637 168.82326031 248.98286724 C168.81638103 251.46564834 168.81627356 253.94845894 168.82347584 256.43123913 C168.83218266 259.82392264 168.81619196 263.21563482 168.79402637 266.60823727 C168.80226714 267.58752917 168.81050791 268.56682108 168.8189984 269.5757885 C168.73060471 276.92121633 167.11445663 283.05169408 162.38483143 288.80525875 C161.75190174 289.32346188 161.11897205 289.841665 160.46686268 290.37557125 C159.84166737 290.90924313 159.21647205 291.442915 158.57233143 291.99275875 C151.57683666 296.59286263 145.87266701 296.91380794 137.65826893 296.79354 C136.00842251 296.78717274 136.00842251 296.78717274 134.32524586 296.78067684 C130.83053023 296.76395527 127.33640247 296.7263142 123.84186268 296.68807125 C121.46491791 296.67301603 119.08796406 296.65932909 116.7110033 296.64705563 C110.90023175 296.61407295 105.08989671 296.5623349 99.27936268 296.50057125 C99.60936268 292.87057125 99.93936268 289.24057125 100.27936268 285.50057125 C102.36788563 285.47869747 102.36788563 285.47869747 104.49860096 285.4563818 C109.67610518 285.39830581 114.85317875 285.32107283 120.03033924 285.23812008 C122.26887478 285.2049146 124.50749317 285.17686909 126.74615955 285.1541357 C129.96852307 285.1205098 133.19013041 285.06818853 136.41217518 285.01229 C137.90782505 285.00270512 137.90782505 285.00270512 139.43369007 284.9929266 C144.72557913 284.8815539 148.81858173 284.66705709 153.27936268 281.50057125 C157.16626864 276.81749459 156.70518869 271.96942628 156.67377186 266.18295956 C156.67986296 265.13344787 156.68595407 264.08393618 156.69222975 263.00262111 C156.70889941 259.48042533 156.70407816 255.95858948 156.69928455 252.43636227 C156.70662252 249.91336852 156.71520795 247.39037815 156.72494984 244.86739254 C156.74489021 238.72249247 156.75054493 232.5777252 156.74876195 226.43279714 C156.74745422 221.43819991 156.751259 216.44363211 156.75868702 211.44904041 C156.76078621 210.01025405 156.76288382 208.57146768 156.76497984 207.13268131 C156.76602337 206.41655589 156.76706689 205.70043047 156.76814204 204.96260428 C156.78704268 191.42005426 156.78599467 177.87755842 156.77917272 164.33500069 C156.77359643 151.94618898 156.79442654 139.55758401 156.82753319 127.16882063 C156.86126612 114.44693593 156.87643909 101.72515028 156.87181616 89.00322002 C156.86957118 81.86122939 156.87481876 74.71942988 156.89970875 67.57747746 C156.92291167 60.86246889 156.92014416 54.14796162 156.89978123 47.43292141 C156.89636142 44.9666088 156.90150172 42.50026746 156.91576481 40.03399372 C156.93387631 36.67054428 156.92126671 33.30857049 156.90082264 29.94516659 C156.91334049 28.96608052 156.92585834 27.98699446 156.93875551 26.97823912 C156.88106788 22.560312 156.72613696 19.45483913 153.92802143 15.91028404 C149.95518926 12.29585674 147.0363903 12.37081338 141.84438038 12.34235287 C140.8604829 12.3349459 140.8604829 12.3349459 139.85670871 12.3273893 C137.65490387 12.31200951 135.45312821 12.3036524 133.25128651 12.29524899 C131.67450675 12.28567084 130.09772957 12.27566079 128.52095509 12.26525021 C124.23616185 12.23818821 119.95135759 12.21718565 115.66652608 12.19724822 C111.19017633 12.17539666 106.71386063 12.14800391 102.23753834 12.12119198 C93.75907429 12.07125387 85.28059136 12.02631918 76.80209035 11.98316962 C67.15042863 11.9338068 57.49880107 11.87888513 47.84717238 11.82349002 C27.99126763 11.7096528 8.13533027 11.60281754 -11.72063732 11.50057125 C-11.72063732 10.84057125 -11.72063732 10.18057125 -11.72063732 9.50057125 C-10.27612785 8.28076325 -8.82742862 7.06379422 -7.32610607 5.91463375 C-5.60342951 4.54373786 -5.60342951 4.54373786 -4.50013542 2.44351768 C-2.72063732 0.50057125 -2.72063732 0.50057125 0 0 Z " fill="#DCDBDE" transform="translate(303.72063732147217,137.49942874908447)"/>
<path d="M0 0 C18.35874933 -0.25728254 36.7170291 -0.45109174 55.07719326 -0.56993389 C63.60277608 -0.62658862 72.12723705 -0.70378506 80.65209961 -0.82983398 C88.08491549 -0.93968321 95.51691883 -1.0104883 102.95052391 -1.03497344 C106.8849091 -1.04928166 110.81697045 -1.08274945 114.75060844 -1.16303062 C118.45893962 -1.23809538 122.16400711 -1.26065468 125.87302589 -1.24418449 C127.87201386 -1.24862148 129.87065136 -1.30762404 131.86871338 -1.36862183 C137.1925552 -1.30193473 140.6117242 -1.23379329 144.69172859 2.39220238 C147.0660553 5.32804871 147.0660553 5.32804871 149.03715611 8.2470274 C151.49398313 11.6928325 154.01129311 14.28115291 158.04753494 15.74011135 C160.13120649 16.01746463 162.13690179 16.13954101 164.23944092 16.15821838 C165.07794083 16.1680072 165.91644073 16.17779602 166.78034973 16.18788147 C167.69169174 16.19363693 168.60303375 16.1993924 169.54199219 16.20532227 C170.50817978 16.21522186 171.47436737 16.22512146 172.46983337 16.23532104 C175.66215569 16.26689842 178.85449288 16.29167869 182.046875 16.31640625 C184.26076646 16.33697902 186.47465402 16.35797558 188.6885376 16.37937927 C194.51475872 16.43456656 200.3410151 16.48399063 206.16729736 16.53222656 C212.11286557 16.58246595 218.05838259 16.6381393 224.00390625 16.69335938 C235.66922711 16.80090008 247.33459241 16.90235418 259 17 C259 20.96 259 24.92 259 29 C229.61482315 29.09132149 200.2296564 29.16207536 170.84436659 29.20426132 C167.37231838 29.20926393 163.90027045 29.21444124 160.42822266 29.21972656 C159.39142337 29.22130043 159.39142337 29.22130043 158.33367865 29.22290608 C147.1532997 29.24029417 135.97300333 29.27182301 124.7926733 29.30861118 C113.31395969 29.34606515 101.83530407 29.36794599 90.35653055 29.37635398 C83.91185624 29.3815655 77.46736899 29.39380166 71.02275467 29.42292023 C64.9538375 29.45011851 58.88518403 29.45843592 52.8162117 29.45243073 C50.59184332 29.45352897 48.36746591 29.46145628 46.14315033 29.4768219 C43.09850027 29.49681847 40.05483679 29.49190359 37.01016235 29.48101807 C36.13659076 29.49266943 35.26301917 29.5043208 34.36297572 29.51632524 C26.19368583 29.4377537 18.40070842 27.02824399 12.375 21.3125 C11.72273438 20.71050781 11.07046875 20.10851562 10.3984375 19.48828125 C9 18 9 18 9 17 C28.8 16.67 48.6 16.34 69 16 C68.505 14.02 68.505 14.02 68 12 C47.21 11.67 26.42 11.34 5 11 C0 1 0 1 0 0 Z " fill="#CBCBCC" transform="translate(22,440)"/>
<path d="M0 0 C4.65370452 4.27764759 7.81681934 9.28376279 10.8125 14.8125 C11.24949219 15.59753906 11.68648438 16.38257812 12.13671875 17.19140625 C16.46458858 26.65197784 15.16205715 37.65248699 14.8125 47.8125 C-12.18601131 51.11342689 -44.17721687 50.84072197 -67.953125 35.8515625 C-70.08484082 34.63792399 -70.08484082 34.63792399 -72.21142578 34.97021484 C-74.35323073 35.64316165 -74.35323073 35.64316165 -75.25244141 37.74609375 C-75.51202637 38.57238281 -75.77161133 39.39867187 -76.0390625 40.25 C-76.33296875 41.14460938 -76.626875 42.03921875 -76.9296875 42.9609375 C-77.36667969 44.37246094 -77.36667969 44.37246094 -77.8125 45.8125 C-78.40242288 47.66872286 -78.99846659 49.52301522 -79.6015625 51.375 C-79.8588916 52.20128906 -80.1162207 53.02757813 -80.38134766 53.87890625 C-81.1875 55.8125 -81.1875 55.8125 -83.1875 56.8125 C-83.28762648 52.59910063 -83.35954874 48.38636186 -83.40722656 44.17211914 C-83.42713609 42.74361076 -83.45427429 41.31518162 -83.48925781 39.88696289 C-83.84601477 24.92940264 -80.32129973 13.03188655 -70.2265625 1.58984375 C-49.86467584 -18.05294283 -21.54075349 -17.21612803 0 0 Z " fill="#6F6F6F" transform="translate(290.1875,34.1875)"/>
<path d="M0 0 C1.27070469 -0.00260775 2.54140938 -0.00521549 3.85062027 -0.00790226 C5.27396916 -0.00573987 6.6973179 -0.0034832 8.1206665 -0.0011425 C9.62239495 -0.00229367 11.12412311 -0.00388116 12.62585068 -0.00586975 C16.76765121 -0.01006371 20.90942884 -0.00797207 25.05122948 -0.00488353 C29.51208022 -0.00262992 33.97292691 -0.00610884 38.43377686 -0.00886345 C47.17857349 -0.01332056 55.92336156 -0.01234494 64.66815853 -0.00945081 C71.77240507 -0.00719655 78.8766492 -0.00688435 85.980896 -0.00797462 C86.99027906 -0.00812786 87.99966213 -0.00828109 89.03963256 -0.00843897 C91.08988603 -0.00875868 93.1401395 -0.00908289 95.19039297 -0.00941156 C114.43595832 -0.01226618 133.68151892 -0.00897961 152.92708349 -0.00361119 C169.45678282 0.00085683 185.98647512 0.00008089 202.51617432 -0.00452995 C221.69076274 -0.00987603 240.865347 -0.01199149 260.03993607 -0.00891769 C262.08283742 -0.00859912 264.12573878 -0.00828475 266.16864014 -0.00797462 C267.17390487 -0.00782035 268.17916961 -0.00766607 269.21489692 -0.00750712 C276.31430648 -0.00664207 283.4137134 -0.0081046 290.51312256 -0.01045418 C299.15961699 -0.01325275 307.80610233 -0.0125127 316.45259571 -0.00717343 C320.86794345 -0.0045372 325.28327602 -0.00353006 329.69862366 -0.00682259 C333.73504832 -0.00978713 337.77144365 -0.00819007 341.80786562 -0.00284503 C343.27351111 -0.00172153 344.73915905 -0.00231057 346.20480299 -0.00472082 C348.18637904 -0.0077313 350.16796197 -0.0040666 352.14953613 0 C353.25343815 0.00016235 354.35734016 0.0003247 355.49469376 0.00049198 C358.07476807 0.12584114 358.07476807 0.12584114 360.07476807 1.12584114 C360.11748907 2.79196019 360.11540639 4.45966999 360.07476807 6.12584114 C358.28949488 7.91111433 355.65107894 7.2513297 353.23855591 7.25168228 C351.96225878 7.25429003 350.68596165 7.25689778 349.37098885 7.25958455 C347.93614819 7.25742202 346.50130767 7.25516534 345.06646729 7.25282478 C343.55663961 7.25397562 342.04681221 7.25556288 340.5369854 7.25755203 C336.36819182 7.26175056 332.19942094 7.25965231 328.03062725 7.25656581 C323.54251128 7.25431405 319.05439936 7.2577902 314.56628418 7.26054573 C305.7662064 7.26500483 296.96613713 7.26402634 288.16605902 7.26113309 C281.01744358 7.2588796 273.86883053 7.2585663 266.72021484 7.25965691 C265.19717784 7.25988676 265.19717784 7.25988676 263.64337242 7.26012125 C261.58103768 7.26044096 259.51870294 7.26076517 257.45636821 7.26109384 C238.09352191 7.26394904 218.73068033 7.26066098 199.36783481 7.25529347 C182.73433623 7.2508254 166.10084464 7.25160132 149.46734619 7.25621223 C130.17631223 7.26155729 110.88528242 7.26367435 91.59424782 7.26059997 C89.53927231 7.2602814 87.4842968 7.25996703 85.42932129 7.25965691 C84.41809263 7.25950263 83.40686397 7.25934836 82.36499202 7.2591894 C75.22054055 7.25832404 68.07609169 7.25978754 60.93164062 7.26213646 C52.23129461 7.2649339 43.53095763 7.26419739 34.83061266 7.25885572 C30.38704207 7.25621793 25.94348657 7.25521492 21.49991608 7.25850487 C17.4388316 7.26146627 13.3777763 7.25987765 9.3166945 7.25452732 C7.84094276 7.25340246 6.3651886 7.25399581 4.88943839 7.2564031 C2.89662064 7.25940659 0.90379607 7.25575403 -1.08901978 7.25168228 C-2.19991911 7.25151993 -3.31081844 7.25135758 -4.45538139 7.2511903 C-6.92523193 7.12584114 -6.92523193 7.12584114 -7.92523193 6.12584114 C-7.96587025 4.45966999 -7.96795293 2.79196019 -7.92523193 1.12584114 C-5.19833227 -0.23760869 -3.05434732 0.00044921 0 0 Z " fill="#3F3678" transform="translate(79.92523193359375,489.87415885925293)"/>
<path d="M0 0 C4.11092959 1.77517414 6.73298981 4.13768634 9 8 C9.82503209 12.50850867 9.519162 15.94004425 7.5 20.0625 C2.46405573 25.97973451 -3.11541862 31.16168787 -9 36.21875 C-11.08337078 38.0742521 -13.04281207 40.01223101 -15 42 C-18.18143524 45.22484663 -21.47537401 48.24344024 -24.91015625 51.1953125 C-28.02161468 53.88221679 -31.06526926 56.64426738 -34.1171875 59.3984375 C-37.70947573 62.45411836 -40.32929587 62.37666969 -45 62 C-52.71780128 59.20562368 -58.43856973 53.64181248 -64.50537109 48.28125 C-65.88162963 47.10147136 -67.32352393 45.99942338 -68.76953125 44.90625 C-71.66299158 42.43338023 -72.78348063 40.57187438 -73.30078125 36.81640625 C-73.32545885 32.07008034 -73.21307701 28.7670558 -70 25 C-66.30230056 21.84607989 -62.90803866 21.48081457 -58.20703125 21.64453125 C-53.66097373 22.37672813 -50.74616108 25.32663512 -47.4375 28.3125 C-45.18470243 30.21676231 -45.18470243 30.21676231 -42.7421875 29.98828125 C-38.76152646 28.55365555 -36.53983355 25.92188724 -33.6875 22.875 C-32.53178337 21.67921291 -31.3742406 20.48518796 -30.21484375 19.29296875 C-29.66038574 18.71981934 -29.10592773 18.14666992 -28.53466797 17.55615234 C-26.11430588 15.10190673 -23.5398889 12.85806526 -20.9140625 10.62890625 C-17.84613131 8.0180342 -14.87337604 5.30036375 -11.8828125 2.6015625 C-8.22201419 -0.51239456 -4.63851452 -0.49155741 0 0 Z " fill="#423B7C" transform="translate(288,253)"/>
<path d="M0 0 C29.7 0 59.4 0 90 0 C86 10 86 10 85 11 C83.03712234 11.12363297 81.06984842 11.1779544 79.10327148 11.20532227 C77.21142372 11.2352401 77.21142372 11.2352401 75.28135681 11.26576233 C73.89460373 11.28274795 72.50784934 11.29962671 71.12109375 11.31640625 C69.7100411 11.33696926 68.29899471 11.35796555 66.88795471 11.37937927 C63.1676641 11.43466755 59.44731727 11.48404686 55.72692871 11.53222656 C51.93313575 11.58239242 48.13942477 11.63810408 44.34570312 11.69335938 C36.89720477 11.80102351 29.44863841 11.90244997 22 12 C21.67 13.32 21.34 14.64 21 16 C50.7 16.495 50.7 16.495 81 17 C75.40860244 23.70967707 71.40118254 26.65293789 63 29 C59.5071106 29.24050903 59.5071106 29.24050903 55.61767578 29.22705078 C54.54834557 29.22748886 54.54834557 29.22748886 53.45741272 29.22793579 C51.11991868 29.22655138 48.78275031 29.2110326 46.4453125 29.1953125 C44.81721165 29.1915792 43.18910854 29.18873372 41.56100464 29.18673706 C37.28993452 29.17912556 33.01900189 29.15949856 28.74798584 29.1373291 C24.38409281 29.11681703 20.02017742 29.1077239 15.65625 29.09765625 C7.1041038 29.07625018 -1.44793097 29.04214442 -10 29 C-10 25.04 -10 21.08 -10 17 C-5.38 16.67 -0.76 16.34 4 16 C4.33 14.68 4.66 13.36 5 12 C1.7 11.67 -1.6 11.34 -5 11 C-4 7 -4 7 0 0 Z " fill="#C9C9CB" transform="translate(400,440)"/>
<path d="M0 0 C4.98357989 1.58503544 9.3658182 3.60300942 14 6 C14 11.28 14 16.56 14 22 C17.80859375 21.95117188 17.80859375 21.95117188 21.6171875 21.90234375 C24 22 24 22 26 23 C25.125 26.875 25.125 26.875 24 28 C22.31391034 28.07205511 20.62499341 28.08386068 18.9375 28.0625 C18.01839844 28.05347656 17.09929687 28.04445313 16.15234375 28.03515625 C15.44207031 28.02355469 14.73179687 28.01195313 14 28 C14 29.65 14 31.3 14 33 C14.78375 32.95875 15.5675 32.9175 16.375 32.875 C19 33 19 33 21 35 C21.125 38.125 21.125 38.125 21 41 C19.35 41.66 17.7 42.32 16 43 C19.51514223 53.01192927 19.51514223 53.01192927 25 62 C25.928125 61.79375 26.85625 61.5875 27.8125 61.375 C31 61 31 61 34 63 C38.07490752 63.33957563 39.53001271 63.31332486 43 61 C45.6875 61.375 45.6875 61.375 48 62 C47.65833158 64.47709607 47.21099798 65.77141885 45.5 67.625 C41.86436334 69.62460016 38.05665429 70.2632145 34 71 C34.68707031 71.40992188 35.37414062 71.81984375 36.08203125 72.2421875 C36.98308594 72.78101563 37.88414062 73.31984375 38.8125 73.875 C39.70582031 74.40867187 40.59914063 74.94234375 41.51953125 75.4921875 C43.37294724 76.61883092 45.19529917 77.79686611 47 79 C29.9126964 79.78760086 17.24856445 78.97065174 4 67 C3.38640625 66.50113281 2.7728125 66.00226563 2.140625 65.48828125 C-4.93677484 59.27206944 -11.48412042 47.28752123 -12.15258789 37.84448242 C-12.19607236 35.43444893 -12.17496498 33.03484952 -12.125 30.625 C-12.11597656 29.79355469 -12.10695312 28.96210937 -12.09765625 28.10546875 C-12.0742622 26.07018663 -12.03839725 24.03505436 -12 22 C-11.21665283 21.7642627 -10.43330566 21.52852539 -9.6262207 21.28564453 C-6.88855976 20.24507834 -6.88855976 20.24507834 -5.78979492 17.93701172 C-5.52271729 17.10959473 -5.25563965 16.28217773 -4.98046875 15.4296875 C-4.68076172 14.53378906 -4.38105469 13.63789062 -4.07226562 12.71484375 C-3.78029297 11.77769531 -3.48832031 10.84054688 -3.1875 9.875 C-2.87619141 8.93011719 -2.56488281 7.98523438 -2.24414062 7.01171875 C-1.47853366 4.67956216 -0.73144991 2.34304934 0 0 Z " fill="#F66F23" transform="translate(219,76)"/>
<path d="M0 0 C24.35652319 -0.21035174 48.71291001 -0.36900344 73.07015896 -0.46630955 C84.38000817 -0.51269394 95.68929262 -0.57591853 106.9987793 -0.67895508 C116.85752607 -0.76873157 126.71586379 -0.82674082 136.57500798 -0.84679645 C141.79438583 -0.85851818 147.01259362 -0.88601392 152.23159599 -0.95157051 C157.14768469 -1.01281983 162.06212547 -1.03147294 166.97855949 -1.01796913 C168.77932198 -1.02043813 170.58014152 -1.03824947 172.38057327 -1.07284927 C185.97324323 -1.32117703 185.97324323 -1.32117703 191.12510872 2.03715706 C193.38327975 4.24764007 195.27412228 6.35740546 197 9 C197 9.33 197 9.66 197 10 C172.62612832 10.16356649 148.25233896 10.28698327 123.87802887 10.3626852 C112.5604263 10.39877024 101.24316486 10.44796177 89.92578125 10.52807617 C80.06081968 10.59787572 70.19610518 10.64301458 60.33090353 10.65861946 C55.10784919 10.66774051 49.88550162 10.68915568 44.66267395 10.7401104 C39.74429761 10.78770504 34.82691758 10.80226453 29.90833282 10.79175377 C28.10557384 10.79367594 26.30278077 10.80755297 24.50022125 10.83443832 C9.19069258 11.05153699 9.19069258 11.05153699 3.92712402 6.63783264 C1.79036787 4.34756507 1.006459 3.019377 0 0 Z " fill="#CDCDCD" transform="translate(71,424)"/>
<path d="M0 0 C0.95418194 -0.00280692 1.90836388 -0.00561384 2.89146042 -0.00850582 C4.5358535 -0.02759251 4.5358535 -0.02759251 6.21346664 -0.04706478 C8.01821205 -0.03727596 8.01821205 -0.03727596 9.85941696 -0.02728939 C11.12632874 -0.03590496 12.39324051 -0.04452053 13.69854355 -0.05339718 C17.17613408 -0.07593006 20.6532703 -0.0729415 24.13090611 -0.06407571 C27.035777 -0.05896814 29.94056233 -0.066257 32.84542441 -0.07354778 C39.70221526 -0.09056136 46.55878368 -0.08696907 53.41556931 -0.07025814 C60.48153657 -0.0533595 67.54688504 -0.06913628 74.61278462 -0.10148102 C80.68343902 -0.12821386 86.75390124 -0.13544231 92.82460856 -0.12696594 C96.44836313 -0.12204436 100.07174597 -0.124209 103.69545364 -0.14475346 C107.74138314 -0.16659177 111.78614862 -0.14767061 115.83207321 -0.12494564 C117.02713989 -0.13663784 118.22220657 -0.14833004 119.4534874 -0.16037655 C126.52490633 -0.07958366 130.36678777 0.63244407 135.60453415 5.50615788 C136.09953415 6.24865788 136.59453415 6.99115788 137.10453415 7.75615788 C138.63624822 9.90577394 138.63624822 9.90577394 142.29203415 10.25615788 C143.38515915 10.33865788 144.47828415 10.42115788 145.60453415 10.50615788 C145.60453415 10.83615788 145.60453415 11.16615788 145.60453415 11.50615788 C93.79453415 11.50615788 41.98453415 11.50615788 -11.39546585 11.50615788 C-11.39546585 10.84615788 -11.39546585 10.18615788 -11.39546585 9.50615788 C-9.95095638 8.28634987 -8.50225715 7.06938085 -7.0009346 5.92022038 C-5.28056502 4.54330535 -5.28056502 4.54330535 -4.12555695 2.44994545 C-2.39546585 0.50615788 -2.39546585 0.50615788 0 0 Z " fill="#C8C7CA" transform="translate(303.3954658508301,137.49384212493896)"/>
<path d="M0 0 C1.26574356 -0.01504074 2.53148712 -0.03008148 3.83558655 -0.045578 C7.29645902 -0.08506587 10.75695682 -0.09866506 14.21803236 -0.10503602 C16.38339965 -0.11011223 18.54867135 -0.12063176 20.71400833 -0.13303185 C28.27700284 -0.17598428 35.83971935 -0.19724539 43.40283203 -0.19921875 C50.43913729 -0.20165279 57.47396803 -0.25265481 64.50985754 -0.32611066 C70.56276731 -0.38705994 76.61519246 -0.41313382 82.66840708 -0.41255397 C86.27861273 -0.41283655 89.88740377 -0.42711773 93.49729538 -0.47690773 C97.52657554 -0.53112691 101.55246106 -0.51285209 105.58203125 -0.48828125 C106.76878952 -0.51435455 107.95554779 -0.54042786 109.17826843 -0.56729126 C113.97803815 -0.4884121 117.15009055 -0.41203809 120.99019241 2.63799477 C126.42041016 8.63160733 126.42041016 8.63160733 126.42041016 10.59692383 C77.25041016 10.59692383 28.08041016 10.59692383 -22.57958984 10.59692383 C-15.93411896 0.6287175 -11.32402968 -0.00229845 0 0 Z " fill="#CDCDCD" transform="translate(92.57958984375,137.403076171875)"/>
<path d="M0 0 C0.66 0.66 1.32 1.32 2 2 C1.3709375 2.35191406 0.741875 2.70382813 0.09375 3.06640625 C-14.28275408 11.35887773 -22.63043368 21.86671309 -27.56640625 37.83203125 C-28.19145558 40.95727789 -28.35647909 44.07139168 -28.5625 47.25 C-28.64628906 48.51328125 -28.73007813 49.7765625 -28.81640625 51.078125 C-28.90728516 52.52445313 -28.90728516 52.52445313 -29 54 C-32.49426117 52.91234969 -35.56387278 51.82181811 -38.625 49.8125 C-41.67044947 47.80127309 -41.67044947 47.80127309 -44.09521484 48.109375 C-46.16420993 48.8488576 -46.16420993 48.8488576 -47.06494141 50.93359375 C-47.32452637 51.75988281 -47.58411133 52.58617187 -47.8515625 53.4375 C-48.14546875 54.33210938 -48.439375 55.22671875 -48.7421875 56.1484375 C-49.17917969 57.55996094 -49.17917969 57.55996094 -49.625 59 C-50.21492288 60.85622286 -50.81096659 62.71051522 -51.4140625 64.5625 C-51.6713916 65.38878906 -51.9287207 66.21507813 -52.19384766 67.06640625 C-53 69 -53 69 -55 70 C-55.10012648 65.78660063 -55.17204874 61.57386186 -55.21972656 57.35961914 C-55.23963609 55.93111076 -55.26677429 54.50268162 -55.30175781 53.07446289 C-55.65851477 38.11690264 -52.13379973 26.21938655 -42.0390625 14.77734375 C-30.807201 3.9421465 -15.53229576 -1.64773184 0 0 Z " fill="#5A5A5B" transform="translate(262,21)"/>
<path d="M0 0 C3.15047875 0.7160179 4.65959604 1.13259528 6.75 3.625 C7.3125 7 7.3125 7 6.75 10.625 C4.609375 12.953125 4.609375 12.953125 1.75 15.625 C0.72861056 16.64921509 -0.28815281 17.67805968 -1.30078125 18.7109375 C-6.5346983 23.99581616 -11.75059016 29.20774375 -17.4296875 34.01953125 C-19.44985725 35.80126895 -21.31080551 37.69310861 -23.1875 39.625 C-25.97681179 42.41978103 -28.80692246 45.12511779 -31.8125 47.6875 C-32.49441406 48.27660156 -33.17632812 48.86570312 -33.87890625 49.47265625 C-37.39861988 51.18322548 -39.51678978 50.63540146 -43.25 49.625 C-46.27734375 47.5859375 -46.27734375 47.5859375 -49.1875 45 C-49.69893555 44.54778076 -50.21037109 44.09556152 -50.73730469 43.62963867 C-52.24383664 42.29735562 -53.74697731 40.96124078 -55.25 39.625 C-56.09175781 38.97402344 -56.93351563 38.32304687 -57.80078125 37.65234375 C-63.08350964 33.53312925 -63.08350964 33.53312925 -63.9375 28.875 C-63.25 25.625 -63.25 25.625 -62.1875 23.6875 C-59.07976978 21.98326085 -56.74678184 22.27244381 -53.25 22.625 C-50.75283744 24.01199826 -48.69487354 25.79795904 -46.5625 27.6875 C-42.85112442 31.24970685 -42.85112442 31.24970685 -38.15234375 32.72265625 C-35.48001472 31.18071691 -33.62248847 29.23740027 -31.5 27 C-27.83938666 23.22112896 -24.10771764 19.6876161 -20.11328125 16.26953125 C-18.24548207 14.62101248 -16.49544376 12.90196419 -14.75 11.125 C-13.58598785 9.95568484 -12.41922233 8.78910539 -11.25 7.625 C-10.58871094 6.96628906 -9.92742187 6.30757813 -9.24609375 5.62890625 C-4.11691941 0.79171527 -4.11691941 0.79171527 0 0 Z " fill="#62B9E5" transform="translate(284.25,258.375)"/>
<path d="M0 0 C13.47342916 -0.1389636 26.94668809 -0.24560323 40.42068768 -0.31087303 C46.67711876 -0.34219799 52.9330599 -0.38469387 59.18920898 -0.45263672 C65.22575005 -0.51778501 71.26181961 -0.55369727 77.29868507 -0.56926346 C79.60285682 -0.58035774 81.9070025 -0.60202236 84.21097374 -0.63438034 C87.43638427 -0.67788159 90.6598418 -0.68393649 93.88549805 -0.68115234 C94.83999847 -0.702724 95.7944989 -0.72429565 96.77792358 -0.746521 C103.03076879 -0.68804415 103.03076879 -0.68804415 105.69852638 1.20576096 C108.35911467 4.16358713 109.65281344 7.06521897 110 11 C97.19568967 11.09269575 84.39145922 11.16376313 71.58688164 11.20724869 C65.64113383 11.22811999 59.69561565 11.25642988 53.75 11.30175781 C48.01173776 11.34523097 42.27369635 11.36914054 36.53528214 11.37950897 C34.34641163 11.38689763 32.15755316 11.40132592 29.9687767 11.42292023 C26.90193346 11.4519731 23.83600177 11.45595512 20.76904297 11.45410156 C19.86489151 11.46848267 18.96074005 11.48286377 18.02919006 11.49768066 C12.52171416 11.46168215 9.26775041 10.80524247 5 7 C3.16984993 4.73653516 1.59745967 2.44317362 0 0 Z " fill="#6F6F70" transform="translate(171,440)"/>
<path d="M0 0 C8.58 0 17.16 0 26 0 C26.0825 2.84625 26.165 5.6925 26.25 8.625 C26.28641602 9.51010254 26.32283203 10.39520508 26.36035156 11.30712891 C26.43528762 16.67714356 25.68245068 19.81539696 22 24 C17.61402067 27.10337188 12.13800624 26.62509868 7 26 C3.30065859 23.88609062 1.61962382 21.8711228 0 18 C-0.22705078 15.89355469 -0.22705078 15.89355469 -0.1953125 13.671875 C-0.19031738 12.9509668 -0.18532227 12.23005859 -0.18017578 11.48730469 C-0.16196777 10.58399414 -0.14375977 9.68068359 -0.125 8.75 C-0.08375 5.8625 -0.0425 2.975 0 0 Z " fill="#F4AC24" transform="translate(243,160)"/>
<path d="M0 0 C7.59 0 15.18 0 23 0 C23 11.22 23 22.44 23 34 C19.04 34 15.08 34 11 34 C10.87625 32.14375 10.87625 32.14375 10.75 30.25 C9.65900235 20.71497941 5.98317867 12.39701308 1.171875 4.1796875 C0 2 0 2 0 0 Z " fill="#F6AD23" transform="translate(306,247)"/>
<path d="M0 0 C7.59 0 15.18 0 23 0 C21.4467462 3.8831345 19.7918278 7.60320248 18 11.375 C14.48760667 18.98091256 12.76573948 25.70448895 12 34 C8.04 34 4.08 34 0 34 C0 22.78 0 11.56 0 0 Z " fill="#F6AE23" transform="translate(183,247)"/>
<path d="M0 0 C14.85 0 29.7 0 45 0 C45 0.33 45 0.66 45 1 C42.36 1 39.72 1 37 1 C36.72551025 1.59345215 36.45102051 2.1869043 36.16821289 2.79833984 C34.1413563 6.61823383 31.89389773 9.03854799 28 11 C23.01000747 11.72756832 18.08574549 11.56813167 13.0625 11.375 C11.69732448 11.34486081 10.33208483 11.31749194 8.96679688 11.29296875 C5.64288435 11.22249711 2.32227494 11.12400107 -1 11 C-0.67 7.37 -0.34 3.74 0 0 Z " fill="#CBCBCC" transform="translate(404,423)"/>
<path d="M0 0 C19.47 0 38.94 0 59 0 C59 0.33 59 0.66 59 1 C43.16 1.495 43.16 1.495 27 2 C32.87653738 7.15231186 32.87653738 7.15231186 39 12 C12.72598894 12.94276054 12.72598894 12.94276054 1.3984375 2.48828125 C0 1 0 1 0 0 Z " fill="#A6A6AC" transform="translate(31,457)"/>
<path d="M0 0 C1.25472107 0.00607269 1.25472107 0.00607269 2.53479004 0.01226807 C3.39286255 0.01035461 4.25093506 0.00844116 5.13500977 0.00646973 C6.95072726 0.00510763 8.76645449 0.00880579 10.58215332 0.01715088 C13.36736854 0.02785015 16.15193872 0.01725653 18.93713379 0.00445557 C20.69885397 0.00577716 22.46057374 0.00833954 24.22229004 0.01226807 C25.05877075 0.0082196 25.89525146 0.00417114 26.75708008 0 C32.6486217 0.04797473 32.6486217 0.04797473 34.87854004 2.27789307 C34.54854004 3.92789307 34.21854004 5.57789307 33.87854004 7.27789307 C20.34854004 7.27789307 6.81854004 7.27789307 -7.12145996 7.27789307 C-7.45145996 5.62789307 -7.78145996 3.97789307 -8.12145996 2.27789307 C-5.48960727 -0.35395963 -3.58277127 0.02917445 0 0 Z " fill="#3E3578" transform="translate(462.1214599609375,489.72210693359375)"/>
<path d="M0 0 C1.25472107 0.00607269 1.25472107 0.00607269 2.53479004 0.01226807 C3.39286255 0.01035461 4.25093506 0.00844116 5.13500977 0.00646973 C6.95072726 0.00510763 8.76645449 0.00880579 10.58215332 0.01715088 C13.36736854 0.02785015 16.15193872 0.01725653 18.93713379 0.00445557 C20.69885397 0.00577716 22.46057374 0.00833954 24.22229004 0.01226807 C25.05877075 0.0082196 25.89525146 0.00417114 26.75708008 0 C32.6486217 0.04797473 32.6486217 0.04797473 34.87854004 2.27789307 C34.54854004 3.92789307 34.21854004 5.57789307 33.87854004 7.27789307 C20.34854004 7.27789307 6.81854004 7.27789307 -7.12145996 7.27789307 C-7.45145996 5.62789307 -7.78145996 3.97789307 -8.12145996 2.27789307 C-5.48960727 -0.35395963 -3.58277127 0.02917445 0 0 Z " fill="#3F3578" transform="translate(23.1214599609375,489.72210693359375)"/>
<path d="M0 0 C1.084021 0.00523682 2.16804199 0.01047363 3.28491211 0.01586914 C5.03964844 0.02070313 5.03964844 0.02070313 6.82983398 0.02563477 C8.67738281 0.03820312 8.67738281 0.03820312 10.56225586 0.05102539 C12.41560547 0.05779297 12.41560547 0.05779297 14.30639648 0.06469727 C17.37089703 0.07652931 20.43530307 0.09301366 23.49975586 0.11352539 C22.85707149 1.76059092 22.21051784 3.40614714 21.56225586 5.05102539 C21.20260742 5.96754883 20.84295898 6.88407227 20.47241211 7.82836914 C19.49975586 10.11352539 19.49975586 10.11352539 18.49975586 11.11352539 C16.57308079 11.20100746 14.64323725 11.22049873 12.71459961 11.21118164 C11.54477539 11.20795898 10.37495117 11.20473633 9.16967773 11.20141602 C7.32212891 11.18884766 7.32212891 11.18884766 5.43725586 11.17602539 C3.58390625 11.16925781 3.58390625 11.16925781 1.69311523 11.16235352 C-1.37138531 11.15052147 -4.43579136 11.13403712 -7.50024414 11.11352539 C-6.85755977 9.46645986 -6.21100612 7.82090364 -5.56274414 6.17602539 C-5.2030957 5.25950195 -4.84344727 4.34297852 -4.47290039 3.39868164 C-3.08592225 0.14011853 -3.08592225 0.14011853 0 0 Z " fill="#E1E1E1" transform="translate(466.500244140625,439.886474609375)"/>
<path d="M0 0 C8.58 0 17.16 0 26 0 C30 8 30 8 30 11 C21.75 11 13.5 11 5 11 C0 1 0 1 0 0 Z " fill="#AEAEAF" transform="translate(22,440)"/>
<path d="M0 0 C1.74796875 0.04060547 1.74796875 0.04060547 3.53125 0.08203125 C6.39774172 0.15251875 9.26040655 0.25100539 12.125 0.375 C8.08059907 5.73205737 3.88951194 9.09264677 -2.875 10.375 C-4.53489282 10.45411543 -6.1976287 10.48278885 -7.859375 10.47265625 C-8.79394531 10.46943359 -9.72851562 10.46621094 -10.69140625 10.46289062 C-11.65949219 10.45451172 -12.62757813 10.44613281 -13.625 10.4375 C-15.10033203 10.43073242 -15.10033203 10.43073242 -16.60546875 10.42382812 C-19.02870791 10.41206483 -21.45182273 10.39562684 -23.875 10.375 C-23.17375 9.83875 -22.4725 9.3025 -21.75 8.75 C-18.99568979 6.6563111 -18.99568979 6.6563111 -17.65966797 4.78662109 C-12.91764325 -1.22376536 -7.14996309 -0.3147275 0 0 Z " fill="#E0E0E1" transform="translate(467.875,457.625)"/>
<path d="M0 0 C5.61 0.33 11.22 0.66 17 1 C17 1.33 17 1.66 17 2 C14.03 2 11.06 2 8 2 C8.33 9.92 8.66 17.84 9 26 C3.55726773 23.82290709 2.50621597 23.09290677 0 18 C-0.44961312 14.8512943 -0.38153618 11.79704557 -0.25 8.625 C-0.23195312 7.79355469 -0.21390625 6.96210938 -0.1953125 6.10546875 C-0.14851573 4.06980926 -0.07678298 2.0347491 0 0 Z " fill="#EC6F28" transform="translate(243,160)"/>
<path d="M0 0 C1.07507813 -0.00128906 2.15015625 -0.00257813 3.2578125 -0.00390625 C4.38960937 -0.00003906 5.52140625 0.00382812 6.6875 0.0078125 C7.81929687 0.00394531 8.95109375 0.00007813 10.1171875 -0.00390625 C11.19226563 -0.00261719 12.26734375 -0.00132812 13.375 0 C14.86580078 0.00169189 14.86580078 0.00169189 16.38671875 0.00341797 C18.6875 0.1328125 18.6875 0.1328125 19.6875 1.1328125 C19.6875 2.7828125 19.6875 4.4328125 19.6875 6.1328125 C11.4375 6.1328125 3.1875 6.1328125 -5.3125 6.1328125 C-5.6425 4.4828125 -5.9725 2.8328125 -6.3125 1.1328125 C-4.59682208 -0.58286542 -2.33877265 0.00265425 0 0 Z " fill="#49417F" transform="translate(113.3125,450.8671875)"/>
<path d="M0 0 C5.71428571 0.71428571 5.71428571 0.71428571 7 2 C11.03160191 2.26293056 12.55892734 2.29404844 16 0 C18.6875 0.375 18.6875 0.375 21 1 C20.62118922 3.74637817 20.22167713 4.80049058 18.125 6.6875 C14.07702259 9.18772134 10.67895992 9.39652203 6 9 C0.48979592 6.14285714 0.48979592 6.14285714 -0.9375 2.8125 C-0.958125 2.214375 -0.97875 1.61625 -1 1 C-0.67 0.67 -0.34 0.34 0 0 Z " fill="#483B74" transform="translate(246,137)"/>
<path d="M0 0 C5.61 0 11.22 0 17 0 C17.33 1.65 17.66 3.3 18 5 C15.95733571 7.04266429 11.86308566 6.18507944 9.0625 6.1875 C8.32064453 6.19974609 7.57878906 6.21199219 6.81445312 6.22460938 C4.87486371 6.22988478 2.9357629 6.12188902 1 6 C0.34 5.34 -0.32 4.68 -1 4 C-0.67 2.68 -0.34 1.36 0 0 Z " fill="#443976" transform="translate(268,98)"/>
<path d="M0 0 C1.11858398 0.00580078 1.11858398 0.00580078 2.25976562 0.01171875 C3.37254883 0.00591797 3.37254883 0.00591797 4.5078125 0 C10.06899561 0.01008374 10.06899561 0.01008374 12.32226562 1.13671875 C11.44726562 5.01171875 11.44726562 5.01171875 10.32226562 6.13671875 C7.62571709 6.20991496 4.95535105 6.22914412 2.25976562 6.19921875 C1.50115234 6.19470703 0.74253906 6.19019531 -0.0390625 6.18554688 C-1.91865309 6.17372555 -3.79820336 6.15578953 -5.67773438 6.13671875 C-6.05992205 4.48057218 -6.39168539 2.81214851 -6.67773438 1.13671875 C-4.86585595 -0.67515967 -2.40795928 0.00437413 0 0 Z " fill="#443876" transform="translate(232.677734375,97.86328125)"/>
<path d="M0 0 C0 4.95 0 9.9 0 15 C-5 14 -5 14 -6.875 12.375 C-8.52568093 8.89022914 -7.9991864 6.66368347 -7 3 C-4.5091717 0.42614409 -3.61594767 0 0 0 Z " fill="#E3692C" transform="translate(201,87)"/>
<path d="M0 0 C5 1 5 1 6.875 2.625 C8.52568093 6.10977086 7.9991864 8.33631653 7 12 C5.125 13.9375 5.125 13.9375 3 15 C2.01 15 1.02 15 0 15 C0 10.05 0 5.1 0 0 Z " fill="#E4A22C" transform="translate(311,87)"/>
<path d="M0 0 C3.0625 0.1875 3.0625 0.1875 5.0625 2.1875 C5.375 5.1875 5.375 5.1875 5.0625 8.1875 C2.0625 10.1875 2.0625 10.1875 -0.5 9.9375 C-2.9375 9.1875 -2.9375 9.1875 -4.9375 7.1875 C-4.23164336 0.2701049 -4.23164336 0.2701049 0 0 Z " fill="#4C3B73" transform="translate(234.9375,108.8125)"/>
<path d="M0 0 C3 0.25 3 0.25 5 2.25 C5.36796448 5.12012296 5.37509409 6.65774618 3.8125 9.125 C2 10.25 2 10.25 -0.5625 10.0625 C-3 9.25 -3 9.25 -5 7.25 C-5.25 4.75 -5.25 4.75 -5 2.25 C-3 0.25 -3 0.25 0 0 Z " fill="#483C74" transform="translate(277,108.75)"/>
<path d="M0 0 C1.65 0.33 3.3 0.66 5 1 C5 4.96 5 8.92 5 13 C3.35 13.33 1.7 13.66 0 14 C-1 13 -1 13 -1.1328125 10.3125 C-1.13023437 9.219375 -1.12765625 8.12625 -1.125 7 C-1.12757813 5.906875 -1.13015625 4.81375 -1.1328125 3.6875 C-1 1 -1 1 0 0 Z " fill="#443976" transform="translate(254,115)"/>
</svg>
